<svg width="52" height="52" viewBox="0 0 52 52" fill="none" xmlns="http://www.w3.org/2000/svg">
<path d="M25.9998 1.7334C25.3924 1.73423 24.792 1.86275 24.2374 2.11061C23.6829 2.35847 23.1867 2.72014 22.781 3.17216C22.3752 3.62418 22.0691 4.15644 21.8823 4.73442C21.6956 5.3124 21.6324 5.92319 21.6969 6.52715L10.3863 12.9899C9.63862 12.4337 8.73162 12.1334 7.7998 12.1334C6.72916 12.138 5.69812 12.5387 4.90544 13.2584C4.11276 13.9781 3.61457 14.9657 3.50691 16.031C3.39926 17.0962 3.68976 18.1635 4.3224 19.0273C4.95505 19.891 5.88506 20.49 6.93313 20.7087V31.2881C5.88147 31.5033 4.94714 32.1013 4.31116 32.9661C3.67517 33.8309 3.38281 34.9009 3.49071 35.969C3.5986 37.037 4.09909 38.027 4.89519 38.7471C5.69129 39.4672 6.72633 39.8662 7.7998 39.8667C8.73084 39.865 9.63659 39.5635 10.3829 39.0068L21.6969 45.473C21.6324 46.0769 21.6956 46.6877 21.8823 47.2657C22.0691 47.8437 22.3752 48.376 22.781 48.828C23.1867 49.28 23.6829 49.6417 24.2374 49.8895C24.792 50.1374 25.3924 50.2659 25.9998 50.2667C26.6072 50.2659 27.2076 50.1374 27.7622 49.8895C28.3167 49.6417 28.8129 49.28 29.2187 48.828C29.6244 48.376 29.9306 47.8437 30.1173 47.2657C30.3041 46.6877 30.3672 46.0769 30.3027 45.473L41.6133 39.0102C42.361 39.5664 43.268 39.8667 44.1998 39.8667C45.2704 39.8622 46.3015 39.4614 47.0942 38.7417C47.8868 38.022 48.385 37.0344 48.4927 35.9692C48.6003 34.904 48.3098 33.8366 47.6772 32.9729C47.0446 32.1091 46.1145 31.5102 45.0665 31.2915V20.712C46.1181 20.4968 47.0525 19.8988 47.6884 19.0341C48.3244 18.1693 48.6168 17.0992 48.5089 16.0312C48.401 14.9631 47.9005 13.9732 47.1044 13.2531C46.3083 12.533 45.2733 12.134 44.1998 12.1334C43.2688 12.1351 42.363 12.4366 41.6167 12.9933L30.3027 6.52715C30.3672 5.92319 30.3041 5.3124 30.1173 4.73442C29.9306 4.15644 29.6244 3.62418 29.2187 3.17216C28.8129 2.72014 28.3167 2.35847 27.7622 2.11061C27.2076 1.86275 26.6072 1.73423 25.9998 1.7334ZM23.4133 9.54017C24.1606 10.0975 25.0676 10.3991 25.9998 10.4001C26.9308 10.3984 27.8366 10.0969 28.5829 9.54017L39.8969 16.0063C39.8171 16.7518 39.932 17.5052 40.2305 18.1929C40.529 18.8806 41.0008 19.4792 41.5998 19.93V32.0735C41.0013 32.524 40.5299 33.122 40.2314 33.8091C39.933 34.4962 39.8177 35.2489 39.8969 35.9938L28.5863 42.46C27.839 41.9026 26.932 41.601 25.9998 41.6001C25.0688 41.6018 24.163 41.9033 23.4167 42.46L12.1027 35.9938C12.1825 35.2484 12.0676 34.495 11.7691 33.8072C11.4706 33.1195 10.9988 32.521 10.3998 32.0701V19.9266C10.9983 19.4761 11.4698 18.8781 11.7682 18.191C12.0667 17.5039 12.1819 16.7512 12.1027 16.0063L23.4133 9.54017ZM25.9795 13.8667C25.6442 13.8707 25.3173 13.9719 25.0383 14.1579L14.6383 21.0912C14.3289 21.2976 14.0941 21.5981 13.9686 21.9482C13.8431 22.2984 13.8335 22.6796 13.9413 23.0356C14.0491 23.3915 14.2685 23.7034 14.5672 23.9251C14.8658 24.1468 15.2279 24.2666 15.5998 24.2667H17.3331V31.2001H15.5998C15.3701 31.1968 15.1421 31.2393 14.9289 31.3249C14.7158 31.4106 14.5218 31.5377 14.3582 31.699C14.1946 31.8603 14.0647 32.0524 13.9761 32.2644C13.8874 32.4763 13.8418 32.7037 13.8418 32.9334C13.8418 33.1631 13.8874 33.3905 13.9761 33.6024C14.0647 33.8144 14.1946 34.0065 14.3582 34.1678C14.5218 34.3291 14.7158 34.4562 14.9289 34.5419C15.1421 34.6275 15.3701 34.67 15.5998 34.6667H36.3998C36.6295 34.67 36.8575 34.6275 37.0707 34.5419C37.2838 34.4562 37.4778 34.3291 37.6414 34.1678C37.805 34.0065 37.9349 33.8144 38.0235 33.6024C38.1122 33.3905 38.1578 33.1631 38.1578 32.9334C38.1578 32.7037 38.1122 32.4763 38.0235 32.2644C37.9349 32.0524 37.805 31.8603 37.6414 31.699C37.4778 31.5377 37.2838 31.4106 37.0707 31.3249C36.8575 31.2393 36.6295 31.1968 36.3998 31.2001H34.6665V24.2667H36.3998C36.7717 24.2666 37.1338 24.1468 37.4324 23.9251C37.7311 23.7034 37.9505 23.3915 38.0583 23.0356C38.1661 22.6796 38.1565 22.2984 38.031 21.9482C37.9055 21.5981 37.6707 21.2976 37.3613 21.0912L26.9613 14.1579C26.6708 13.9642 26.3286 13.8627 25.9795 13.8667ZM20.7998 24.2667H24.2665V31.2001H20.7998V24.2667ZM27.7331 24.2667H31.1998V31.2001H27.7331V24.2667Z" fill="white"/>
</svg>
