<svg width="1034" height="103" viewBox="0 0 1034 103" fill="none" xmlns="http://www.w3.org/2000/svg">
<rect x="1.5" y="14.5" width="603" height="71" fill="url(#paint0_linear_249_676)" stroke="#0C0A12" stroke-width="3"/>
<rect x="607.5" y="14.5" width="143" height="71" fill="url(#paint1_linear_249_676)" stroke="#0C0A12" stroke-width="3"/>
<rect x="753.5" y="14.5" width="101" height="71" fill="url(#paint2_linear_249_676)" stroke="#0C0A12" stroke-width="3"/>
<rect x="857.5" y="14.5" width="102" height="71" fill="url(#paint3_linear_249_676)" stroke="#0C0A12" stroke-width="3"/>
<rect x="962.5" y="14.5" width="70" height="71" fill="url(#paint4_linear_249_676)" stroke="#0C0A12" stroke-width="3"/>
<path d="M647.452 11V2.97H648.827V9.724H652.237V11H647.452ZM653.905 11V9.79H655.522V4.18H653.905V2.97H658.525V4.18H656.908V9.79H658.525V11H653.905ZM664.01 12.98L662.8 10.989L663.042 11.099C663.012 11.099 662.976 11.099 662.932 11.099C662.895 11.1063 662.855 11.11 662.811 11.11C662.297 11.11 661.85 11.011 661.469 10.813C661.087 10.615 660.79 10.3363 660.578 9.977C660.365 9.61033 660.259 9.18867 660.259 8.712V5.258C660.259 4.76667 660.365 4.345 660.578 3.993C660.79 3.63367 661.087 3.355 661.469 3.157C661.85 2.959 662.297 2.86 662.811 2.86C663.324 2.86 663.771 2.959 664.153 3.157C664.534 3.355 664.831 3.63367 665.044 3.993C665.256 4.35233 665.363 4.774 665.363 5.258V8.712C665.363 9.196 665.256 9.62133 665.044 9.988C664.838 10.3473 664.545 10.6223 664.164 10.813L665.495 12.98H664.01ZM662.811 9.9C663.192 9.9 663.482 9.79733 663.68 9.592C663.885 9.37933 663.988 9.086 663.988 8.712V5.258C663.988 4.87667 663.881 4.58333 663.669 4.378C663.463 4.16533 663.177 4.059 662.811 4.059C662.444 4.059 662.154 4.16533 661.942 4.378C661.736 4.58333 661.634 4.87667 661.634 5.258V8.712C661.634 9.086 661.736 9.37933 661.942 9.592C662.147 9.79733 662.437 9.9 662.811 9.9ZM669.406 11.11C668.622 11.11 668.006 10.8973 667.558 10.472C667.118 10.0393 666.898 9.45267 666.898 8.712V2.97H668.284V8.701C668.284 9.08233 668.38 9.37933 668.57 9.592C668.761 9.80467 669.04 9.911 669.406 9.911C669.766 9.911 670.041 9.80467 670.231 9.592C670.429 9.37933 670.528 9.08233 670.528 8.701V2.97H671.914V8.712C671.914 9.45267 671.694 10.0393 671.254 10.472C670.814 10.8973 670.198 11.11 669.406 11.11ZM673.692 11V9.79H675.309V4.18H673.692V2.97H678.312V4.18H676.695V9.79H678.312V11H673.692ZM680.123 11V2.97H682.51C683.053 2.97 683.522 3.07267 683.918 3.278C684.321 3.48333 684.633 3.773 684.853 4.147C685.073 4.521 685.183 4.96467 685.183 5.478V8.481C685.183 8.987 685.073 9.43067 684.853 9.812C684.633 10.186 684.321 10.4793 683.918 10.692C683.522 10.8973 683.053 11 682.51 11H680.123ZM681.498 9.735H682.51C682.906 9.735 683.221 9.625 683.456 9.405C683.691 9.17767 683.808 8.86967 683.808 8.481V5.478C683.808 5.09667 683.691 4.796 683.456 4.576C683.221 4.34867 682.906 4.235 682.51 4.235H681.498V9.735ZM686.884 11V9.79H688.501V4.18H686.884V2.97H691.504V4.18H689.887V9.79H691.504V11H686.884ZM695.096 11V4.246H692.995V2.97H698.583V4.246H696.482V11H695.096ZM701.692 11V8.085L699.338 2.97H700.779L702.033 5.753C702.128 5.973 702.209 6.18933 702.275 6.402C702.341 6.61467 702.385 6.77967 702.407 6.897C702.436 6.77967 702.48 6.61467 702.539 6.402C702.605 6.18933 702.686 5.973 702.781 5.753L704.002 2.97H705.432L703.078 8.085V11H701.692Z" fill="white"/>
<path d="M660.935 96V94.79H663.025V89.191L660.924 90.753V89.301L662.772 87.97H664.4V94.79H666.083V96H660.935ZM670.896 96V94.405H667.321V92.414L670.412 87.97H671.952L668.641 92.777V93.195H670.896V91.38H672.271V96H670.896ZM676.502 96.11C676.187 96.11 675.934 96.0183 675.743 95.835C675.56 95.6517 675.468 95.4023 675.468 95.087C675.468 94.7717 675.56 94.5223 675.743 94.339C675.934 94.1483 676.187 94.053 676.502 94.053C676.817 94.053 677.067 94.1483 677.25 94.339C677.441 94.5223 677.536 94.7717 677.536 95.087C677.536 95.4023 677.441 95.6517 677.25 95.835C677.067 96.0183 676.817 96.11 676.502 96.11ZM683.087 96.11C682.346 96.11 681.752 95.9267 681.305 95.56C680.858 95.186 680.612 94.68 680.568 94.042H681.943C681.972 94.3207 682.082 94.537 682.273 94.691C682.471 94.8377 682.742 94.911 683.087 94.911C683.468 94.911 683.758 94.812 683.956 94.614C684.154 94.4087 684.253 94.1263 684.253 93.767V92.986C684.253 92.6193 684.154 92.3407 683.956 92.15C683.758 91.952 683.468 91.853 683.087 91.853C682.852 91.853 682.651 91.9007 682.482 91.996C682.313 92.0913 682.185 92.2233 682.097 92.392H680.755L680.81 87.97H685.331V89.213H682.108L682.086 91.545H682.405L682.075 91.82C682.075 91.4827 682.207 91.2187 682.471 91.028C682.742 90.83 683.105 90.731 683.56 90.731C684.213 90.7237 684.719 90.9217 685.078 91.325C685.445 91.721 685.628 92.2747 685.628 92.986V93.767C685.628 94.493 685.401 95.065 684.946 95.483C684.499 95.901 683.879 96.11 683.087 96.11ZM686.361 96L692.037 87.97H693.027L687.351 96H686.361ZM691.256 96.055C690.786 96.055 690.401 95.923 690.101 95.659C689.807 95.3877 689.661 95.0247 689.661 94.57V93.855C689.661 93.4003 689.807 93.041 690.101 92.777C690.401 92.5057 690.786 92.37 691.256 92.37C691.725 92.37 692.11 92.5057 692.411 92.777C692.711 93.041 692.862 93.4003 692.862 93.855V94.57C692.862 95.0247 692.711 95.3877 692.411 95.659C692.11 95.923 691.725 96.055 691.256 96.055ZM691.256 95.197C691.674 95.197 691.883 94.988 691.883 94.57V93.855C691.883 93.4297 691.674 93.217 691.256 93.217C690.838 93.217 690.629 93.4297 690.629 93.855V94.57C690.629 94.988 690.838 95.197 691.256 95.197ZM688.132 91.6C687.67 91.6 687.285 91.468 686.977 91.204C686.676 90.94 686.526 90.577 686.526 90.115V89.4C686.526 88.938 686.676 88.575 686.977 88.311C687.285 88.047 687.67 87.915 688.132 87.915C688.594 87.915 688.975 88.047 689.276 88.311C689.576 88.575 689.727 88.938 689.727 89.4V90.115C689.727 90.577 689.576 90.94 689.276 91.204C688.975 91.468 688.594 91.6 688.132 91.6ZM688.132 90.753C688.55 90.753 688.759 90.5403 688.759 90.115V89.4C688.759 88.9747 688.55 88.762 688.132 88.762C687.926 88.762 687.769 88.8133 687.659 88.916C687.556 89.0187 687.505 89.18 687.505 89.4V90.115C687.505 90.335 687.556 90.4963 687.659 90.599C687.769 90.7017 687.926 90.753 688.132 90.753Z" fill="#D7BEFF"/>
<path d="M764.751 11V2.97H767.138C767.68 2.97 768.15 3.07267 768.546 3.278C768.949 3.48333 769.261 3.773 769.481 4.147C769.701 4.521 769.811 4.96467 769.811 5.478V8.481C769.811 8.987 769.701 9.43067 769.481 9.812C769.261 10.186 768.949 10.4793 768.546 10.692C768.15 10.8973 767.68 11 767.138 11H764.751ZM766.126 9.735H767.138C767.534 9.735 767.849 9.625 768.084 9.405C768.318 9.17767 768.436 8.86967 768.436 8.481V5.478C768.436 5.09667 768.318 4.796 768.084 4.576C767.849 4.34867 767.534 4.235 767.138 4.235H766.126V9.735ZM770.906 11L772.93 2.97H774.701L776.736 11H775.328L774.888 9.053H772.754L772.314 11H770.906ZM773.007 7.931H774.635L774.151 5.775C774.071 5.41567 774.001 5.093 773.942 4.807C773.884 4.51367 773.843 4.301 773.821 4.169C773.799 4.301 773.759 4.51367 773.7 4.807C773.649 5.093 773.579 5.412 773.491 5.764L773.007 7.931ZM780.417 11.11C779.904 11.11 779.457 11.0147 779.075 10.824C778.701 10.626 778.412 10.351 778.206 9.999C778.008 9.63967 777.909 9.218 777.909 8.734V5.236C777.909 4.752 778.008 4.334 778.206 3.982C778.412 3.62267 778.701 3.34767 779.075 3.157C779.457 2.959 779.904 2.86 780.417 2.86C780.938 2.86 781.385 2.959 781.759 3.157C782.133 3.34767 782.419 3.62267 782.617 3.982C782.823 4.334 782.925 4.74833 782.925 5.225V8.734C782.925 9.218 782.823 9.63967 782.617 9.999C782.419 10.351 782.133 10.626 781.759 10.824C781.385 11.0147 780.938 11.11 780.417 11.11ZM780.417 9.9C780.791 9.9 781.074 9.801 781.264 9.603C781.455 9.39767 781.55 9.108 781.55 8.734V5.236C781.55 4.85467 781.455 4.565 781.264 4.367C781.074 4.169 780.791 4.07 780.417 4.07C780.043 4.07 779.761 4.169 779.57 4.367C779.38 4.565 779.284 4.85467 779.284 5.236V8.734C779.284 9.108 779.38 9.39767 779.57 9.603C779.768 9.801 780.051 9.9 780.417 9.9ZM792.916 11V4.246H790.815V2.97H796.403V4.246H794.302V11H792.916ZM797.74 11V2.97H800.281C800.817 2.97 801.279 3.069 801.667 3.267C802.063 3.465 802.371 3.74367 802.591 4.103C802.811 4.455 802.921 4.873 802.921 5.357C802.921 5.885 802.786 6.35067 802.514 6.754C802.25 7.15733 801.891 7.44333 801.436 7.612L803.031 11H801.491L800.094 7.81H799.115V11H797.74ZM799.115 6.6H800.281C800.67 6.6 800.974 6.49367 801.194 6.281C801.414 6.06833 801.524 5.775 801.524 5.401C801.524 5.01967 801.414 4.72267 801.194 4.51C800.974 4.29 800.67 4.18 800.281 4.18H799.115V6.6ZM804.468 11V2.97H809.286V4.169H805.821V6.259H808.901V7.447H805.821V9.801H809.286V11H804.468ZM810.481 11L812.505 2.97H814.276L816.311 11H814.903L814.463 9.053H812.329L811.889 11H810.481ZM812.582 7.931H814.21L813.726 5.775C813.645 5.41567 813.575 5.093 813.517 4.807C813.458 4.51367 813.418 4.301 813.396 4.169C813.374 4.301 813.333 4.51367 813.275 4.807C813.223 5.093 813.154 5.412 813.066 5.764L812.582 7.931ZM820.013 11.11C819.463 11.11 818.987 11.0183 818.583 10.835C818.18 10.6517 817.868 10.3913 817.648 10.054C817.436 9.70933 817.326 9.306 817.318 8.844H818.693C818.693 9.174 818.811 9.43433 819.045 9.625C819.287 9.80833 819.614 9.9 820.024 9.9C820.42 9.9 820.728 9.80833 820.948 9.625C821.176 9.44167 821.289 9.18867 821.289 8.866C821.289 8.59467 821.209 8.36 821.047 8.162C820.893 7.95667 820.67 7.81733 820.376 7.744L819.452 7.491C818.822 7.32967 818.334 7.04 817.989 6.622C817.652 6.204 817.483 5.698 817.483 5.104C817.483 4.64933 817.586 4.25333 817.791 3.916C817.997 3.57867 818.286 3.31833 818.66 3.135C819.042 2.95167 819.489 2.86 820.002 2.86C820.78 2.86 821.396 3.06167 821.85 3.465C822.305 3.861 822.536 4.39633 822.543 5.071H821.168C821.168 4.75567 821.066 4.51 820.86 4.334C820.655 4.15067 820.365 4.059 819.991 4.059C819.632 4.059 819.353 4.14333 819.155 4.312C818.957 4.48067 818.858 4.719 818.858 5.027C818.858 5.30567 818.932 5.544 819.078 5.742C819.232 5.93267 819.452 6.06833 819.738 6.149L820.695 6.413C821.333 6.57433 821.821 6.864 822.158 7.282C822.496 7.69267 822.664 8.20233 822.664 8.811C822.664 9.26567 822.554 9.669 822.334 10.021C822.114 10.3657 821.806 10.6333 821.41 10.824C821.014 11.0147 820.549 11.11 820.013 11.11ZM826.587 11.11C825.802 11.11 825.186 10.8973 824.739 10.472C824.299 10.0393 824.079 9.45267 824.079 8.712V2.97H825.465V8.701C825.465 9.08233 825.56 9.37933 825.751 9.592C825.942 9.80467 826.22 9.911 826.587 9.911C826.946 9.911 827.221 9.80467 827.412 9.592C827.61 9.37933 827.709 9.08233 827.709 8.701V2.97H829.095V8.712C829.095 9.45267 828.875 10.0393 828.435 10.472C827.995 10.8973 827.379 11.11 826.587 11.11ZM830.719 11V2.97H833.26C833.795 2.97 834.257 3.069 834.646 3.267C835.042 3.465 835.35 3.74367 835.57 4.103C835.79 4.455 835.9 4.873 835.9 5.357C835.9 5.885 835.764 6.35067 835.493 6.754C835.229 7.15733 834.869 7.44333 834.415 7.612L836.01 11H834.47L833.073 7.81H832.094V11H830.719ZM832.094 6.6H833.26C833.648 6.6 833.953 6.49367 834.173 6.281C834.393 6.06833 834.503 5.775 834.503 5.401C834.503 5.01967 834.393 4.72267 834.173 4.51C833.953 4.29 833.648 4.18 833.26 4.18H832.094V6.6ZM839.086 11V8.085L836.732 2.97H838.173L839.427 5.753C839.522 5.973 839.603 6.18933 839.669 6.402C839.735 6.61467 839.779 6.77967 839.801 6.897C839.83 6.77967 839.874 6.61467 839.933 6.402C839.999 6.18933 840.079 5.973 840.175 5.753L841.396 2.97H842.826L840.472 8.085V11H839.086Z" fill="white"/>
<path d="M796.53 98V96.79H798.62V91.191L796.519 92.753V91.301L798.367 89.97H799.995V96.79H801.678V98H796.53ZM805.502 98.11C804.981 98.11 804.53 98.011 804.149 97.813C803.768 97.615 803.471 97.3363 803.258 96.977C803.053 96.6177 802.95 96.196 802.95 95.712V92.258C802.95 91.774 803.053 91.3523 803.258 90.993C803.471 90.6337 803.768 90.355 804.149 90.157C804.53 89.959 804.981 89.86 805.502 89.86C806.03 89.86 806.481 89.959 806.855 90.157C807.236 90.355 807.53 90.6337 807.735 90.993C807.948 91.3523 808.054 91.774 808.054 92.258V95.712C808.054 96.196 807.948 96.6177 807.735 96.977C807.53 97.3363 807.236 97.615 806.855 97.813C806.474 98.011 806.023 98.11 805.502 98.11ZM805.502 96.922C805.883 96.922 806.188 96.812 806.415 96.592C806.642 96.372 806.756 96.0787 806.756 95.712V92.258C806.756 91.8913 806.642 91.598 806.415 91.378C806.188 91.158 805.883 91.048 805.502 91.048C805.121 91.048 804.816 91.158 804.589 91.378C804.362 91.598 804.248 91.8913 804.248 92.258V95.712C804.248 96.0787 804.362 96.372 804.589 96.592C804.816 96.812 805.121 96.922 805.502 96.922ZM805.502 94.7C805.289 94.7 805.113 94.6303 804.974 94.491C804.842 94.3517 804.776 94.172 804.776 93.952C804.776 93.732 804.842 93.556 804.974 93.424C805.106 93.292 805.282 93.226 805.502 93.226C805.722 93.226 805.898 93.292 806.03 93.424C806.162 93.556 806.228 93.732 806.228 93.952C806.228 94.172 806.162 94.3517 806.03 94.491C805.898 94.6303 805.722 94.7 805.502 94.7ZM808.765 98L814.441 89.97H815.431L809.755 98H808.765ZM813.66 98.055C813.191 98.055 812.806 97.923 812.505 97.659C812.212 97.3877 812.065 97.0247 812.065 96.57V95.855C812.065 95.4003 812.212 95.041 812.505 94.777C812.806 94.5057 813.191 94.37 813.66 94.37C814.129 94.37 814.514 94.5057 814.815 94.777C815.116 95.041 815.266 95.4003 815.266 95.855V96.57C815.266 97.0247 815.116 97.3877 814.815 97.659C814.514 97.923 814.129 98.055 813.66 98.055ZM813.66 97.197C814.078 97.197 814.287 96.988 814.287 96.57V95.855C814.287 95.4297 814.078 95.217 813.66 95.217C813.242 95.217 813.033 95.4297 813.033 95.855V96.57C813.033 96.988 813.242 97.197 813.66 97.197ZM810.536 93.6C810.074 93.6 809.689 93.468 809.381 93.204C809.08 92.94 808.93 92.577 808.93 92.115V91.4C808.93 90.938 809.08 90.575 809.381 90.311C809.689 90.047 810.074 89.915 810.536 89.915C810.998 89.915 811.379 90.047 811.68 90.311C811.981 90.575 812.131 90.938 812.131 91.4V92.115C812.131 92.577 811.981 92.94 811.68 93.204C811.379 93.468 810.998 93.6 810.536 93.6ZM810.536 92.753C810.954 92.753 811.163 92.5403 811.163 92.115V91.4C811.163 90.9747 810.954 90.762 810.536 90.762C810.331 90.762 810.173 90.8133 810.063 90.916C809.96 91.0187 809.909 91.18 809.909 91.4V92.115C809.909 92.335 809.96 92.4963 810.063 92.599C810.173 92.7017 810.331 92.753 810.536 92.753Z" fill="#D7BEFF"/>
<path d="M871.77 11.11C871.256 11.11 870.805 11.0147 870.417 10.824C870.035 10.626 869.738 10.351 869.526 9.999C869.32 9.63967 869.218 9.218 869.218 8.734V5.236C869.218 4.74467 869.32 4.323 869.526 3.971C869.738 3.619 870.035 3.34767 870.417 3.157C870.805 2.959 871.256 2.86 871.77 2.86C872.29 2.86 872.738 2.959 873.112 3.157C873.493 3.34767 873.79 3.619 874.003 3.971C874.215 4.323 874.322 4.74467 874.322 5.236H872.936C872.936 4.85467 872.833 4.565 872.628 4.367C872.43 4.169 872.144 4.07 871.77 4.07C871.396 4.07 871.106 4.169 870.901 4.367C870.695 4.565 870.593 4.851 870.593 5.225V8.734C870.593 9.108 870.695 9.39767 870.901 9.603C871.106 9.801 871.396 9.9 871.77 9.9C872.144 9.9 872.43 9.801 872.628 9.603C872.833 9.39767 872.936 9.108 872.936 8.734H874.322C874.322 9.21067 874.215 9.62867 874.003 9.988C873.79 10.3473 873.493 10.626 873.112 10.824C872.738 11.0147 872.29 11.11 871.77 11.11ZM878.321 11.11C877.808 11.11 877.361 11.0147 876.979 10.824C876.605 10.626 876.316 10.351 876.11 9.999C875.912 9.63967 875.813 9.218 875.813 8.734V5.236C875.813 4.752 875.912 4.334 876.11 3.982C876.316 3.62267 876.605 3.34767 876.979 3.157C877.361 2.959 877.808 2.86 878.321 2.86C878.842 2.86 879.289 2.959 879.663 3.157C880.037 3.34767 880.323 3.62267 880.521 3.982C880.727 4.334 880.829 4.74833 880.829 5.225V8.734C880.829 9.218 880.727 9.63967 880.521 9.999C880.323 10.351 880.037 10.626 879.663 10.824C879.289 11.0147 878.842 11.11 878.321 11.11ZM878.321 9.9C878.695 9.9 878.978 9.801 879.168 9.603C879.359 9.39767 879.454 9.108 879.454 8.734V5.236C879.454 4.85467 879.359 4.565 879.168 4.367C878.978 4.169 878.695 4.07 878.321 4.07C877.947 4.07 877.665 4.169 877.474 4.367C877.284 4.565 877.188 4.85467 877.188 5.236V8.734C877.188 9.108 877.284 9.39767 877.474 9.603C877.672 9.801 877.955 9.9 878.321 9.9ZM882.409 11V2.97H884.092L886.325 9.46C886.303 9.22533 886.278 8.95033 886.248 8.635C886.226 8.31233 886.208 7.986 886.193 7.656C886.179 7.31867 886.171 7.02533 886.171 6.776V2.97H887.425V11H885.742L883.531 4.51C883.546 4.72267 883.564 4.97933 883.586 5.28C883.608 5.58067 883.627 5.88867 883.641 6.204C883.656 6.51933 883.663 6.809 883.663 7.073V11H882.409ZM890.82 11V4.246H888.719V2.97H894.307V4.246H892.206V11H890.82ZM895.645 11V2.97H898.186C898.721 2.97 899.183 3.069 899.572 3.267C899.968 3.465 900.276 3.74367 900.496 4.103C900.716 4.455 900.826 4.873 900.826 5.357C900.826 5.885 900.69 6.35067 900.419 6.754C900.155 7.15733 899.795 7.44333 899.341 7.612L900.936 11H899.396L897.999 7.81H897.02V11H895.645ZM897.02 6.6H898.186C898.574 6.6 898.879 6.49367 899.099 6.281C899.319 6.06833 899.429 5.775 899.429 5.401C899.429 5.01967 899.319 4.72267 899.099 4.51C898.879 4.29 898.574 4.18 898.186 4.18H897.02V6.6ZM902.394 11V9.79H904.011V4.18H902.394V2.97H907.014V4.18H905.397V9.79H907.014V11H902.394ZM908.847 11V2.97H911.311C912.088 2.97 912.704 3.157 913.159 3.531C913.614 3.89767 913.841 4.4 913.841 5.038C913.841 5.39733 913.76 5.709 913.599 5.973C913.438 6.237 913.218 6.44233 912.939 6.589C912.668 6.73567 912.352 6.809 911.993 6.809V6.765C912.382 6.75767 912.726 6.831 913.027 6.985C913.335 7.13167 913.577 7.35167 913.753 7.645C913.936 7.93833 914.028 8.294 914.028 8.712C914.028 9.174 913.922 9.57733 913.709 9.922C913.496 10.2667 913.196 10.5343 912.807 10.725C912.426 10.9083 911.967 11 911.432 11H908.847ZM910.189 9.856H911.344C911.747 9.856 912.063 9.74967 912.29 9.537C912.525 9.317 912.642 9.02 912.642 8.646C912.642 8.272 912.525 7.97133 912.29 7.744C912.063 7.50933 911.747 7.392 911.344 7.392H910.189V9.856ZM910.189 6.281H911.289C911.656 6.281 911.942 6.18567 912.147 5.995C912.36 5.797 912.466 5.52933 912.466 5.192C912.466 4.85467 912.36 4.59067 912.147 4.4C911.942 4.20933 911.656 4.114 911.289 4.114H910.189V6.281ZM917.896 11.11C917.111 11.11 916.495 10.8973 916.048 10.472C915.608 10.0393 915.388 9.45267 915.388 8.712V2.97H916.774V8.701C916.774 9.08233 916.869 9.37933 917.06 9.592C917.25 9.80467 917.529 9.911 917.896 9.911C918.255 9.911 918.53 9.80467 918.721 9.592C918.919 9.37933 919.018 9.08233 919.018 8.701V2.97H920.404V8.712C920.404 9.45267 920.184 10.0393 919.744 10.472C919.304 10.8973 918.688 11.11 917.896 11.11ZM923.798 11V4.246H921.697V2.97H927.285V4.246H925.184V11H923.798ZM931.087 11.11C930.574 11.11 930.126 11.0147 929.745 10.824C929.371 10.626 929.081 10.351 928.876 9.999C928.678 9.63967 928.579 9.218 928.579 8.734V5.236C928.579 4.752 928.678 4.334 928.876 3.982C929.081 3.62267 929.371 3.34767 929.745 3.157C930.126 2.959 930.574 2.86 931.087 2.86C931.608 2.86 932.055 2.959 932.429 3.157C932.803 3.34767 933.089 3.62267 933.287 3.982C933.492 4.334 933.595 4.74833 933.595 5.225V8.734C933.595 9.218 933.492 9.63967 933.287 9.999C933.089 10.351 932.803 10.626 932.429 10.824C932.055 11.0147 931.608 11.11 931.087 11.11ZM931.087 9.9C931.461 9.9 931.743 9.801 931.934 9.603C932.125 9.39767 932.22 9.108 932.22 8.734V5.236C932.22 4.85467 932.125 4.565 931.934 4.367C931.743 4.169 931.461 4.07 931.087 4.07C930.713 4.07 930.431 4.169 930.24 4.367C930.049 4.565 929.954 4.85467 929.954 5.236V8.734C929.954 9.108 930.049 9.39767 930.24 9.603C930.438 9.801 930.72 9.9 931.087 9.9ZM935.219 11V2.97H937.76C938.295 2.97 938.757 3.069 939.146 3.267C939.542 3.465 939.85 3.74367 940.07 4.103C940.29 4.455 940.4 4.873 940.4 5.357C940.4 5.885 940.264 6.35067 939.993 6.754C939.729 7.15733 939.369 7.44333 938.915 7.612L940.51 11H938.97L937.573 7.81H936.594V11H935.219ZM936.594 6.6H937.76C938.148 6.6 938.453 6.49367 938.673 6.281C938.893 6.06833 939.003 5.775 939.003 5.401C939.003 5.01967 938.893 4.72267 938.673 4.51C938.453 4.29 938.148 4.18 937.76 4.18H936.594V6.6ZM944.301 11.11C943.751 11.11 943.274 11.0183 942.871 10.835C942.467 10.6517 942.156 10.3913 941.936 10.054C941.723 9.70933 941.613 9.306 941.606 8.844H942.981C942.981 9.174 943.098 9.43433 943.333 9.625C943.575 9.80833 943.901 9.9 944.312 9.9C944.708 9.9 945.016 9.80833 945.236 9.625C945.463 9.44167 945.577 9.18867 945.577 8.866C945.577 8.59467 945.496 8.36 945.335 8.162C945.181 7.95667 944.957 7.81733 944.664 7.744L943.74 7.491C943.109 7.32967 942.621 7.04 942.277 6.622C941.939 6.204 941.771 5.698 941.771 5.104C941.771 4.64933 941.873 4.25333 942.079 3.916C942.284 3.57867 942.574 3.31833 942.948 3.135C943.329 2.95167 943.776 2.86 944.29 2.86C945.067 2.86 945.683 3.06167 946.138 3.465C946.592 3.861 946.823 4.39633 946.831 5.071H945.456C945.456 4.75567 945.353 4.51 945.148 4.334C944.942 4.15067 944.653 4.059 944.279 4.059C943.919 4.059 943.641 4.14333 943.443 4.312C943.245 4.48067 943.146 4.719 943.146 5.027C943.146 5.30567 943.219 5.544 943.366 5.742C943.52 5.93267 943.74 6.06833 944.026 6.149L944.983 6.413C945.621 6.57433 946.108 6.864 946.446 7.282C946.783 7.69267 946.952 8.20233 946.952 8.811C946.952 9.26567 946.842 9.669 946.622 10.021C946.402 10.3657 946.094 10.6333 945.698 10.824C945.302 11.0147 944.836 11.11 944.301 11.11Z" fill="white"/>
<path d="M899.03 99V97.79H901.12V92.191L899.019 93.753V92.301L900.867 90.97H902.495V97.79H904.178V99H899.03ZM908.002 99.11C907.481 99.11 907.03 99.011 906.649 98.813C906.268 98.615 905.971 98.3363 905.758 97.977C905.553 97.6177 905.45 97.196 905.45 96.712V93.258C905.45 92.774 905.553 92.3523 905.758 91.993C905.971 91.6337 906.268 91.355 906.649 91.157C907.03 90.959 907.481 90.86 908.002 90.86C908.53 90.86 908.981 90.959 909.355 91.157C909.736 91.355 910.03 91.6337 910.235 91.993C910.448 92.3523 910.554 92.774 910.554 93.258V96.712C910.554 97.196 910.448 97.6177 910.235 97.977C910.03 98.3363 909.736 98.615 909.355 98.813C908.974 99.011 908.523 99.11 908.002 99.11ZM908.002 97.922C908.383 97.922 908.688 97.812 908.915 97.592C909.142 97.372 909.256 97.0787 909.256 96.712V93.258C909.256 92.8913 909.142 92.598 908.915 92.378C908.688 92.158 908.383 92.048 908.002 92.048C907.621 92.048 907.316 92.158 907.089 92.378C906.862 92.598 906.748 92.8913 906.748 93.258V96.712C906.748 97.0787 906.862 97.372 907.089 97.592C907.316 97.812 907.621 97.922 908.002 97.922ZM908.002 95.7C907.789 95.7 907.613 95.6303 907.474 95.491C907.342 95.3517 907.276 95.172 907.276 94.952C907.276 94.732 907.342 94.556 907.474 94.424C907.606 94.292 907.782 94.226 908.002 94.226C908.222 94.226 908.398 94.292 908.53 94.424C908.662 94.556 908.728 94.732 908.728 94.952C908.728 95.172 908.662 95.3517 908.53 95.491C908.398 95.6303 908.222 95.7 908.002 95.7ZM911.265 99L916.941 90.97H917.931L912.255 99H911.265ZM916.16 99.055C915.691 99.055 915.306 98.923 915.005 98.659C914.712 98.3877 914.565 98.0247 914.565 97.57V96.855C914.565 96.4003 914.712 96.041 915.005 95.777C915.306 95.5057 915.691 95.37 916.16 95.37C916.629 95.37 917.014 95.5057 917.315 95.777C917.616 96.041 917.766 96.4003 917.766 96.855V97.57C917.766 98.0247 917.616 98.3877 917.315 98.659C917.014 98.923 916.629 99.055 916.16 99.055ZM916.16 98.197C916.578 98.197 916.787 97.988 916.787 97.57V96.855C916.787 96.4297 916.578 96.217 916.16 96.217C915.742 96.217 915.533 96.4297 915.533 96.855V97.57C915.533 97.988 915.742 98.197 916.16 98.197ZM913.036 94.6C912.574 94.6 912.189 94.468 911.881 94.204C911.58 93.94 911.43 93.577 911.43 93.115V92.4C911.43 91.938 911.58 91.575 911.881 91.311C912.189 91.047 912.574 90.915 913.036 90.915C913.498 90.915 913.879 91.047 914.18 91.311C914.481 91.575 914.631 91.938 914.631 92.4V93.115C914.631 93.577 914.481 93.94 914.18 94.204C913.879 94.468 913.498 94.6 913.036 94.6ZM913.036 93.753C913.454 93.753 913.663 93.5403 913.663 93.115V92.4C913.663 91.9747 913.454 91.762 913.036 91.762C912.831 91.762 912.673 91.8133 912.563 91.916C912.46 92.0187 912.409 92.18 912.409 92.4V93.115C912.409 93.335 912.46 93.4963 912.563 93.599C912.673 93.7017 912.831 93.753 913.036 93.753Z" fill="#D7BEFF"/>
<path d="M968.616 11V2.97H970.244L971.025 5.522C971.106 5.77867 971.172 6.01333 971.223 6.226C971.274 6.43867 971.307 6.59267 971.322 6.688C971.337 6.59267 971.37 6.43867 971.421 6.226C971.472 6.01333 971.535 5.77867 971.608 5.522L972.356 2.97H973.984V11H972.697V8.503C972.697 8.13633 972.708 7.73667 972.73 7.304C972.752 6.87133 972.778 6.43867 972.807 6.006C972.836 5.57333 972.869 5.16267 972.906 4.774C972.95 4.38533 972.987 4.04433 973.016 3.751L971.938 7.546H970.684L969.573 3.751C969.61 4.02967 969.646 4.35967 969.683 4.741C969.72 5.115 969.753 5.51833 969.782 5.951C969.819 6.37633 969.848 6.809 969.87 7.249C969.892 7.689 969.903 8.107 969.903 8.503V11H968.616ZM974.981 11L977.005 2.97H978.776L980.811 11H979.403L978.963 9.053H976.829L976.389 11H974.981ZM977.082 7.931H978.71L978.226 5.775C978.145 5.41567 978.075 5.093 978.017 4.807C977.958 4.51367 977.918 4.301 977.896 4.169C977.874 4.301 977.833 4.51367 977.775 4.807C977.723 5.093 977.654 5.412 977.566 5.764L977.082 7.931ZM982.027 11V2.97H984.568C985.104 2.97 985.566 3.069 985.954 3.267C986.35 3.465 986.658 3.74367 986.878 4.103C987.098 4.455 987.208 4.873 987.208 5.357C987.208 5.885 987.073 6.35067 986.801 6.754C986.537 7.15733 986.178 7.44333 985.723 7.612L987.318 11H985.778L984.381 7.81H983.402V11H982.027ZM983.402 6.6H984.568C984.957 6.6 985.261 6.49367 985.481 6.281C985.701 6.06833 985.811 5.775 985.811 5.401C985.811 5.01967 985.701 4.72267 985.481 4.51C985.261 4.29 984.957 4.18 984.568 4.18H983.402V6.6ZM988.623 11V2.97H989.998V6.215H990.955L992.462 2.97H993.958L992.165 6.82L994.046 11H992.517L990.933 7.469H989.998V11H988.623ZM995.351 11V2.97H1000.17V4.169H996.704V6.259H999.784V7.447H996.704V9.801H1000.17V11H995.351ZM1003.59 11V4.246H1001.48V2.97H1007.07V4.246H1004.97V11H1003.59ZM1008.56 11V9.79H1010.18V4.18H1008.56V2.97H1013.18V4.18H1011.57V9.79H1013.18V11H1008.56ZM1014.96 11V2.97H1016.64L1018.88 9.46C1018.86 9.22533 1018.83 8.95033 1018.8 8.635C1018.78 8.31233 1018.76 7.986 1018.75 7.656C1018.73 7.31867 1018.72 7.02533 1018.72 6.776V2.97H1019.98V11H1018.29L1016.08 4.51C1016.1 4.72267 1016.12 4.97933 1016.14 5.28C1016.16 5.58067 1016.18 5.88867 1016.19 6.204C1016.21 6.51933 1016.22 6.809 1016.22 7.073V11H1014.96ZM1024.11 11.11C1023.6 11.11 1023.15 11.0147 1022.76 10.824C1022.38 10.626 1022.08 10.351 1021.87 9.999C1021.66 9.63967 1021.56 9.218 1021.56 8.734V5.236C1021.56 4.74467 1021.66 4.323 1021.87 3.971C1022.08 3.619 1022.38 3.34767 1022.76 3.157C1023.15 2.959 1023.6 2.86 1024.11 2.86C1024.63 2.86 1025.08 2.959 1025.45 3.157C1025.83 3.34767 1026.13 3.619 1026.34 3.971C1026.56 4.323 1026.66 4.74467 1026.66 5.236H1025.28C1025.28 4.85467 1025.17 4.565 1024.97 4.367C1024.77 4.169 1024.48 4.07 1024.11 4.07C1023.74 4.07 1023.45 4.169 1023.24 4.367C1023.04 4.565 1022.93 4.851 1022.93 5.225V8.734C1022.93 9.108 1023.04 9.39767 1023.24 9.603C1023.45 9.80833 1023.74 9.911 1024.11 9.911C1024.48 9.911 1024.77 9.80833 1024.97 9.603C1025.17 9.39767 1025.28 9.108 1025.28 8.734V7.92H1023.91V6.732H1026.66V8.734C1026.66 9.218 1026.56 9.63967 1026.34 9.999C1026.13 10.351 1025.83 10.626 1025.45 10.824C1025.08 11.0147 1024.63 11.11 1024.11 11.11Z" fill="white"/>
<path d="M987.705 99L990.609 92.246H988.035V93.412H986.66V90.97H991.984V92.268L989.179 99H987.705ZM995.896 99.11C995.58 99.11 995.327 99.0183 995.137 98.835C994.953 98.6517 994.862 98.4023 994.862 98.087C994.862 97.7717 994.953 97.5223 995.137 97.339C995.327 97.1483 995.58 97.053 995.896 97.053C996.211 97.053 996.46 97.1483 996.644 97.339C996.834 97.5223 996.93 97.7717 996.93 98.087C996.93 98.4023 996.834 98.6517 996.644 98.835C996.46 99.0183 996.211 99.11 995.896 99.11ZM1000.06 99V97.669L1002.57 95.15C1002.92 94.7907 1003.18 94.468 1003.35 94.182C1003.52 93.8887 1003.6 93.588 1003.6 93.28C1003.6 92.906 1003.5 92.6163 1003.29 92.411C1003.09 92.1983 1002.81 92.092 1002.46 92.092C1002.07 92.092 1001.77 92.2057 1001.55 92.433C1001.33 92.653 1001.22 92.961 1001.22 93.357H999.84C999.848 92.8437 999.958 92.4037 1000.17 92.037C1000.39 91.663 1000.7 91.3733 1001.09 91.168C1001.49 90.9627 1001.95 90.86 1002.48 90.86C1002.99 90.86 1003.43 90.9553 1003.8 91.146C1004.17 91.3367 1004.46 91.6043 1004.67 91.949C1004.87 92.2937 1004.98 92.7043 1004.98 93.181C1004.98 93.6723 1004.85 94.1527 1004.59 94.622C1004.34 95.084 1003.94 95.5827 1003.38 96.118L1001.71 97.757H1005.08V99H1000.06ZM1009.08 99.11C1008.34 99.11 1007.74 98.9267 1007.29 98.56C1006.85 98.186 1006.6 97.68 1006.56 97.042H1007.93C1007.96 97.3207 1008.07 97.537 1008.26 97.691C1008.46 97.8377 1008.73 97.911 1009.08 97.911C1009.46 97.911 1009.75 97.812 1009.95 97.614C1010.14 97.4087 1010.24 97.1263 1010.24 96.767V95.986C1010.24 95.6193 1010.14 95.3407 1009.95 95.15C1009.75 94.952 1009.46 94.853 1009.08 94.853C1008.84 94.853 1008.64 94.9007 1008.47 94.996C1008.3 95.0913 1008.17 95.2233 1008.09 95.392H1006.74L1006.8 90.97H1011.32V92.213H1008.1L1008.08 94.545H1008.39L1008.06 94.82C1008.06 94.4827 1008.2 94.2187 1008.46 94.028C1008.73 93.83 1009.09 93.731 1009.55 93.731C1010.2 93.7237 1010.71 93.9217 1011.07 94.325C1011.43 94.721 1011.62 95.2747 1011.62 95.986V96.767C1011.62 97.493 1011.39 98.065 1010.94 98.483C1010.49 98.901 1009.87 99.11 1009.08 99.11ZM1012.35 99L1018.03 90.97H1019.02L1013.34 99H1012.35ZM1017.24 99.055C1016.78 99.055 1016.39 98.923 1016.09 98.659C1015.8 98.3877 1015.65 98.0247 1015.65 97.57V96.855C1015.65 96.4003 1015.8 96.041 1016.09 95.777C1016.39 95.5057 1016.78 95.37 1017.24 95.37C1017.71 95.37 1018.1 95.5057 1018.4 95.777C1018.7 96.041 1018.85 96.4003 1018.85 96.855V97.57C1018.85 98.0247 1018.7 98.3877 1018.4 98.659C1018.1 98.923 1017.71 99.055 1017.24 99.055ZM1017.24 98.197C1017.66 98.197 1017.87 97.988 1017.87 97.57V96.855C1017.87 96.4297 1017.66 96.217 1017.24 96.217C1016.83 96.217 1016.62 96.4297 1016.62 96.855V97.57C1016.62 97.988 1016.83 98.197 1017.24 98.197ZM1014.12 94.6C1013.66 94.6 1013.27 94.468 1012.97 94.204C1012.67 93.94 1012.51 93.577 1012.51 93.115V92.4C1012.51 91.938 1012.67 91.575 1012.97 91.311C1013.27 91.047 1013.66 90.915 1014.12 90.915C1014.58 90.915 1014.96 91.047 1015.26 91.311C1015.57 91.575 1015.72 91.938 1015.72 92.4V93.115C1015.72 93.577 1015.57 93.94 1015.26 94.204C1014.96 94.468 1014.58 94.6 1014.12 94.6ZM1014.12 93.753C1014.54 93.753 1014.75 93.5403 1014.75 93.115V92.4C1014.75 91.9747 1014.54 91.762 1014.12 91.762C1013.92 91.762 1013.76 91.8133 1013.65 91.916C1013.55 92.0187 1013.49 92.18 1013.49 92.4V93.115C1013.49 93.335 1013.55 93.4963 1013.65 93.599C1013.76 93.7017 1013.92 93.753 1014.12 93.753Z" fill="#D7BEFF"/>
<path d="M250.781 11.11C250.267 11.11 249.816 11.0147 249.428 10.824C249.046 10.626 248.749 10.351 248.537 9.999C248.331 9.63967 248.229 9.218 248.229 8.734V5.236C248.229 4.74467 248.331 4.323 248.537 3.971C248.749 3.619 249.046 3.34767 249.428 3.157C249.816 2.959 250.267 2.86 250.781 2.86C251.301 2.86 251.749 2.959 252.123 3.157C252.504 3.34767 252.801 3.619 253.014 3.971C253.226 4.323 253.333 4.74467 253.333 5.236H251.947C251.947 4.85467 251.844 4.565 251.639 4.367C251.441 4.169 251.155 4.07 250.781 4.07C250.407 4.07 250.117 4.169 249.912 4.367C249.706 4.565 249.604 4.851 249.604 5.225V8.734C249.604 9.108 249.706 9.39767 249.912 9.603C250.117 9.801 250.407 9.9 250.781 9.9C251.155 9.9 251.441 9.801 251.639 9.603C251.844 9.39767 251.947 9.108 251.947 8.734H253.333C253.333 9.21067 253.226 9.62867 253.014 9.988C252.801 10.3473 252.504 10.626 252.123 10.824C251.749 11.0147 251.301 11.11 250.781 11.11ZM257.332 11.11C256.819 11.11 256.372 11.0147 255.99 10.824C255.616 10.626 255.327 10.351 255.121 9.999C254.923 9.63967 254.824 9.218 254.824 8.734V5.236C254.824 4.752 254.923 4.334 255.121 3.982C255.327 3.62267 255.616 3.34767 255.99 3.157C256.372 2.959 256.819 2.86 257.332 2.86C257.853 2.86 258.3 2.959 258.674 3.157C259.048 3.34767 259.334 3.62267 259.532 3.982C259.738 4.334 259.84 4.74833 259.84 5.225V8.734C259.84 9.218 259.738 9.63967 259.532 9.999C259.334 10.351 259.048 10.626 258.674 10.824C258.3 11.0147 257.853 11.11 257.332 11.11ZM257.332 9.9C257.706 9.9 257.989 9.801 258.179 9.603C258.37 9.39767 258.465 9.108 258.465 8.734V5.236C258.465 4.85467 258.37 4.565 258.179 4.367C257.989 4.169 257.706 4.07 257.332 4.07C256.958 4.07 256.676 4.169 256.485 4.367C256.295 4.565 256.199 4.85467 256.199 5.236V8.734C256.199 9.108 256.295 9.39767 256.485 9.603C256.683 9.801 256.966 9.9 257.332 9.9ZM261.244 11V2.97H262.872L263.653 5.522C263.734 5.77867 263.8 6.01333 263.851 6.226C263.902 6.43867 263.935 6.59267 263.95 6.688C263.965 6.59267 263.998 6.43867 264.049 6.226C264.1 6.01333 264.163 5.77867 264.236 5.522L264.984 2.97H266.612V11H265.325V8.503C265.325 8.13633 265.336 7.73667 265.358 7.304C265.38 6.87133 265.406 6.43867 265.435 6.006C265.464 5.57333 265.497 5.16267 265.534 4.774C265.578 4.38533 265.615 4.04433 265.644 3.751L264.566 7.546H263.312L262.201 3.751C262.238 4.02967 262.274 4.35967 262.311 4.741C262.348 5.115 262.381 5.51833 262.41 5.951C262.447 6.37633 262.476 6.809 262.498 7.249C262.52 7.689 262.531 8.107 262.531 8.503V11H261.244ZM267.84 11V2.97H269.468L270.249 5.522C270.329 5.77867 270.395 6.01333 270.447 6.226C270.498 6.43867 270.531 6.59267 270.546 6.688C270.56 6.59267 270.593 6.43867 270.645 6.226C270.696 6.01333 270.758 5.77867 270.832 5.522L271.58 2.97H273.208V11H271.921V8.503C271.921 8.13633 271.932 7.73667 271.954 7.304C271.976 6.87133 272.001 6.43867 272.031 6.006C272.06 5.57333 272.093 5.16267 272.13 4.774C272.174 4.38533 272.21 4.04433 272.24 3.751L271.162 7.546H269.908L268.797 3.751C268.833 4.02967 268.87 4.35967 268.907 4.741C268.943 5.115 268.976 5.51833 269.006 5.951C269.042 6.37633 269.072 6.809 269.094 7.249C269.116 7.689 269.127 8.107 269.127 8.503V11H267.84ZM277.119 11.11C276.335 11.11 275.719 10.8973 275.271 10.472C274.831 10.0393 274.611 9.45267 274.611 8.712V2.97H275.997V8.701C275.997 9.08233 276.093 9.37933 276.283 9.592C276.474 9.80467 276.753 9.911 277.119 9.911C277.479 9.911 277.754 9.80467 277.944 9.592C278.142 9.37933 278.241 9.08233 278.241 8.701V2.97H279.627V8.712C279.627 9.45267 279.407 10.0393 278.967 10.472C278.527 10.8973 277.911 11.11 277.119 11.11ZM281.207 11V2.97H282.89L285.123 9.46C285.101 9.22533 285.075 8.95033 285.046 8.635C285.024 8.31233 285.006 7.986 284.991 7.656C284.976 7.31867 284.969 7.02533 284.969 6.776V2.97H286.223V11H284.54L282.329 4.51C282.344 4.72267 282.362 4.97933 282.384 5.28C282.406 5.58067 282.424 5.88867 282.439 6.204C282.454 6.51933 282.461 6.809 282.461 7.073V11H281.207ZM288.001 11V9.79H289.618V4.18H288.001V2.97H292.621V4.18H291.004V9.79H292.621V11H288.001ZM296.213 11V4.246H294.112V2.97H299.7V4.246H297.599V11H296.213ZM302.809 11V8.085L300.455 2.97H301.896L303.15 5.753C303.245 5.973 303.326 6.18933 303.392 6.402C303.458 6.61467 303.502 6.77967 303.524 6.897C303.553 6.77967 303.597 6.61467 303.656 6.402C303.722 6.18933 303.803 5.973 303.898 5.753L305.119 2.97H306.549L304.195 8.085V11H302.809ZM313.779 11L315.803 2.97H317.574L319.609 11H318.201L317.761 9.053H315.627L315.187 11H313.779ZM315.88 7.931H317.508L317.024 5.775C316.943 5.41567 316.873 5.093 316.815 4.807C316.756 4.51367 316.716 4.301 316.694 4.169C316.672 4.301 316.631 4.51367 316.573 4.807C316.521 5.093 316.452 5.412 316.364 5.764L315.88 7.931ZM320.979 11V9.79H322.596V4.18H320.979V2.97H325.599V4.18H323.982V9.79H325.599V11H320.979ZM327.421 11V2.97H329.962C330.497 2.97 330.959 3.069 331.348 3.267C331.744 3.465 332.052 3.74367 332.272 4.103C332.492 4.455 332.602 4.873 332.602 5.357C332.602 5.885 332.466 6.35067 332.195 6.754C331.931 7.15733 331.572 7.44333 331.117 7.612L332.712 11H331.172L329.775 7.81H328.796V11H327.421ZM328.796 6.6H329.962C330.351 6.6 330.655 6.49367 330.875 6.281C331.095 6.06833 331.205 5.775 331.205 5.401C331.205 5.01967 331.095 4.72267 330.875 4.51C330.655 4.29 330.351 4.18 329.962 4.18H328.796V6.6ZM334.006 11V2.97H336.393C336.935 2.97 337.405 3.07267 337.801 3.278C338.204 3.48333 338.516 3.773 338.736 4.147C338.956 4.521 339.066 4.96467 339.066 5.478V8.481C339.066 8.987 338.956 9.43067 338.736 9.812C338.516 10.186 338.204 10.4793 337.801 10.692C337.405 10.8973 336.935 11 336.393 11H334.006ZM335.381 9.735H336.393C336.789 9.735 337.104 9.625 337.339 9.405C337.573 9.17767 337.691 8.86967 337.691 8.481V5.478C337.691 5.09667 337.573 4.796 337.339 4.576C337.104 4.34867 336.789 4.235 336.393 4.235H335.381V9.735ZM340.612 11V2.97H343.153C343.689 2.97 344.151 3.069 344.539 3.267C344.935 3.465 345.243 3.74367 345.463 4.103C345.683 4.455 345.793 4.873 345.793 5.357C345.793 5.885 345.658 6.35067 345.386 6.754C345.122 7.15733 344.763 7.44333 344.308 7.612L345.903 11H344.363L342.966 7.81H341.987V11H340.612ZM341.987 6.6H343.153C343.542 6.6 343.846 6.49367 344.066 6.281C344.286 6.06833 344.396 5.775 344.396 5.401C344.396 5.01967 344.286 4.72267 344.066 4.51C343.846 4.29 343.542 4.18 343.153 4.18H341.987V6.6ZM349.672 11.11C349.159 11.11 348.711 11.0147 348.33 10.824C347.956 10.626 347.666 10.351 347.461 9.999C347.263 9.63967 347.164 9.218 347.164 8.734V5.236C347.164 4.752 347.263 4.334 347.461 3.982C347.666 3.62267 347.956 3.34767 348.33 3.157C348.711 2.959 349.159 2.86 349.672 2.86C350.193 2.86 350.64 2.959 351.014 3.157C351.388 3.34767 351.674 3.62267 351.872 3.982C352.077 4.334 352.18 4.74833 352.18 5.225V8.734C352.18 9.218 352.077 9.63967 351.872 9.999C351.674 10.351 351.388 10.626 351.014 10.824C350.64 11.0147 350.193 11.11 349.672 11.11ZM349.672 9.9C350.046 9.9 350.328 9.801 350.519 9.603C350.71 9.39767 350.805 9.108 350.805 8.734V5.236C350.805 4.85467 350.71 4.565 350.519 4.367C350.328 4.169 350.046 4.07 349.672 4.07C349.298 4.07 349.016 4.169 348.825 4.367C348.634 4.565 348.539 4.85467 348.539 5.236V8.734C348.539 9.108 348.634 9.39767 348.825 9.603C349.023 9.801 349.305 9.9 349.672 9.9ZM353.815 11V2.97H356.488C357.023 2.97 357.489 3.07267 357.885 3.278C358.288 3.48333 358.6 3.773 358.82 4.147C359.04 4.51367 359.15 4.94633 359.15 5.445C359.15 5.93633 359.036 6.369 358.809 6.743C358.589 7.117 358.281 7.40667 357.885 7.612C357.489 7.81733 357.023 7.92 356.488 7.92H355.19V11H353.815ZM355.19 6.677H356.488C356.869 6.677 357.173 6.567 357.401 6.347C357.635 6.11967 357.753 5.819 357.753 5.445C357.753 5.06367 357.635 4.763 357.401 4.543C357.173 4.323 356.869 4.213 356.488 4.213H355.19V6.677Z" fill="white"/>
<path d="M287.502 96.11C286.761 96.11 286.167 95.9267 285.72 95.56C285.273 95.186 285.027 94.68 284.983 94.042H286.358C286.387 94.3207 286.497 94.537 286.688 94.691C286.886 94.8377 287.157 94.911 287.502 94.911C287.883 94.911 288.173 94.812 288.371 94.614C288.569 94.4087 288.668 94.1263 288.668 93.767V92.986C288.668 92.6193 288.569 92.3407 288.371 92.15C288.173 91.952 287.883 91.853 287.502 91.853C287.267 91.853 287.066 91.9007 286.897 91.996C286.728 92.0913 286.6 92.2233 286.512 92.392H285.17L285.225 87.97H289.746V89.213H286.523L286.501 91.545H286.82L286.49 91.82C286.49 91.4827 286.622 91.2187 286.886 91.028C287.157 90.83 287.52 90.731 287.975 90.731C288.628 90.7237 289.134 90.9217 289.493 91.325C289.86 91.721 290.043 92.2747 290.043 92.986V93.767C290.043 94.493 289.816 95.065 289.361 95.483C288.914 95.901 288.294 96.11 287.502 96.11ZM294.109 96.11C293.581 96.11 293.122 96.022 292.734 95.846C292.345 95.6627 292.044 95.406 291.832 95.076C291.619 94.746 291.513 94.361 291.513 93.921C291.513 93.437 291.648 93.0227 291.92 92.678C292.191 92.3333 292.594 92.04 293.13 91.798L294.362 91.237C294.626 91.1123 294.831 90.9437 294.978 90.731C295.132 90.5183 295.209 90.28 295.209 90.016C295.209 89.7153 295.11 89.477 294.912 89.301C294.714 89.1177 294.446 89.026 294.109 89.026C293.771 89.026 293.5 89.1177 293.295 89.301C293.097 89.4843 292.998 89.7263 292.998 90.027C292.998 90.2837 293.075 90.5183 293.229 90.731C293.383 90.9437 293.588 91.1087 293.845 91.226L295.066 91.787C295.645 92.0437 296.063 92.348 296.32 92.7C296.576 93.0447 296.705 93.4517 296.705 93.921C296.705 94.5957 296.47 95.131 296.001 95.527C295.539 95.9157 294.908 96.11 294.109 96.11ZM294.109 94.933C294.49 94.933 294.791 94.834 295.011 94.636C295.238 94.4307 295.352 94.163 295.352 93.833C295.352 93.5763 295.275 93.3343 295.121 93.107C294.967 92.8723 294.754 92.6927 294.483 92.568L293.174 91.963C292.675 91.7283 292.294 91.4497 292.03 91.127C291.773 90.797 291.645 90.4047 291.645 89.95C291.645 89.5393 291.744 89.1763 291.942 88.861C292.14 88.5457 292.422 88.3 292.789 88.124C293.163 87.948 293.603 87.86 294.109 87.86C294.615 87.86 295.047 87.948 295.407 88.124C295.773 88.3 296.056 88.5457 296.254 88.861C296.459 89.1763 296.562 89.5393 296.562 89.95C296.562 90.412 296.433 90.8043 296.177 91.127C295.92 91.4497 295.542 91.7283 295.044 91.963L293.724 92.579C293.46 92.6963 293.251 92.8687 293.097 93.096C292.943 93.3233 292.866 93.5653 292.866 93.822C292.866 94.152 292.976 94.4197 293.196 94.625C293.423 94.8303 293.727 94.933 294.109 94.933ZM300.704 96.11C300.389 96.11 300.136 96.0183 299.945 95.835C299.762 95.6517 299.67 95.4023 299.67 95.087C299.67 94.7717 299.762 94.5223 299.945 94.339C300.136 94.1483 300.389 94.053 300.704 94.053C301.02 94.053 301.269 94.1483 301.452 94.339C301.643 94.5223 301.738 94.7717 301.738 95.087C301.738 95.4023 301.643 95.6517 301.452 95.835C301.269 96.0183 301.02 96.11 300.704 96.11ZM304.869 96V94.669L307.377 92.15C307.729 91.7907 307.989 91.468 308.158 91.182C308.327 90.8887 308.411 90.588 308.411 90.28C308.411 89.906 308.308 89.6163 308.103 89.411C307.898 89.1983 307.619 89.092 307.267 89.092C306.878 89.092 306.574 89.2057 306.354 89.433C306.134 89.653 306.024 89.961 306.024 90.357H304.649C304.656 89.8437 304.766 89.4037 304.979 89.037C305.199 88.663 305.507 88.3733 305.903 88.168C306.299 87.9627 306.761 87.86 307.289 87.86C307.795 87.86 308.235 87.9553 308.609 88.146C308.983 88.3367 309.273 88.6043 309.478 88.949C309.683 89.2937 309.786 89.7043 309.786 90.181C309.786 90.6723 309.658 91.1527 309.401 91.622C309.152 92.084 308.748 92.5827 308.191 93.118L306.519 94.757H309.885V96H304.869ZM313.885 96.11C313.144 96.11 312.55 95.9267 312.103 95.56C311.655 95.186 311.41 94.68 311.366 94.042H312.741C312.77 94.3207 312.88 94.537 313.071 94.691C313.269 94.8377 313.54 94.911 313.885 94.911C314.266 94.911 314.556 94.812 314.754 94.614C314.952 94.4087 315.051 94.1263 315.051 93.767V92.986C315.051 92.6193 314.952 92.3407 314.754 92.15C314.556 91.952 314.266 91.853 313.885 91.853C313.65 91.853 313.448 91.9007 313.28 91.996C313.111 92.0913 312.983 92.2233 312.895 92.392H311.553L311.608 87.97H316.129V89.213H312.906L312.884 91.545H313.203L312.873 91.82C312.873 91.4827 313.005 91.2187 313.269 91.028C313.54 90.83 313.903 90.731 314.358 90.731C315.01 90.7237 315.516 90.9217 315.876 91.325C316.242 91.721 316.426 92.2747 316.426 92.986V93.767C316.426 94.493 316.198 95.065 315.744 95.483C315.296 95.901 314.677 96.11 313.885 96.11ZM317.158 96L322.834 87.97H323.824L318.148 96H317.158ZM322.053 96.055C321.584 96.055 321.199 95.923 320.898 95.659C320.605 95.3877 320.458 95.0247 320.458 94.57V93.855C320.458 93.4003 320.605 93.041 320.898 92.777C321.199 92.5057 321.584 92.37 322.053 92.37C322.523 92.37 322.908 92.5057 323.208 92.777C323.509 93.041 323.659 93.4003 323.659 93.855V94.57C323.659 95.0247 323.509 95.3877 323.208 95.659C322.908 95.923 322.523 96.055 322.053 96.055ZM322.053 95.197C322.471 95.197 322.68 94.988 322.68 94.57V93.855C322.68 93.4297 322.471 93.217 322.053 93.217C321.635 93.217 321.426 93.4297 321.426 93.855V94.57C321.426 94.988 321.635 95.197 322.053 95.197ZM318.929 91.6C318.467 91.6 318.082 91.468 317.774 91.204C317.474 90.94 317.323 90.577 317.323 90.115V89.4C317.323 88.938 317.474 88.575 317.774 88.311C318.082 88.047 318.467 87.915 318.929 87.915C319.391 87.915 319.773 88.047 320.073 88.311C320.374 88.575 320.524 88.938 320.524 89.4V90.115C320.524 90.577 320.374 90.94 320.073 91.204C319.773 91.468 319.391 91.6 318.929 91.6ZM318.929 90.753C319.347 90.753 319.556 90.5403 319.556 90.115V89.4C319.556 88.9747 319.347 88.762 318.929 88.762C318.724 88.762 318.566 88.8133 318.456 88.916C318.354 89.0187 318.302 89.18 318.302 89.4V90.115C318.302 90.335 318.354 90.4963 318.456 90.599C318.566 90.7017 318.724 90.753 318.929 90.753Z" fill="#D7BEFF"/>
<circle cx="303.5" cy="50.5" r="23.5" fill="white"/>
<circle cx="803.5" cy="50.5" r="23.5" fill="white"/>
<circle cx="908.5" cy="50.5" r="23.5" fill="white"/>
<circle cx="997.5" cy="50.5" r="23.5" fill="white"/>
<circle cx="675.5" cy="50.5" r="23.5" fill="white"/>
<path d="M676 37C675.843 37.0002 675.689 37.0373 675.549 37.1082C675.409 37.1791 675.288 37.2819 675.195 37.4082C675.185 37.421 675.175 37.434 675.166 37.4473C672.805 40.4856 667 50.0235 667 55C667 59.971 671.029 64 676 64C680.971 64 685 59.971 685 55C685 50.0291 679.208 40.5104 676.842 37.4609C676.842 37.4606 676.842 37.4593 676.842 37.459C676.83 37.4417 676.818 37.4247 676.805 37.4082C676.712 37.2819 676.591 37.1791 676.451 37.1082C676.311 37.0373 676.157 37.0002 676 37ZM670 54C670.553 54 671 54.447 671 55C671 57.11 672.34 59.003 674.334 59.709C674.854 59.893 675.126 60.4634 674.941 60.9844C674.796 61.3944 674.412 61.6504 674 61.6504C673.89 61.6504 673.776 61.6327 673.666 61.5938C670.875 60.6068 669 57.956 669 55C669 54.447 669.447 54 670 54Z" fill="black"/>
<path d="M804 37C803.65 37.0005 803.303 37.0746 802.983 37.2176C802.663 37.3606 802.377 37.5693 802.143 37.8301C801.909 38.0908 801.732 38.3979 801.625 38.7314C801.517 39.0648 801.48 39.4172 801.518 39.7656L794.992 43.4941C794.561 43.1733 794.038 43 793.5 43C792.882 43.0026 792.288 43.2338 791.83 43.649C791.373 44.0642 791.086 44.634 791.023 45.2486C790.961 45.8631 791.129 46.4789 791.494 46.9772C791.859 47.4755 792.395 47.8211 793 47.9473V54.0508C792.393 54.175 791.854 54.5199 791.487 55.0189C791.121 55.5178 790.952 56.1351 791.014 56.7513C791.076 57.3675 791.365 57.9386 791.824 58.354C792.284 58.7695 792.881 58.9997 793.5 59C794.037 58.999 794.56 58.8251 794.99 58.5039L801.518 62.2344C801.48 62.5828 801.517 62.9352 801.625 63.2686C801.732 63.6021 801.909 63.9092 802.143 64.1699C802.377 64.4307 802.663 64.6394 802.983 64.7824C803.303 64.9254 803.65 64.9995 804 65C804.351 64.9995 804.697 64.9254 805.017 64.7824C805.337 64.6394 805.623 64.4307 805.857 64.1699C806.091 63.9092 806.268 63.6021 806.376 63.2686C806.483 62.9352 806.52 62.5828 806.483 62.2344L813.008 58.5059C813.439 58.8267 813.963 59 814.5 59C815.118 58.9974 815.713 58.7662 816.17 58.351C816.627 57.9358 816.915 57.366 816.977 56.7514C817.039 56.1369 816.871 55.5211 816.506 55.0228C816.141 54.5245 815.605 54.1789 815 54.0527V47.9492C815.607 47.825 816.146 47.4801 816.513 46.9811C816.88 46.4822 817.048 45.8649 816.986 45.2487C816.924 44.6325 816.635 44.0614 816.176 43.646C815.717 43.2305 815.119 43.0003 814.5 43C813.963 43.001 813.44 43.1749 813.01 43.4961L806.483 39.7656C806.52 39.4172 806.483 39.0648 806.376 38.7314C806.268 38.3979 806.091 38.0908 805.857 37.8301C805.623 37.5693 805.337 37.3606 805.017 37.2176C804.697 37.0746 804.351 37.0005 804 37ZM802.508 41.5039C802.939 41.8255 803.462 41.9994 804 42C804.537 41.999 805.06 41.8251 805.49 41.5039L812.018 45.2344C811.972 45.6644 812.038 46.0991 812.21 46.4959C812.382 46.8926 812.655 47.2379 813 47.498V54.5039C812.655 54.7638 812.383 55.1088 812.211 55.5052C812.039 55.9016 811.972 56.3359 812.018 56.7656L805.492 60.4961C805.061 60.1745 804.538 60.0006 804 60C803.463 60.001 802.94 60.1749 802.51 60.4961L795.983 56.7656C796.029 56.3356 795.962 55.9009 795.79 55.5041C795.618 55.1074 795.346 54.7621 795 54.502V47.4961C795.345 47.2362 795.617 46.8912 795.79 46.4948C795.962 46.0984 796.028 45.6641 795.983 45.2344L802.508 41.5039ZM803.988 44C803.795 44.0023 803.606 44.0606 803.445 44.168L797.445 48.168C797.267 48.2871 797.131 48.4604 797.059 48.6624C796.987 48.8644 796.981 49.0843 797.043 49.2897C797.106 49.4951 797.232 49.675 797.404 49.8029C797.577 49.9308 797.786 49.9999 798 50H799V54H798C797.868 53.9981 797.736 54.0226 797.613 54.072C797.49 54.1214 797.378 54.1948 797.284 54.2878C797.189 54.3809 797.115 54.4918 797.063 54.614C797.012 54.7363 796.986 54.8675 796.986 55C796.986 55.1325 797.012 55.2637 797.063 55.386C797.115 55.5082 797.189 55.6191 797.284 55.7122C797.378 55.8052 797.49 55.8786 797.613 55.928C797.736 55.9774 797.868 56.0019 798 56H810C810.133 56.0019 810.264 55.9774 810.387 55.928C810.51 55.8786 810.622 55.8052 810.716 55.7122C810.811 55.6191 810.886 55.5082 810.937 55.386C810.988 55.2637 811.014 55.1325 811.014 55C811.014 54.8675 810.988 54.7363 810.937 54.614C810.886 54.4918 810.811 54.3809 810.716 54.2878C810.622 54.1948 810.51 54.1214 810.387 54.072C810.264 54.0226 810.133 53.9981 810 54H809V50H810C810.215 49.9999 810.424 49.9308 810.596 49.8029C810.768 49.675 810.895 49.4951 810.957 49.2897C811.019 49.0843 811.014 48.8644 810.941 48.6624C810.869 48.4604 810.733 48.2871 810.555 48.168L804.555 44.168C804.387 44.0562 804.19 43.9977 803.988 44ZM801 50H803V54H801V50ZM805 50H807V54H805V50Z" fill="black"/>
<path d="M909 41C905.818 41 904.5 43.041 904.5 45.5C904.5 46.328 904.896 47.1602 904.896 47.1602C904.737 47.2522 904.473 47.5445 904.539 48.0605C904.662 49.0225 905.08 49.2652 905.346 49.2852C905.447 50.1832 906.413 51.333 906.75 51.5V52.8418C906 55.0918 900 54.75 900 60H918C918 54.75 912 55.0918 911.25 52.8418V51.5C911.588 51.333 912.553 50.1832 912.654 49.2852C912.92 49.2652 913.338 49.0225 913.461 48.0605C913.527 47.5435 913.263 47.2522 913.104 47.1602C913.104 47.1602 913.5 46.409 913.5 45.5C913.5 43.679 912.785 42.125 911.25 42.125C911.25 42.125 910.717 41 909 41ZM916.5 42.998C915.988 42.998 915.552 43.0907 915.152 43.2227C915.371 43.9017 915.5 44.659 915.5 45.5C915.5 46.032 915.417 46.5197 915.311 46.9277C915.456 47.3567 915.505 47.8285 915.443 48.3125C915.302 49.4135 914.875 50.1618 914.338 50.6328C914.182 51.0108 913.968 51.3689 913.738 51.7109C914.022 52.2939 914.438 52.813 914.625 52.918V52.9297C916.662 53.8847 920 55.49 920 60H924C924 55.042 919 55.7539 918.375 53.6289V52.916C918.656 52.758 919.461 51.6722 919.545 50.8242C919.766 50.8052 920.115 50.577 920.217 49.668C920.272 49.18 920.052 48.9054 919.92 48.8184C919.92 48.8184 920.25 48.107 920.25 47.25C920.25 45.53 919.654 44.0625 918.375 44.0625C918.375 44.0625 917.931 42.998 916.5 42.998ZM901.5 43C900.069 43 899.625 44.0625 899.625 44.0625C898.346 44.0625 897.75 45.532 897.75 47.252C897.75 48.11 898.08 48.8184 898.08 48.8184C897.947 48.9044 897.728 49.18 897.783 49.668C897.885 50.577 898.234 50.8072 898.455 50.8262C898.539 51.6742 899.344 52.76 899.625 52.918V53.6289C899 55.7529 894 55.042 894 60H898C898 55.49 901.338 53.8857 903.375 52.9297V52.916C903.562 52.811 903.978 52.2949 904.262 51.7109C904.032 51.3689 903.818 51.0089 903.662 50.6309C903.125 50.1609 902.697 49.4125 902.557 48.3125C902.494 47.8225 902.545 47.3432 902.693 46.9102C902.585 46.4992 902.5 46.011 902.5 45.5C902.5 44.673 902.617 43.9128 902.83 43.2188C902.435 43.0898 902.005 43 901.5 43Z" fill="black"/>
<path d="M1006.5 40C1005.67 40 1005 40.672 1005 41.5V41.6152L994 45V55L1005 58.3848V58.5C1005 59.328 1005.67 60 1006.5 60C1007.33 60 1008 59.328 1008 58.5V41.5C1008 40.672 1007.33 40 1006.5 40ZM992 45.1992L985.801 45.8203C984.779 45.9223 984 46.7825 984 47.8105V52.1895C984 53.2175 984.779 54.0777 985.801 54.1797L988.23 54.4238L989.381 61.168C989.462 61.649 989.878 62 990.365 62H991C991.552 62 992 61.552 992 61L991.996 54.8008H992V45.1992ZM1010 47.5V52.5L1010.48 52.3789C1011.37 52.1559 1012 51.3565 1012 50.4395V49.5625C1012 48.6445 1011.37 47.8441 1010.48 47.6211L1010 47.5Z" fill="black"/>
<path d="M303 38C297.477 38 293 42.477 293 48C293 48 294.343 46 296 46C297.657 46 299 48 299 48C299 48 300.791 46 303 46C305.209 46 307 48 307 48C307 48 308.343 46 310 46C311.657 46 313 48 313 48C313 42.477 308.523 38 303 38ZM299.963 48.9863C299.815 48.9913 299.67 49.0291 299.538 49.097C299.406 49.1649 299.292 49.2612 299.202 49.379C299.112 49.4967 299.049 49.6329 299.018 49.7778C298.987 49.9227 298.989 50.0727 299.023 50.2168L300.531 57H300.033L295.875 49.5137C295.787 49.3512 295.657 49.2161 295.497 49.1234C295.337 49.0306 295.155 48.9839 294.971 48.9883C294.797 48.992 294.628 49.0408 294.479 49.1299C294.33 49.219 294.207 49.3454 294.121 49.4965C294.036 49.6476 293.991 49.8184 293.992 49.9919C293.993 50.1655 294.039 50.3358 294.125 50.4863L298 57.4609V61C298 62.105 298.895 63 300 63H306C307.105 63 308 62.105 308 61V57.4609L311.875 50.4863C311.963 50.3336 312.009 50.1603 312.008 49.9841C312.007 49.808 311.96 49.6351 311.871 49.4831C311.782 49.331 311.654 49.2052 311.501 49.1183C311.348 49.0314 311.174 48.9866 310.998 48.9883C310.819 48.9896 310.643 49.039 310.49 49.1315C310.336 49.2239 310.21 49.3559 310.125 49.5137L305.967 57H305.469L306.977 50.2168C307.011 50.0701 307.012 49.9175 306.98 49.7704C306.947 49.6232 306.882 49.4853 306.789 49.367C306.695 49.2487 306.576 49.153 306.441 49.0871C306.305 49.0211 306.157 48.9867 306.006 48.9863C305.775 48.9856 305.552 49.0645 305.373 49.2097C305.194 49.3549 305.07 49.5575 305.023 49.7832L303.42 57H302.58L300.977 49.7832C300.929 49.5521 300.801 49.3454 300.615 49.1996C300.43 49.0538 300.199 48.9782 299.963 48.9863Z" fill="black"/>
<defs>
<linearGradient id="paint0_linear_249_676" x1="481.479" y1="26.1402" x2="476.7" y2="113.175" gradientUnits="userSpaceOnUse">
<stop stop-color="#B88AFF"/>
<stop offset="1" stop-color="#303265"/>
</linearGradient>
<linearGradient id="paint1_linear_249_676" x1="722" y1="26.1402" x2="703.086" y2="109.127" gradientUnits="userSpaceOnUse">
<stop stop-color="#B88AFF"/>
<stop offset="1" stop-color="#303265"/>
</linearGradient>
<linearGradient id="paint2_linear_249_676" x1="834.63" y1="26.1402" x2="809.293" y2="105.331" gradientUnits="userSpaceOnUse">
<stop stop-color="#B88AFF"/>
<stop offset="1" stop-color="#303265"/>
</linearGradient>
<linearGradient id="paint3_linear_249_676" x1="939.425" y1="26.1402" x2="914.285" y2="105.471" gradientUnits="userSpaceOnUse">
<stop stop-color="#B88AFF"/>
<stop offset="1" stop-color="#303265"/>
</linearGradient>
<linearGradient id="paint4_linear_249_676" x1="1019" y1="26.1402" x2="986.053" y2="98.4199" gradientUnits="userSpaceOnUse">
<stop stop-color="#B88AFF"/>
<stop offset="1" stop-color="#303265"/>
</linearGradient>
</defs>
</svg>
