<svg width="31" height="30" viewBox="0 0 31 30" fill="none" xmlns="http://www.w3.org/2000/svg">
<g clip-path="url(#clip0_624_177)">
<path d="M15.7227 4C14.4957 4 13.5 4.99566 13.5 6.22266C13.5 8.01366 16.0975 10.2517 17.1055 11.0547C17.3385 11.2397 17.6615 11.2397 17.8945 11.0547C18.9035 10.2517 21.5 8.01366 21.5 6.22266C21.5 4.99566 20.5043 4 19.2773 4C18.5463 4 17.905 4.35639 17.5 4.90039C17.095 4.35639 16.4527 4 15.7227 4ZM15.5 12C15.3197 12.0006 15.1404 12.0256 14.9668 12.0742L14.9648 12.0703L7.73047 14.0684L7.70508 14.0801L7.69727 14.082C7.20048 14.1853 6.72789 14.3822 6.30469 14.6621C6.30143 14.6641 6.29817 14.666 6.29492 14.668L1.5 17V26.8965L7.5 23L18.5195 26.7402C18.8186 26.9096 19.1563 26.9991 19.5 27C19.8136 26.9995 20.1227 26.9252 20.4023 26.7832H20.4043C20.4063 26.7819 20.4082 26.7806 20.4102 26.7793C20.5509 26.7079 20.6827 26.62 20.8027 26.5176L29.3106 20.8262C29.7284 20.6396 30.0696 20.3154 30.2772 19.9076C30.4849 19.4998 30.5464 19.0332 30.4516 18.5855C30.3568 18.1378 30.1113 17.7362 29.7561 17.4477C29.401 17.1592 28.9576 17.0011 28.5 17C28.0255 17.0002 27.5665 17.1691 27.2051 17.4766L22.0645 20.6504L22.623 18.8301C22.79 18.2841 22.7873 17.7012 22.6133 17.1582L21.418 13.4453C21.2979 13.0292 21.0459 12.6634 20.7001 12.4027C20.3542 12.1421 19.9331 12.0008 19.5 12C19.1594 12.0006 18.8246 12.0882 18.5273 12.2545C18.23 12.4208 17.9802 12.6602 17.8014 12.9501C17.6226 13.24 17.5208 13.5708 17.5056 13.9111C17.4905 14.2514 17.5625 14.5899 17.7148 14.8945L18.6621 18.0195L17.8105 20.0781L17.5 20L12.5 18L16.2344 15.8594C16.6668 15.688 17.026 15.3713 17.2502 14.9637C17.4743 14.5561 17.5494 14.0831 17.4624 13.6261C17.3755 13.1692 17.132 12.7568 16.7738 12.46C16.4156 12.1632 15.9652 12.0005 15.5 12Z" fill="black"/>
</g>
<defs>
<clipPath id="clip0_624_177">
<rect width="30" height="30" fill="white" transform="translate(0.5)"/>
</clipPath>
</defs>
</svg>
