<svg width="30" height="30" viewBox="0 0 30 30" fill="none" xmlns="http://www.w3.org/2000/svg">
<path d="M11 5C5.477 5 1 9.477 1 15C1 20.523 5.477 25 11 25C16.523 25 21 20.523 21 15C21 9.477 16.523 5 11 5ZM18.5039 5.64453C21.2429 7.84353 23 11.214 23 15C23 18.786 21.2429 22.1565 18.5039 24.3555C22.2959 22.9345 25 19.288 25 15C25 10.712 22.2959 7.06553 18.5039 5.64453ZM22.5039 5.64453C25.2429 7.84353 27 11.214 27 15C27 18.786 25.2429 22.1565 22.5039 24.3555C26.2959 22.9345 29 19.288 29 15C29 10.712 26.2959 7.06553 22.5039 5.64453ZM10 9H12V10.6152C13.35 10.9172 14.2529 11.8371 14.2969 13.0801H12.6113C12.5283 12.4041 11.8992 11.9531 11.0332 11.9531C10.1372 11.9531 9.54492 12.3685 9.54492 13.0215C9.54492 13.5495 9.95208 13.8534 10.9551 14.0664L11.9883 14.2852C13.7093 14.6472 14.4492 15.3907 14.4492 16.7188C14.4492 18.1488 13.532 19.1074 12 19.3984V21H10V19.4023C8.529 19.1263 7.60478 18.2233 7.55078 16.9023H9.28125C9.36425 17.5963 10.0652 18.041 11.0742 18.041C12.0052 18.041 12.6641 17.5904 12.6641 16.9434C12.6641 16.3974 12.2375 16.0834 11.1875 15.8574L10.0723 15.6191C8.51227 15.2931 7.74609 14.4808 7.74609 13.1758C7.74609 11.8628 8.615 10.9271 10 10.6191V9Z" fill="black"/>
</svg>
