<svg width="55" height="55" viewBox="0 0 55 55" fill="none" xmlns="http://www.w3.org/2000/svg">
<mask id="path-1-outside-1_38_1153" maskUnits="userSpaceOnUse" x="19.9722" y="0.481934" width="34" height="34" fill="black">
<rect fill="white" x="19.9722" y="0.481934" width="34" height="34"/>
<path d="M42.1256 17.7868C42.177 17.8048 42.231 17.8228 42.2825 17.8408C42.6682 17.8614 43.0283 17.7714 43.3652 17.5835C44.4711 17.5835 45.5795 17.5912 46.6854 17.5835C46.9092 17.5835 47.0738 17.6376 47.2306 17.8048C47.6241 18.2216 48.033 18.6204 48.442 19.0218C48.73 19.3048 49.0643 19.3254 49.3138 19.0861C49.5736 18.8365 49.5607 18.4789 49.2701 18.183C48.7737 17.6787 48.2645 17.1899 47.7759 16.6805C47.5727 16.4695 47.3515 16.3897 47.0635 16.3949C46.2713 16.4077 45.4818 16.4052 44.6897 16.4C44.5714 16.4 44.4094 16.4798 44.3579 16.2791C44.8466 15.4198 44.9494 14.4832 44.8929 13.5184C45.15 13.2766 45.4175 13.0424 45.6593 12.7877C45.9936 12.4352 46.0347 12.0519 45.8393 11.6094C45.667 11.2157 45.3584 10.9353 45.0523 10.66C44.7926 10.4284 44.8748 10.3075 45.1115 10.1428C47.0969 8.78693 49.9053 9.00819 51.667 10.6677C52.0528 11.0305 52.3769 11.0691 52.6469 10.7835C52.9144 10.5004 52.8706 10.1634 52.4746 9.80835C50.9032 8.39585 49.0669 7.83239 46.9709 8.15143C46.6134 8.20546 46.2636 8.3058 45.8856 8.39071C45.9139 8.26721 45.9319 8.16172 45.9627 8.05881C46.2173 7.23034 46.2868 6.38387 46.1839 5.52711C46.0065 4.04 45.4098 2.74328 44.3476 1.67811C44.0853 1.41311 43.7458 1.4234 43.5041 1.66782C43.2675 1.90453 43.2649 2.21584 43.4938 2.48599C43.6584 2.68153 43.8307 2.87192 43.985 3.07518C45.3146 4.83501 45.4149 7.35127 44.0622 9.29892C43.9464 9.46616 43.8513 9.45587 43.7201 9.31436C43.5375 9.11882 43.3523 8.92071 43.1466 8.75091C42.5216 8.23119 41.9224 8.13599 41.3592 8.7895C41.192 8.98246 41.0145 9.16771 40.8397 9.35553C40.7779 9.39669 40.7188 9.43014 40.6391 9.42242C39.6823 9.32465 38.7874 9.54335 37.9335 9.96015C37.8744 9.84437 37.9026 9.72087 37.9026 9.60252C37.9026 8.81008 37.8975 8.01764 37.9078 7.2252C37.9129 6.95248 37.8358 6.73378 37.6352 6.54082C37.126 6.0494 36.6347 5.54255 36.1332 5.04341C35.8426 4.75783 35.4697 4.72438 35.2228 4.95594C34.9656 5.19779 34.9991 5.576 35.3102 5.88731C35.678 6.26038 36.0432 6.63859 36.4264 6.99621C36.627 7.18403 36.7119 7.38214 36.7093 7.66259C36.699 8.75862 36.7145 9.85466 36.7196 10.9533C36.5602 11.2157 36.4624 11.4987 36.465 11.81C36.465 11.9104 36.4599 12.0133 36.3441 12.0493C35.9661 12.1651 35.6369 12.4121 35.2331 12.4584C34.4461 11.6608 33.6617 10.8581 32.8696 10.0656C32.0552 9.24747 31.0685 8.87097 29.9094 8.93615C29.9094 8.93615 29.8863 8.93615 29.8734 8.93615C29.5005 8.95931 29.2716 9.15742 29.2485 9.47388C29.2253 9.79291 29.4208 10.027 29.7808 10.1017C30.1666 10.1814 30.5575 10.1531 30.9459 10.1248C31.1568 10.1094 31.3111 10.1634 31.4628 10.3178C32.3681 11.2389 33.2862 12.1522 34.1992 13.0656C33.2785 13.6908 32.3989 14.37 31.6351 15.1856C31.5888 15.2345 31.5168 15.2602 31.4551 15.2988C30.8276 14.6685 30.2026 14.0356 29.5751 13.4052C29.1199 12.9498 28.9038 12.9472 28.4486 13.4026C27.2579 14.5913 26.0671 15.78 24.8841 16.9738C24.7272 17.1333 24.5652 17.2053 24.3389 17.2002C23.449 17.1873 22.5592 17.1899 21.6719 17.1976C21.2424 17.2002 20.9801 17.4292 20.9723 17.7816C20.9646 18.1727 21.2038 18.3863 21.6693 18.3914C22.6569 18.4017 23.6419 18.3966 24.6295 18.4171C24.9715 18.4249 25.2287 18.3116 25.4705 18.0672C26.5661 16.9558 27.6771 15.8623 28.7701 14.7482C28.9656 14.5501 29.0736 14.5553 29.2613 14.7508C29.7063 15.2191 30.1743 15.6642 30.6347 16.117C30.6012 16.2739 30.4649 16.3486 30.3672 16.454C29.2922 17.5938 28.0731 18.5998 27.1319 19.8657C27.083 19.9197 27.0264 19.966 26.9853 20.0252C25.3804 22.2121 24.614 24.6692 24.6295 27.3758C24.6372 28.6854 25.6068 29.6554 26.9235 29.6708C28.3252 29.6863 29.6934 29.4753 31.0205 29.0147C32.4247 28.5285 33.7183 27.8415 34.8293 26.8381C35.0068 26.6915 35.1971 26.5577 35.3617 26.3981C36.2901 25.4874 37.2108 24.5688 38.1341 23.6529C38.5945 24.1057 39.0445 24.5714 39.5203 25.0088C39.7492 25.2198 39.7286 25.3433 39.5152 25.5543C38.4016 26.6477 37.3034 27.7592 36.2001 28.8629C36.0458 29.0173 35.8863 29.1691 35.8863 29.4187C35.8941 30.5173 35.8915 31.6133 35.9043 32.7119C35.9043 32.9358 35.9712 33.1442 36.2104 33.2497C36.6579 33.4529 37.0822 33.1828 37.0874 32.6708C37.0951 31.7934 37.0925 30.9135 37.0745 30.0362C37.0694 29.7737 37.1414 29.5859 37.3343 29.3955C38.543 28.2043 39.7364 27.0028 40.9348 25.8012C41.3155 25.4205 41.3155 25.1477 40.9451 24.7747C40.2944 24.116 39.6412 23.4574 38.988 22.7987C39.8444 21.9857 40.5773 21.0698 41.228 20.0869C42.1384 21.0003 43.0463 21.9188 43.967 22.8244C44.1213 22.9762 44.1856 23.1255 44.1625 23.3364C44.1213 23.6992 44.111 24.0646 44.1702 24.4299C44.2345 24.8416 44.4711 25.0731 44.8003 25.0474C45.1397 25.0217 45.3584 24.767 45.3635 24.363C45.3712 23.8767 45.3584 23.3879 45.3635 22.9016C45.3661 22.6546 45.2761 22.4642 45.0986 22.2893C44.0004 21.201 42.9126 20.1024 41.8195 19.0089C41.9713 18.6178 42.1256 18.2242 42.2773 17.8331C42.2259 17.8151 42.1719 17.7971 42.1204 17.7791"/>
</mask>
<path d="M42.1256 17.7868C42.177 17.8048 42.231 17.8228 42.2825 17.8408C42.6682 17.8614 43.0283 17.7714 43.3652 17.5835C44.4711 17.5835 45.5795 17.5912 46.6854 17.5835C46.9092 17.5835 47.0738 17.6376 47.2306 17.8048C47.6241 18.2216 48.033 18.6204 48.442 19.0218C48.73 19.3048 49.0643 19.3254 49.3138 19.0861C49.5736 18.8365 49.5607 18.4789 49.2701 18.183C48.7737 17.6787 48.2645 17.1899 47.7759 16.6805C47.5727 16.4695 47.3515 16.3897 47.0635 16.3949C46.2713 16.4077 45.4818 16.4052 44.6897 16.4C44.5714 16.4 44.4094 16.4798 44.3579 16.2791C44.8466 15.4198 44.9494 14.4832 44.8929 13.5184C45.15 13.2766 45.4175 13.0424 45.6593 12.7877C45.9936 12.4352 46.0347 12.0519 45.8393 11.6094C45.667 11.2157 45.3584 10.9353 45.0523 10.66C44.7926 10.4284 44.8748 10.3075 45.1115 10.1428C47.0969 8.78693 49.9053 9.00819 51.667 10.6677C52.0528 11.0305 52.3769 11.0691 52.6469 10.7835C52.9144 10.5004 52.8706 10.1634 52.4746 9.80835C50.9032 8.39585 49.0669 7.83239 46.9709 8.15143C46.6134 8.20546 46.2636 8.3058 45.8856 8.39071C45.9139 8.26721 45.9319 8.16172 45.9627 8.05881C46.2173 7.23034 46.2868 6.38387 46.1839 5.52711C46.0065 4.04 45.4098 2.74328 44.3476 1.67811C44.0853 1.41311 43.7458 1.4234 43.5041 1.66782C43.2675 1.90453 43.2649 2.21584 43.4938 2.48599C43.6584 2.68153 43.8307 2.87192 43.985 3.07518C45.3146 4.83501 45.4149 7.35127 44.0622 9.29892C43.9464 9.46616 43.8513 9.45587 43.7201 9.31436C43.5375 9.11882 43.3523 8.92071 43.1466 8.75091C42.5216 8.23119 41.9224 8.13599 41.3592 8.7895C41.192 8.98246 41.0145 9.16771 40.8397 9.35553C40.7779 9.39669 40.7188 9.43014 40.6391 9.42242C39.6823 9.32465 38.7874 9.54335 37.9335 9.96015C37.8744 9.84437 37.9026 9.72087 37.9026 9.60252C37.9026 8.81008 37.8975 8.01764 37.9078 7.2252C37.9129 6.95248 37.8358 6.73378 37.6352 6.54082C37.126 6.0494 36.6347 5.54255 36.1332 5.04341C35.8426 4.75783 35.4697 4.72438 35.2228 4.95594C34.9656 5.19779 34.9991 5.576 35.3102 5.88731C35.678 6.26038 36.0432 6.63859 36.4264 6.99621C36.627 7.18403 36.7119 7.38214 36.7093 7.66259C36.699 8.75862 36.7145 9.85466 36.7196 10.9533C36.5602 11.2157 36.4624 11.4987 36.465 11.81C36.465 11.9104 36.4599 12.0133 36.3441 12.0493C35.9661 12.1651 35.6369 12.4121 35.2331 12.4584C34.4461 11.6608 33.6617 10.8581 32.8696 10.0656C32.0552 9.24747 31.0685 8.87097 29.9094 8.93615C29.9094 8.93615 29.8863 8.93615 29.8734 8.93615C29.5005 8.95931 29.2716 9.15742 29.2485 9.47388C29.2253 9.79291 29.4208 10.027 29.7808 10.1017C30.1666 10.1814 30.5575 10.1531 30.9459 10.1248C31.1568 10.1094 31.3111 10.1634 31.4628 10.3178C32.3681 11.2389 33.2862 12.1522 34.1992 13.0656C33.2785 13.6908 32.3989 14.37 31.6351 15.1856C31.5888 15.2345 31.5168 15.2602 31.4551 15.2988C30.8276 14.6685 30.2026 14.0356 29.5751 13.4052C29.1199 12.9498 28.9038 12.9472 28.4486 13.4026C27.2579 14.5913 26.0671 15.78 24.8841 16.9738C24.7272 17.1333 24.5652 17.2053 24.3389 17.2002C23.449 17.1873 22.5592 17.1899 21.6719 17.1976C21.2424 17.2002 20.9801 17.4292 20.9723 17.7816C20.9646 18.1727 21.2038 18.3863 21.6693 18.3914C22.6569 18.4017 23.6419 18.3966 24.6295 18.4171C24.9715 18.4249 25.2287 18.3116 25.4705 18.0672C26.5661 16.9558 27.6771 15.8623 28.7701 14.7482C28.9656 14.5501 29.0736 14.5553 29.2613 14.7508C29.7063 15.2191 30.1743 15.6642 30.6347 16.117C30.6012 16.2739 30.4649 16.3486 30.3672 16.454C29.2922 17.5938 28.0731 18.5998 27.1319 19.8657C27.083 19.9197 27.0264 19.966 26.9853 20.0252C25.3804 22.2121 24.614 24.6692 24.6295 27.3758C24.6372 28.6854 25.6068 29.6554 26.9235 29.6708C28.3252 29.6863 29.6934 29.4753 31.0205 29.0147C32.4247 28.5285 33.7183 27.8415 34.8293 26.8381C35.0068 26.6915 35.1971 26.5577 35.3617 26.3981C36.2901 25.4874 37.2108 24.5688 38.1341 23.6529C38.5945 24.1057 39.0445 24.5714 39.5203 25.0088C39.7492 25.2198 39.7286 25.3433 39.5152 25.5543C38.4016 26.6477 37.3034 27.7592 36.2001 28.8629C36.0458 29.0173 35.8863 29.1691 35.8863 29.4187C35.8941 30.5173 35.8915 31.6133 35.9043 32.7119C35.9043 32.9358 35.9712 33.1442 36.2104 33.2497C36.6579 33.4529 37.0822 33.1828 37.0874 32.6708C37.0951 31.7934 37.0925 30.9135 37.0745 30.0362C37.0694 29.7737 37.1414 29.5859 37.3343 29.3955C38.543 28.2043 39.7364 27.0028 40.9348 25.8012C41.3155 25.4205 41.3155 25.1477 40.9451 24.7747C40.2944 24.116 39.6412 23.4574 38.988 22.7987C39.8444 21.9857 40.5773 21.0698 41.228 20.0869C42.1384 21.0003 43.0463 21.9188 43.967 22.8244C44.1213 22.9762 44.1856 23.1255 44.1625 23.3364C44.1213 23.6992 44.111 24.0646 44.1702 24.4299C44.2345 24.8416 44.4711 25.0731 44.8003 25.0474C45.1397 25.0217 45.3584 24.767 45.3635 24.363C45.3712 23.8767 45.3584 23.3879 45.3635 22.9016C45.3661 22.6546 45.2761 22.4642 45.0986 22.2893C44.0004 21.201 42.9126 20.1024 41.8195 19.0089C41.9713 18.6178 42.1256 18.2242 42.2773 17.8331C42.2259 17.8151 42.1719 17.7971 42.1204 17.7791" fill="url(#paint0_linear_38_1153)"/>
<path d="M42.2825 17.8408L42.1697 18.1628L42.2157 18.1789L42.2643 18.1815L42.2825 17.8408ZM43.3652 17.5835V17.2424H43.2765L43.1991 17.2856L43.3652 17.5835ZM46.6854 17.5835V17.2424L46.683 17.2424L46.6854 17.5835ZM47.2306 17.8048L46.9818 18.0382L46.9826 18.039L47.2306 17.8048ZM48.442 19.0218L48.681 18.7784L48.6809 18.7783L48.442 19.0218ZM49.3138 19.0861L49.5499 19.3323L49.5502 19.3321L49.3138 19.0861ZM49.2701 18.183L49.5135 17.944L49.5132 17.9437L49.2701 18.183ZM47.7759 16.6805L48.0221 16.4443L48.0216 16.4438L47.7759 16.6805ZM47.0635 16.3949L47.069 16.736L47.0696 16.736L47.0635 16.3949ZM44.6897 16.4L44.6919 16.0589H44.6897V16.4ZM44.3579 16.2791L44.0614 16.1105L43.9932 16.2303L44.0275 16.3638L44.3579 16.2791ZM44.8929 13.5184L44.6592 13.2699L44.543 13.3792L44.5523 13.5384L44.8929 13.5184ZM45.6593 12.7877L45.9067 13.0226L45.9068 13.0225L45.6593 12.7877ZM45.8393 11.6094L45.5268 11.7461L45.5272 11.7472L45.8393 11.6094ZM45.0523 10.66L45.2804 10.4063L45.2793 10.4053L45.0523 10.66ZM45.1115 10.1428L44.9191 9.8611L44.9166 9.86282L45.1115 10.1428ZM51.667 10.6677L51.4331 10.916L51.4333 10.9162L51.667 10.6677ZM52.6469 10.7835L52.8948 11.0178L52.8948 11.0178L52.6469 10.7835ZM52.4746 9.80835L52.2465 10.0621L52.2469 10.0624L52.4746 9.80835ZM46.9709 8.15143L47.0219 8.48873L47.0222 8.48868L46.9709 8.15143ZM45.8856 8.39071L45.5531 8.31453L45.4322 8.84216L45.9603 8.72355L45.8856 8.39071ZM45.9627 8.05881L45.6366 7.95859L45.636 7.96082L45.9627 8.05881ZM46.1839 5.52711L45.8452 5.56753L45.8452 5.56778L46.1839 5.52711ZM44.3476 1.67811L44.1052 1.91811L44.1061 1.91899L44.3476 1.67811ZM43.5041 1.66782L43.7453 1.909L43.7466 1.90771L43.5041 1.66782ZM43.4938 2.48599L43.7548 2.26631L43.7541 2.26547L43.4938 2.48599ZM43.985 3.07518L44.2572 2.86953L44.2567 2.8689L43.985 3.07518ZM44.0622 9.29892L43.782 9.10432L43.7816 9.1048L44.0622 9.29892ZM43.7201 9.31436L43.9703 9.08246L43.9694 9.08153L43.7201 9.31436ZM43.1466 8.75091L42.9285 9.0132L42.9294 9.014L43.1466 8.75091ZM41.3592 8.7895L41.617 9.01287L41.6176 9.01221L41.3592 8.7895ZM40.8397 9.35553L41.0289 9.63933L41.0621 9.61719L41.0893 9.58799L40.8397 9.35553ZM40.6391 9.42242L40.6044 9.76179L40.6062 9.76197L40.6391 9.42242ZM37.9335 9.96015L37.6297 10.1154L37.7821 10.4137L38.0832 10.2667L37.9335 9.96015ZM37.9078 7.2252L37.5667 7.21877L37.5667 7.22077L37.9078 7.2252ZM37.6352 6.54082L37.3983 6.78629L37.3987 6.78667L37.6352 6.54082ZM36.1332 5.04341L36.3739 4.80162L36.3723 4.8001L36.1332 5.04341ZM35.2228 4.95594L34.9894 4.70711L34.9891 4.70742L35.2228 4.95594ZM35.3102 5.88731L35.5532 5.64782L35.5515 5.64614L35.3102 5.88731ZM36.4264 6.99621L36.6596 6.74719L36.6592 6.74682L36.4264 6.99621ZM36.7093 7.66259L37.0504 7.66579V7.66571L36.7093 7.66259ZM36.7196 10.9533L37.0111 11.1304L37.0612 11.048L37.0607 10.9517L36.7196 10.9533ZM36.465 11.81H36.8061L36.8061 11.8072L36.465 11.81ZM36.3441 12.0493L36.444 12.3755L36.4455 12.375L36.3441 12.0493ZM35.2331 12.4584L34.9903 12.698L35.1069 12.8162L35.272 12.7973L35.2331 12.4584ZM32.8696 10.0656L32.6278 10.3063L32.6283 10.3068L32.8696 10.0656ZM29.9094 8.93615V9.27728H29.919L29.9286 9.27675L29.9094 8.93615ZM29.8734 8.93615V8.59502H29.8628L29.8523 8.59567L29.8734 8.93615ZM29.2485 9.47388L28.9082 9.44899L28.9082 9.44919L29.2485 9.47388ZM29.7808 10.1017L29.7116 10.4357L29.7118 10.4357L29.7808 10.1017ZM30.9459 10.1248L30.9707 10.465L30.9708 10.465L30.9459 10.1248ZM31.4628 10.3178L31.7061 10.0787L31.7061 10.0786L31.4628 10.3178ZM34.1992 13.0656L34.3909 13.3478L34.7321 13.1161L34.4405 12.8244L34.1992 13.0656ZM31.6351 15.1856L31.8828 15.4202L31.8841 15.4188L31.6351 15.1856ZM31.4551 15.2988L31.2133 15.5395L31.4053 15.7323L31.6359 15.5881L31.4551 15.2988ZM29.5751 13.4052L29.8168 13.1645L29.8164 13.164L29.5751 13.4052ZM28.4486 13.4026L28.6896 13.6441L28.6899 13.6438L28.4486 13.4026ZM24.8841 16.9738L24.6418 16.7336L24.6409 16.7346L24.8841 16.9738ZM24.3389 17.2002L24.3466 16.8591L24.3438 16.8591L24.3389 17.2002ZM21.6719 17.1976L21.6739 17.5387L21.6749 17.5387L21.6719 17.1976ZM20.9723 17.7816L20.6313 17.7742L20.6313 17.7749L20.9723 17.7816ZM21.6693 18.3914L21.6655 18.7325L21.6658 18.7325L21.6693 18.3914ZM24.6295 18.4171L24.6372 18.0761L24.6366 18.0761L24.6295 18.4171ZM25.4705 18.0672L25.713 18.3071L25.7134 18.3067L25.4705 18.0672ZM28.7701 14.7482L28.5273 14.5087L28.5266 14.5093L28.7701 14.7482ZM29.2613 14.7508L29.5086 14.5158L29.5074 14.5146L29.2613 14.7508ZM30.6347 16.117L30.9683 16.1881L31.0073 16.005L30.8739 15.8738L30.6347 16.117ZM30.3672 16.454L30.6154 16.6881L30.6175 16.6859L30.3672 16.454ZM27.1319 19.8657L27.3849 20.0945L27.3958 20.0823L27.4056 20.0692L27.1319 19.8657ZM26.9853 20.0252L27.2604 20.2271L27.2653 20.2199L26.9853 20.0252ZM24.6295 27.3758L24.2883 27.3778L24.2883 27.3778L24.6295 27.3758ZM26.9235 29.6708L26.9195 30.0119L26.9198 30.0119L26.9235 29.6708ZM31.0205 29.0147L30.9088 28.6924L30.9086 28.6925L31.0205 29.0147ZM34.8293 26.8381L34.612 26.5751L34.6062 26.5799L34.6007 26.5849L34.8293 26.8381ZM35.3617 26.3981L35.5991 26.6431L35.6006 26.6417L35.3617 26.3981ZM38.1341 23.6529L38.3733 23.4097L38.1331 23.1734L37.8939 23.4107L38.1341 23.6529ZM39.5203 25.0088L39.7515 24.758L39.7512 24.7577L39.5203 25.0088ZM39.5152 25.5543L39.7542 25.7977L39.755 25.7969L39.5152 25.5543ZM35.8863 29.4187H35.5452L35.5452 29.4211L35.8863 29.4187ZM35.9043 32.7119H36.2455L36.2455 32.708L35.9043 32.7119ZM36.2104 33.2497L36.3515 32.9391L36.348 32.9375L36.2104 33.2497ZM37.0874 32.6708L37.4285 32.6742L37.4285 32.6738L37.0874 32.6708ZM37.0745 30.0362L36.7334 30.0429L36.7335 30.0432L37.0745 30.0362ZM37.3343 29.3955L37.0948 29.1526L37.0946 29.1527L37.3343 29.3955ZM40.9348 25.8012L40.6936 25.5601L40.6933 25.5603L40.9348 25.8012ZM40.9451 24.7747L40.7024 25.0144L40.703 25.015L40.9451 24.7747ZM38.988 22.7987L38.7531 22.5513L38.5002 22.7914L38.7457 23.0389L38.988 22.7987ZM41.228 20.0869L41.4696 19.8461L41.1744 19.5499L40.9436 19.8986L41.228 20.0869ZM43.967 22.8244L44.2062 22.5813L44.2062 22.5812L43.967 22.8244ZM44.1625 23.3364L44.5014 23.3749L44.5016 23.3736L44.1625 23.3364ZM44.1702 24.4299L44.5072 24.3773L44.5069 24.3754L44.1702 24.4299ZM44.8003 25.0474L44.7745 24.7072L44.7737 24.7073L44.8003 25.0474ZM45.3635 24.363L45.0224 24.3576L45.0224 24.3587L45.3635 24.363ZM45.3635 22.9016L45.7046 22.9052V22.9052L45.3635 22.9016ZM45.0986 22.2893L44.8585 22.5316L44.8591 22.5322L45.0986 22.2893ZM41.8195 19.0089L41.5015 18.8855L41.4211 19.0928L41.5783 19.2501L41.8195 19.0089ZM42.2773 17.8331L42.5953 17.9565L42.7229 17.6277L42.39 17.5111L42.2773 17.8331ZM42.0128 18.1088C42.04 18.1183 42.0676 18.1277 42.0937 18.1366C42.1203 18.1457 42.1454 18.1543 42.1697 18.1628L42.3952 17.5189C42.368 17.5093 42.3404 17.4999 42.3143 17.491C42.2877 17.4819 42.2626 17.4733 42.2383 17.4648L42.0128 18.1088ZM42.2643 18.1815C42.7183 18.2057 43.1418 18.0986 43.5313 17.8815L43.1991 17.2856C42.9147 17.4441 42.6182 17.5171 42.3006 17.5002L42.2643 18.1815ZM43.3652 17.9247C44.4677 17.9247 45.5805 17.9324 46.6878 17.9247L46.683 17.2424C45.5785 17.2501 44.4744 17.2424 43.3652 17.2424V17.9247ZM46.6854 17.9247C46.7704 17.9247 46.8225 17.9351 46.8597 17.9495C46.8944 17.963 46.9333 17.9865 46.9818 18.0382L47.4794 17.5714C47.3711 17.4559 47.2492 17.3688 47.1065 17.3134C46.9663 17.259 46.8241 17.2424 46.6854 17.2424V17.9247ZM46.9826 18.039C47.3815 18.4615 47.7957 18.8654 48.203 19.2652L48.6809 18.7783C48.2704 18.3754 47.8668 17.9817 47.4787 17.5706L46.9826 18.039ZM48.2029 19.2651C48.3897 19.4486 48.6178 19.5724 48.8684 19.5901C49.1251 19.6081 49.3631 19.5115 49.5499 19.3323L49.0777 18.8399C49.015 18.9 48.9612 18.9126 48.9163 18.9095C48.8654 18.9059 48.7823 18.8779 48.681 18.7784L48.2029 19.2651ZM49.5502 19.3321C49.7444 19.1455 49.851 18.9009 49.8391 18.6366C49.8275 18.3776 49.7042 18.1382 49.5135 17.944L49.0267 18.4221C49.1266 18.5237 49.155 18.6111 49.1576 18.6672C49.1598 18.7181 49.143 18.7771 49.0775 18.8401L49.5502 19.3321ZM49.5132 17.9437C49.0049 17.4272 48.5116 16.9547 48.0221 16.4443L47.5297 16.9166C48.0174 17.4251 48.5426 17.9302 49.027 18.4223L49.5132 17.9437ZM48.0216 16.4438C47.7459 16.1575 47.43 16.0471 47.0574 16.0538L47.0696 16.736C47.273 16.7323 47.3995 16.7815 47.5301 16.9171L48.0216 16.4438ZM47.0579 16.0538C46.2699 16.0666 45.4836 16.064 44.6919 16.0589L44.6875 16.7411C45.48 16.7463 46.2728 16.7489 47.069 16.736L47.0579 16.0538ZM44.6897 16.0589C44.6568 16.0589 44.6272 16.0616 44.6053 16.0641C44.585 16.0664 44.5617 16.0697 44.5502 16.0712C44.5353 16.0732 44.5274 16.074 44.5222 16.0744C44.5171 16.0747 44.5197 16.0742 44.5271 16.0749C44.5439 16.0763 44.5908 16.0843 44.6365 16.1233C44.6806 16.161 44.6894 16.1986 44.6884 16.1944L44.0275 16.3638C44.0521 16.46 44.1005 16.5628 44.1932 16.642C44.2874 16.7225 44.3918 16.7482 44.4704 16.7548C44.5422 16.7608 44.6086 16.7517 44.6402 16.7475C44.6613 16.7447 44.6705 16.7433 44.6818 16.742C44.6917 16.7409 44.693 16.7412 44.6897 16.7412V16.0589ZM44.6545 16.4477C45.188 15.5094 45.2921 14.4987 45.2334 13.4984L44.5523 13.5384C44.6068 14.4678 44.5051 15.3301 44.0614 16.1105L44.6545 16.4477ZM45.1265 13.7669C45.3717 13.5364 45.6561 13.2866 45.9067 13.0226L45.4118 12.5529C45.1789 12.7983 44.9284 13.0167 44.6592 13.2699L45.1265 13.7669ZM45.9068 13.0225C46.1132 12.8048 46.2464 12.558 46.2857 12.2801C46.3246 12.0052 46.267 11.7335 46.1513 11.4715L45.5272 11.7472C45.607 11.9277 45.6265 12.069 45.6102 12.1845C45.5942 12.297 45.5396 12.4181 45.4118 12.553L45.9068 13.0225ZM46.1518 11.4726C45.9455 11.0012 45.5789 10.6748 45.2804 10.4063L44.8242 10.9136C45.1378 11.1957 45.3885 11.4302 45.5268 11.7461L46.1518 11.4726ZM45.2793 10.4053C45.2553 10.3839 45.2394 10.3675 45.2294 10.3558C45.2192 10.3439 45.2172 10.3395 45.2188 10.3424C45.2206 10.3458 45.2269 10.3585 45.2306 10.3795C45.2324 10.39 45.2334 10.4017 45.2331 10.4141C45.2328 10.4266 45.2313 10.4387 45.2288 10.4501C45.2237 10.4732 45.2155 10.4889 45.2108 10.4965C45.2065 10.5035 45.205 10.504 45.2109 10.4979C45.2166 10.492 45.2268 10.4825 45.2435 10.4692C45.26 10.4559 45.2806 10.4407 45.3063 10.4228L44.9166 9.86282C44.8522 9.90763 44.7811 9.96101 44.7209 10.0231C44.6609 10.085 44.5905 10.1771 44.5627 10.3025C44.5007 10.5819 44.6861 10.7906 44.8253 10.9146L45.2793 10.4053ZM45.3038 10.4245C47.1563 9.15943 49.7875 9.36583 51.4331 10.916L51.9009 10.4194C50.0232 8.65055 47.0375 8.41442 44.9191 9.86111L45.3038 10.4245ZM51.4333 10.9162C51.6491 11.1191 51.8921 11.2757 52.1603 11.3075C52.4524 11.3421 52.7023 11.2213 52.8948 11.0178L52.399 10.5491C52.3214 10.6312 52.2743 10.634 52.2405 10.6299C52.1826 10.6231 52.0707 10.579 51.9007 10.4192L51.4333 10.9162ZM52.8948 11.0178C53.0856 10.8159 53.194 10.5578 53.1462 10.2675C53.1014 9.99581 52.9294 9.75792 52.7023 9.55434L52.2469 10.0624C52.4158 10.2138 52.4637 10.322 52.473 10.3783C52.4792 10.4161 52.4756 10.468 52.399 10.5492L52.8948 11.0178ZM52.7026 9.55465C51.0565 8.07496 49.1181 7.47954 46.9196 7.81418L47.0222 8.48868C49.0157 8.18525 50.7499 8.71674 52.2465 10.0621L52.7026 9.55465ZM46.9199 7.81413C46.5473 7.87044 46.1621 7.97896 45.8108 8.05786L45.9603 8.72355C46.3651 8.63264 46.6795 8.54048 47.0219 8.48873L46.9199 7.81413ZM46.2181 8.46688C46.2522 8.31818 46.2627 8.24608 46.2895 8.15679L45.636 7.96082C45.601 8.07736 45.5756 8.21623 45.5531 8.31453L46.2181 8.46688ZM46.2888 8.15902C46.5579 7.28345 46.631 6.3889 46.5226 5.48644L45.8452 5.56778C45.9426 6.37885 45.8768 7.17724 45.6367 7.95859L46.2888 8.15902ZM46.5226 5.48669C46.3367 3.92848 45.7085 2.55973 44.5892 1.43724L44.1061 1.91899C45.1111 2.92683 45.6762 4.15152 45.8452 5.56753L46.5226 5.48669ZM44.5901 1.43812C44.4041 1.25029 44.1695 1.1408 43.9181 1.1408C43.6675 1.1408 43.4379 1.24966 43.2615 1.42793L43.7466 1.90771C43.812 1.84156 43.873 1.82307 43.9181 1.82307C43.9625 1.82307 44.0288 1.84093 44.1052 1.9181L44.5901 1.43812ZM43.2628 1.42665C43.0899 1.59958 42.986 1.81893 42.9833 2.06048C42.9805 2.2993 43.077 2.52178 43.2335 2.70651L43.7541 2.26547C43.6817 2.18006 43.665 2.1118 43.6655 2.06825C43.6659 2.02743 43.6816 1.97277 43.7453 1.90899L43.2628 1.42665ZM43.2328 2.70568C43.4081 2.91398 43.5657 3.0871 43.7133 3.28145L44.2567 2.8689C44.0956 2.65674 43.9086 2.44908 43.7548 2.26631L43.2328 2.70568ZM43.7128 3.28082C44.9537 4.92314 45.0505 7.27793 43.782 9.10432L44.3423 9.49353C45.7793 7.42461 45.6756 4.74689 44.2572 2.86953L43.7128 3.28082ZM43.7816 9.1048C43.7641 9.13022 43.7608 9.12848 43.7742 9.11844C43.7919 9.10529 43.8334 9.08201 43.8929 9.08131C43.9493 9.08065 43.9853 9.1008 43.9935 9.10596C44 9.10998 43.9927 9.10663 43.9703 9.08246L43.4699 9.54626C43.5404 9.62234 43.6871 9.76605 43.9009 9.76353C44.1325 9.76081 44.2728 9.59404 44.3427 9.49305L43.7816 9.1048ZM43.9694 9.08153C43.7894 8.88875 43.5894 8.67407 43.3637 8.48781L42.9294 9.014C43.1153 9.16736 43.2856 9.3489 43.4708 9.54719L43.9694 9.08153ZM43.3647 8.48862C43.0263 8.20717 42.6472 7.99891 42.2378 7.9892C41.8099 7.97906 41.4287 8.18626 41.1008 8.56679L41.6176 9.01221C41.8528 8.73923 42.0529 8.66728 42.2216 8.67128C42.4089 8.67572 42.6419 8.77492 42.9285 9.01319L43.3647 8.48862ZM41.1013 8.56613C40.9395 8.75296 40.7693 8.93046 40.59 9.12306L41.0893 9.58799C41.2598 9.40495 41.4445 9.21196 41.617 9.01287L41.1013 8.56613ZM40.6504 9.07172C40.6376 9.08025 40.63 9.08497 40.6248 9.08794C40.6199 9.09073 40.6198 9.09042 40.6232 9.08909C40.627 9.0876 40.6343 9.08525 40.6441 9.08375C40.6541 9.08223 40.6637 9.08208 40.6719 9.08288L40.6062 9.76197C40.8129 9.78198 40.9595 9.68565 41.0289 9.63933L40.6504 9.07172ZM40.6737 9.08306C39.64 8.97741 38.681 9.21564 37.7839 9.65359L38.0832 10.2667C38.8937 9.87105 39.7247 9.67189 40.6044 9.76179L40.6737 9.08306ZM38.2373 9.80494C38.2416 9.8133 38.2372 9.81331 38.237 9.78048C38.2369 9.76274 38.2379 9.74296 38.2397 9.71165C38.2413 9.6839 38.2438 9.64376 38.2438 9.60252H37.5615C37.5615 9.62046 37.5604 9.64014 37.5586 9.67245C37.5569 9.7012 37.5545 9.74172 37.5548 9.78412C37.5552 9.87157 37.5663 9.99121 37.6297 10.1154L38.2373 9.80494ZM38.2438 9.60252C38.2438 8.80713 38.2386 8.01912 38.2489 7.22963L37.5667 7.22077C37.5564 8.01616 37.5615 8.81303 37.5615 9.60252H38.2438ZM38.2489 7.23163C38.2556 6.87587 38.1489 6.56165 37.8717 6.29497L37.3987 6.78667C37.5227 6.90592 37.5703 7.02908 37.5667 7.21877L38.2489 7.23163ZM37.8721 6.29535C37.3648 5.80583 36.8817 5.30709 36.3739 4.80163L35.8926 5.2852C36.3877 5.77801 36.8871 6.29298 37.3983 6.78629L37.8721 6.29535ZM36.3723 4.8001C35.9897 4.42413 35.406 4.31644 34.9894 4.70711L35.4562 5.20476C35.5334 5.13232 35.6955 5.09152 35.8941 5.28673L36.3723 4.8001ZM34.9891 4.70742C34.784 4.90026 34.6889 5.15849 34.7137 5.42693C34.7377 5.6873 34.8708 5.93024 35.069 6.12848L35.5515 5.64614C35.4385 5.53306 35.3993 5.43125 35.3931 5.36422C35.3876 5.30526 35.4044 5.25346 35.4565 5.20445L34.9891 4.70742ZM35.0673 6.1268C35.4316 6.49628 35.8038 6.88172 36.1937 7.24561L36.6592 6.74682C36.2827 6.39545 35.9245 6.02447 35.5532 5.64782L35.0673 6.1268ZM36.1933 7.24524C36.2666 7.31386 36.3065 7.37256 36.3302 7.42821C36.3539 7.48406 36.3692 7.55528 36.3682 7.65946L37.0504 7.66571C37.0521 7.48944 37.0261 7.32139 36.958 7.16112C36.8897 7.00065 36.7869 6.86638 36.6596 6.74719L36.1933 7.24524ZM36.3682 7.65938C36.3579 8.75858 36.3734 9.86058 36.3785 10.9549L37.0607 10.9517C37.0556 9.84875 37.0402 8.75867 37.0504 7.66579L36.3682 7.65938ZM36.4281 10.7761C36.2437 11.0796 36.1207 11.4243 36.1239 11.8129L36.8061 11.8072C36.8042 11.5732 36.8766 11.3518 37.0111 11.1304L36.4281 10.7761ZM36.1239 11.81C36.1239 11.834 36.1234 11.8455 36.1228 11.8527C36.1221 11.8597 36.1221 11.8516 36.1278 11.8359C36.1344 11.8181 36.1481 11.7914 36.1741 11.7662C36.2004 11.7407 36.2269 11.7285 36.2427 11.7236L36.4455 12.375C36.61 12.3238 36.7177 12.2086 36.7681 12.0717C36.8078 11.9637 36.8061 11.8535 36.8061 11.81H36.1239ZM36.2442 11.7231C36.0271 11.7896 35.8171 11.8964 35.6568 11.9695C35.4829 12.0487 35.3403 12.1027 35.1942 12.1195L35.272 12.7973C35.5297 12.7677 35.7535 12.6751 35.9397 12.5903C36.1394 12.4994 36.2831 12.4248 36.444 12.3755L36.2442 11.7231ZM35.4759 12.2188C34.6905 11.4228 33.904 10.6179 33.1109 9.82447L32.6283 10.3068C33.4194 11.0982 34.2017 11.8988 34.9903 12.698L35.4759 12.2188ZM33.1114 9.82497C32.2278 8.93733 31.1459 8.52494 29.8903 8.59556L29.9286 9.27675C30.991 9.217 31.8826 9.55761 32.6278 10.3063L33.1114 9.82497ZM29.9094 8.93615C29.9094 8.59502 29.9094 8.59502 29.9094 8.59502C29.9094 8.59502 29.9094 8.59502 29.9094 8.59502H29.9094C29.9094 8.59502 29.9094 8.59502 29.9094 8.59502C29.9094 8.59502 29.9094 8.59502 29.9094 8.59502C29.9094 8.59502 29.9094 8.59502 29.9094 8.59502C29.9094 8.59502 29.9094 8.59502 29.9094 8.59502C29.9094 8.59502 29.9094 8.59502 29.9094 8.59502C29.9094 8.59502 29.9094 8.59502 29.9094 8.59502C29.9094 8.59502 29.9094 8.59502 29.9094 8.59502C29.9094 8.59502 29.9094 8.59502 29.9094 8.59502C29.9094 8.59502 29.9094 8.59502 29.9094 8.59502C29.9094 8.59502 29.9094 8.59502 29.9094 8.59502C29.9094 8.59502 29.9094 8.59502 29.9094 8.59502C29.9094 8.59502 29.9094 8.59502 29.9094 8.59502C29.9094 8.59502 29.9094 8.59502 29.9094 8.59502C29.9094 8.59502 29.9094 8.59502 29.9093 8.59502C29.9093 8.59502 29.9093 8.59502 29.9093 8.59502C29.9093 8.59502 29.9093 8.59502 29.9093 8.59502C29.9093 8.59502 29.9093 8.59502 29.9093 8.59502C29.9093 8.59502 29.9093 8.59502 29.9093 8.59502C29.9093 8.59502 29.9093 8.59502 29.9093 8.59502C29.9093 8.59502 29.9093 8.59502 29.9093 8.59502C29.9093 8.59502 29.9093 8.59502 29.9093 8.59502C29.9093 8.59502 29.9093 8.59502 29.9093 8.59502C29.9093 8.59502 29.9093 8.59502 29.9093 8.59502C29.9092 8.59502 29.9092 8.59502 29.9092 8.59502C29.9092 8.59502 29.9092 8.59502 29.9092 8.59502C29.9092 8.59502 29.9092 8.59502 29.9092 8.59502C29.9092 8.59502 29.9092 8.59502 29.9092 8.59502C29.9092 8.59502 29.9092 8.59502 29.9092 8.59502C29.9092 8.59502 29.9092 8.59502 29.9092 8.59502C29.9092 8.59502 29.9092 8.59502 29.9091 8.59502C29.9091 8.59502 29.9091 8.59502 29.9091 8.59502C29.9091 8.59502 29.9091 8.59502 29.9091 8.59502C29.9091 8.59502 29.9091 8.59502 29.9091 8.59502C29.9091 8.59502 29.9091 8.59502 29.9091 8.59502C29.9091 8.59502 29.9091 8.59502 29.9091 8.59502C29.909 8.59502 29.909 8.59502 29.909 8.59502C29.909 8.59502 29.909 8.59502 29.909 8.59502C29.909 8.59502 29.909 8.59502 29.909 8.59502C29.909 8.59502 29.909 8.59502 29.909 8.59502C29.909 8.59502 29.909 8.59502 29.909 8.59502C29.9089 8.59502 29.9089 8.59502 29.9089 8.59502C29.9089 8.59502 29.9089 8.59502 29.9089 8.59502C29.9089 8.59502 29.9089 8.59502 29.9089 8.59502C29.9089 8.59502 29.9089 8.59502 29.9089 8.59502C29.9089 8.59502 29.9089 8.59502 29.9088 8.59502C29.9088 8.59502 29.9088 8.59502 29.9088 8.59502C29.9088 8.59502 29.9088 8.59502 29.9088 8.59502C29.9088 8.59502 29.9088 8.59502 29.9088 8.59502C29.9088 8.59502 29.9088 8.59502 29.9087 8.59502C29.9087 8.59502 29.9087 8.59502 29.9087 8.59502C29.9087 8.59502 29.9087 8.59502 29.9087 8.59502C29.9087 8.59502 29.9087 8.59502 29.9087 8.59502C29.9087 8.59502 29.9086 8.59502 29.9086 8.59502C29.9086 8.59502 29.9086 8.59502 29.9086 8.59502C29.9086 8.59502 29.9086 8.59502 29.9086 8.59502C29.9086 8.59502 29.9086 8.59502 29.9086 8.59502C29.9085 8.59502 29.9085 8.59502 29.9085 8.59502C29.9085 8.59502 29.9085 8.59502 29.9085 8.59502C29.9085 8.59502 29.9085 8.59502 29.9085 8.59502C29.9085 8.59502 29.9084 8.59502 29.9084 8.59502C29.9084 8.59502 29.9084 8.59502 29.9084 8.59502C29.9084 8.59502 29.9084 8.59502 29.9084 8.59502C29.9084 8.59502 29.9084 8.59502 29.9083 8.59502C29.9083 8.59502 29.9083 8.59502 29.9083 8.59502C29.9083 8.59502 29.9083 8.59502 29.9083 8.59502C29.9083 8.59502 29.9083 8.59502 29.9082 8.59502C29.9082 8.59502 29.9082 8.59502 29.9082 8.59502C29.9082 8.59502 29.9082 8.59502 29.9082 8.59502C29.9082 8.59502 29.9082 8.59502 29.9081 8.59502C29.9081 8.59502 29.9081 8.59502 29.9081 8.59502C29.9081 8.59502 29.9081 8.59502 29.9081 8.59502C29.9081 8.59502 29.9081 8.59502 29.908 8.59502C29.908 8.59502 29.908 8.59502 29.908 8.59502C29.908 8.59502 29.908 8.59502 29.908 8.59502C29.908 8.59502 29.9079 8.59502 29.9079 8.59502C29.9079 8.59502 29.9079 8.59502 29.9079 8.59502C29.9079 8.59502 29.9079 8.59502 29.9079 8.59502C29.9078 8.59502 29.9078 8.59502 29.9078 8.59502C29.9078 8.59502 29.9078 8.59502 29.9078 8.59502C29.9078 8.59502 29.9078 8.59502 29.9077 8.59502C29.9077 8.59502 29.9077 8.59502 29.9077 8.59502C29.9077 8.59502 29.9077 8.59502 29.9077 8.59502C29.9077 8.59502 29.9076 8.59502 29.9076 8.59502C29.9076 8.59502 29.9076 8.59502 29.9076 8.59502C29.9076 8.59502 29.9076 8.59502 29.9075 8.59502C29.9075 8.59502 29.9075 8.59502 29.9075 8.59502C29.9075 8.59502 29.9075 8.59502 29.9075 8.59502C29.9074 8.59502 29.9074 8.59502 29.9074 8.59502C29.9074 8.59502 29.9074 8.59502 29.9074 8.59502C29.9074 8.59502 29.9073 8.59502 29.9073 8.59502C29.9073 8.59502 29.9073 8.59502 29.9073 8.59502C29.9073 8.59502 29.9073 8.59502 29.9072 8.59502C29.9072 8.59502 29.9072 8.59502 29.9072 8.59502C29.9072 8.59502 29.9072 8.59502 29.9072 8.59502C29.9071 8.59502 29.9071 8.59502 29.9071 8.59502C29.9071 8.59502 29.9071 8.59502 29.9071 8.59502C29.9071 8.59502 29.907 8.59502 29.907 8.59502C29.907 8.59502 29.907 8.59502 29.907 8.59502C29.907 8.59502 29.9069 8.59502 29.9069 8.59502C29.9069 8.59502 29.9069 8.59502 29.9069 8.59502C29.9069 8.59502 29.9069 8.59502 29.9068 8.59502C29.9068 8.59502 29.9068 8.59502 29.9068 8.59502C29.9068 8.59502 29.9068 8.59502 29.9067 8.59502C29.9067 8.59502 29.9067 8.59502 29.9067 8.59502C29.9067 8.59502 29.9067 8.59502 29.9066 8.59502C29.9066 8.59502 29.9066 8.59502 29.9066 8.59502C29.9066 8.59502 29.9066 8.59502 29.9066 8.59502C29.9065 8.59502 29.9065 8.59502 29.9065 8.59502C29.9065 8.59502 29.9065 8.59502 29.9065 8.59502C29.9064 8.59502 29.9064 8.59502 29.9064 8.59502C29.9064 8.59502 29.9064 8.59502 29.9064 8.59502C29.9063 8.59502 29.9063 8.59502 29.9063 8.59502C29.9063 8.59502 29.9063 8.59502 29.9062 8.59502C29.9062 8.59502 29.9062 8.59502 29.9062 8.59502C29.9062 8.59502 29.9062 8.59502 29.9061 8.59502C29.9061 8.59502 29.9061 8.59502 29.9061 8.59502C29.9061 8.59502 29.9061 8.59502 29.906 8.59502C29.906 8.59502 29.906 8.59502 29.906 8.59502C29.906 8.59502 29.906 8.59502 29.9059 8.59502C29.9059 8.59502 29.9059 8.59502 29.9059 8.59502C29.9059 8.59502 29.9058 8.59502 29.9058 8.59502C29.9058 8.59502 29.9058 8.59502 29.9058 8.59502C29.9058 8.59502 29.9057 8.59502 29.9057 8.59502C29.9057 8.59502 29.9057 8.59502 29.9057 8.59502C29.9056 8.59502 29.9056 8.59502 29.9056 8.59502C29.9056 8.59502 29.9056 8.59502 29.9056 8.59502C29.9055 8.59502 29.9055 8.59502 29.9055 8.59502C29.9055 8.59502 29.9055 8.59502 29.9054 8.59502C29.9054 8.59502 29.9054 8.59502 29.9054 8.59502C29.9054 8.59502 29.9053 8.59502 29.9053 8.59502C29.9053 8.59502 29.9053 8.59502 29.9053 8.59502C29.9052 8.59502 29.9052 8.59502 29.9052 8.59502C29.9052 8.59502 29.9052 8.59502 29.9052 8.59502C29.9051 8.59502 29.9051 8.59502 29.9051 8.59502C29.9051 8.59502 29.9051 8.59502 29.905 8.59502C29.905 8.59502 29.905 8.59502 29.905 8.59502C29.905 8.59502 29.9049 8.59502 29.9049 8.59502C29.9049 8.59502 29.9049 8.59502 29.9049 8.59502C29.9048 8.59502 29.9048 8.59502 29.9048 8.59502C29.9048 8.59502 29.9048 8.59502 29.9047 8.59502C29.9047 8.59502 29.9047 8.59502 29.9047 8.59502C29.9047 8.59502 29.9046 8.59502 29.9046 8.59502C29.9046 8.59502 29.9046 8.59502 29.9046 8.59502C29.9045 8.59502 29.9045 8.59502 29.9045 8.59502C29.9045 8.59502 29.9045 8.59502 29.9044 8.59502C29.9044 8.59502 29.9044 8.59502 29.9044 8.59502C29.9043 8.59502 29.9043 8.59502 29.9043 8.59502C29.9043 8.59502 29.9043 8.59502 29.9042 8.59502C29.9042 8.59502 29.9042 8.59502 29.9042 8.59502C29.9042 8.59502 29.9041 8.59502 29.9041 8.59502C29.9041 8.59502 29.9041 8.59502 29.9041 8.59502C29.904 8.59502 29.904 8.59502 29.904 8.59502C29.904 8.59502 29.9039 8.59502 29.9039 8.59502C29.9039 8.59502 29.9039 8.59502 29.9039 8.59502C29.9038 8.59502 29.9038 8.59502 29.9038 8.59502C29.9038 8.59502 29.9038 8.59502 29.9037 8.59502C29.9037 8.59502 29.9037 8.59502 29.9037 8.59502C29.9036 8.59502 29.9036 8.59502 29.9036 8.59502C29.9036 8.59502 29.9036 8.59502 29.9035 8.59502C29.9035 8.59502 29.9035 8.59502 29.9035 8.59502C29.9034 8.59502 29.9034 8.59502 29.9034 8.59502C29.9034 8.59502 29.9034 8.59502 29.9033 8.59502C29.9033 8.59502 29.9033 8.59502 29.9033 8.59502C29.9032 8.59502 29.9032 8.59502 29.9032 8.59502C29.9032 8.59502 29.9032 8.59502 29.9031 8.59502C29.9031 8.59502 29.9031 8.59502 29.9031 8.59502C29.903 8.59502 29.903 8.59502 29.903 8.59502C29.903 8.59502 29.9029 8.59502 29.9029 8.59502C29.9029 8.59502 29.9029 8.59502 29.9029 8.59502C29.9028 8.59502 29.9028 8.59502 29.9028 8.59502C29.9028 8.59502 29.9027 8.59502 29.9027 8.59502C29.9027 8.59502 29.9027 8.59502 29.9026 8.59502C29.9026 8.59502 29.9026 8.59502 29.9026 8.59502C29.9026 8.59502 29.9025 8.59502 29.9025 8.59502C29.9025 8.59502 29.9025 8.59502 29.9024 8.59502C29.9024 8.59502 29.9024 8.59502 29.9024 8.59502C29.9023 8.59502 29.9023 8.59502 29.9023 8.59502C29.9023 8.59502 29.9022 8.59502 29.9022 8.59502C29.9022 8.59502 29.9022 8.59502 29.9022 8.59502C29.9021 8.59502 29.9021 8.59502 29.9021 8.59502C29.9021 8.59502 29.902 8.59502 29.902 8.59502C29.902 8.59502 29.902 8.59502 29.9019 8.59502C29.9019 8.59502 29.9019 8.59502 29.9019 8.59502C29.9018 8.59502 29.9018 8.59502 29.9018 8.59502C29.9018 8.59502 29.9017 8.59502 29.9017 8.59502C29.9017 8.59502 29.9017 8.59502 29.9016 8.59502C29.9016 8.59502 29.9016 8.59502 29.9016 8.59502C29.9015 8.59502 29.9015 8.59502 29.9015 8.59502C29.9015 8.59502 29.9014 8.59502 29.9014 8.59502C29.9014 8.59502 29.9014 8.59502 29.9013 8.59502C29.9013 8.59502 29.9013 8.59502 29.9013 8.59502C29.9012 8.59502 29.9012 8.59502 29.9012 8.59502C29.9012 8.59502 29.9011 8.59502 29.9011 8.59502C29.9011 8.59502 29.9011 8.59502 29.901 8.59502C29.901 8.59502 29.901 8.59502 29.901 8.59502C29.9009 8.59502 29.9009 8.59502 29.9009 8.59502C29.9009 8.59502 29.9008 8.59502 29.9008 8.59502C29.9008 8.59502 29.9008 8.59502 29.9007 8.59502C29.9007 8.59502 29.9007 8.59502 29.9007 8.59502C29.9006 8.59502 29.9006 8.59502 29.9006 8.59502C29.9006 8.59502 29.9005 8.59502 29.9005 8.59502C29.9005 8.59502 29.9005 8.59502 29.9004 8.59502C29.9004 8.59502 29.9004 8.59502 29.9004 8.59502C29.9003 8.59502 29.9003 8.59502 29.9003 8.59502C29.9003 8.59502 29.9002 8.59502 29.9002 8.59502C29.9002 8.59502 29.9002 8.59502 29.9001 8.59502C29.9001 8.59502 29.9001 8.59502 29.9001 8.59502C29.9 8.59502 29.9 8.59502 29.9 8.59502C29.8999 8.59502 29.8999 8.59502 29.8999 8.59502C29.8999 8.59502 29.8998 8.59502 29.8998 8.59502C29.8998 8.59502 29.8998 8.59502 29.8997 8.59502C29.8997 8.59502 29.8997 8.59502 29.8997 8.59502C29.8996 8.59502 29.8996 8.59502 29.8996 8.59502C29.8996 8.59502 29.8995 8.59502 29.8995 8.59502C29.8995 8.59502 29.8994 8.59502 29.8994 8.59502C29.8994 8.59502 29.8994 8.59502 29.8993 8.59502C29.8993 8.59502 29.8993 8.59502 29.8993 8.59502C29.8992 8.59502 29.8992 8.59502 29.8992 8.59502C29.8991 8.59502 29.8991 8.59502 29.8991 8.59502C29.8991 8.59502 29.899 8.59502 29.899 8.59502C29.899 8.59502 29.899 8.59502 29.8989 8.59502C29.8989 8.59502 29.8989 8.59502 29.8989 8.59502C29.8988 8.59502 29.8988 8.59502 29.8988 8.59502C29.8987 8.59502 29.8987 8.59502 29.8987 8.59502C29.8987 8.59502 29.8986 8.59502 29.8986 8.59502C29.8986 8.59502 29.8986 8.59502 29.8985 8.59502C29.8985 8.59502 29.8985 8.59502 29.8984 8.59502C29.8984 8.59502 29.8984 8.59502 29.8984 8.59502C29.8983 8.59502 29.8983 8.59502 29.8983 8.59502C29.8983 8.59502 29.8982 8.59502 29.8982 8.59502C29.8982 8.59502 29.8981 8.59502 29.8981 8.59502C29.8981 8.59502 29.8981 8.59502 29.898 8.59502C29.898 8.59502 29.898 8.59502 29.8979 8.59502C29.8979 8.59502 29.8979 8.59502 29.8979 8.59502C29.8978 8.59502 29.8978 8.59502 29.8978 8.59502C29.8978 8.59502 29.8977 8.59502 29.8977 8.59502C29.8977 8.59502 29.8976 8.59502 29.8976 8.59502C29.8976 8.59502 29.8976 8.59502 29.8975 8.59502C29.8975 8.59502 29.8975 8.59502 29.8974 8.59502C29.8974 8.59502 29.8974 8.59502 29.8974 8.59502C29.8973 8.59502 29.8973 8.59502 29.8973 8.59502C29.8972 8.59502 29.8972 8.59502 29.8972 8.59502C29.8972 8.59502 29.8971 8.59502 29.8971 8.59502C29.8971 8.59502 29.897 8.59502 29.897 8.59502C29.897 8.59502 29.897 8.59502 29.8969 8.59502C29.8969 8.59502 29.8969 8.59502 29.8968 8.59502C29.8968 8.59502 29.8968 8.59502 29.8968 8.59502C29.8967 8.59502 29.8967 8.59502 29.8967 8.59502C29.8966 8.59502 29.8966 8.59502 29.8966 8.59502C29.8966 8.59502 29.8965 8.59502 29.8965 8.59502C29.8965 8.59502 29.8964 8.59502 29.8964 8.59502C29.8964 8.59502 29.8964 8.59502 29.8963 8.59502C29.8963 8.59502 29.8963 8.59502 29.8962 8.59502C29.8962 8.59502 29.8962 8.59502 29.8962 8.59502C29.8961 8.59502 29.8961 8.59502 29.8961 8.59502C29.896 8.59502 29.896 8.59502 29.896 8.59502C29.896 8.59502 29.8959 8.59502 29.8959 8.59502C29.8959 8.59502 29.8958 8.59502 29.8958 8.59502C29.8958 8.59502 29.8958 8.59502 29.8957 8.59502C29.8957 8.59502 29.8957 8.59502 29.8956 8.59502C29.8956 8.59502 29.8956 8.59502 29.8955 8.59502C29.8955 8.59502 29.8955 8.59502 29.8955 8.59502C29.8954 8.59502 29.8954 8.59502 29.8954 8.59502C29.8953 8.59502 29.8953 8.59502 29.8953 8.59502C29.8953 8.59502 29.8952 8.59502 29.8952 8.59502C29.8952 8.59502 29.8951 8.59502 29.8951 8.59502C29.8951 8.59502 29.895 8.59502 29.895 8.59502C29.895 8.59502 29.895 8.59502 29.8949 8.59502C29.8949 8.59502 29.8949 8.59502 29.8948 8.59502C29.8948 8.59502 29.8948 8.59502 29.8948 8.59502C29.8947 8.59502 29.8947 8.59502 29.8947 8.59502C29.8946 8.59502 29.8946 8.59502 29.8946 8.59502C29.8945 8.59502 29.8945 8.59502 29.8945 8.59502C29.8945 8.59502 29.8944 8.59502 29.8944 8.59502C29.8944 8.59502 29.8943 8.59502 29.8943 8.59502C29.8943 8.59502 29.8942 8.59502 29.8942 8.59502C29.8942 8.59502 29.8942 8.59502 29.8941 8.59502C29.8941 8.59502 29.8941 8.59502 29.894 8.59502C29.894 8.59502 29.894 8.59502 29.8939 8.59502C29.8939 8.59502 29.8939 8.59502 29.8939 8.59502C29.8938 8.59502 29.8938 8.59502 29.8938 8.59502C29.8937 8.59502 29.8937 8.59502 29.8937 8.59502C29.8936 8.59502 29.8936 8.59502 29.8936 8.59502C29.8936 8.59502 29.8935 8.59502 29.8935 8.59502C29.8935 8.59502 29.8934 8.59502 29.8934 8.59502C29.8934 8.59502 29.8933 8.59502 29.8933 8.59502C29.8933 8.59502 29.8933 8.59502 29.8932 8.59502C29.8932 8.59502 29.8932 8.59502 29.8931 8.59502C29.8931 8.59502 29.8931 8.59502 29.893 8.59502C29.893 8.59502 29.893 8.59502 29.893 8.59502C29.8929 8.59502 29.8929 8.59502 29.8929 8.59502C29.8928 8.59502 29.8928 8.59502 29.8928 8.59502C29.8927 8.59502 29.8927 8.59502 29.8927 8.59502C29.8926 8.59502 29.8926 8.59502 29.8926 8.59502C29.8926 8.59502 29.8925 8.59502 29.8925 8.59502C29.8925 8.59502 29.8924 8.59502 29.8924 8.59502C29.8924 8.59502 29.8923 8.59502 29.8923 8.59502C29.8923 8.59502 29.8923 8.59502 29.8922 8.59502C29.8922 8.59502 29.8922 8.59502 29.8921 8.59502C29.8921 8.59502 29.8921 8.59502 29.892 8.59502C29.892 8.59502 29.892 8.59502 29.8919 8.59502C29.8919 8.59502 29.8919 8.59502 29.8919 8.59502C29.8918 8.59502 29.8918 8.59502 29.8918 8.59502C29.8917 8.59502 29.8917 8.59502 29.8917 8.59502C29.8916 8.59502 29.8916 8.59502 29.8916 8.59502C29.8915 8.59502 29.8915 8.59502 29.8915 8.59502C29.8915 8.59502 29.8914 8.59502 29.8914 8.59502C29.8914 8.59502 29.8913 8.59502 29.8913 8.59502C29.8913 8.59502 29.8912 8.59502 29.8912 8.59502C29.8912 8.59502 29.8911 8.59502 29.8911 8.59502C29.8911 8.59502 29.8911 8.59502 29.891 8.59502C29.891 8.59502 29.891 8.59502 29.8909 8.59502C29.8909 8.59502 29.8909 8.59502 29.8908 8.59502C29.8908 8.59502 29.8908 8.59502 29.8907 8.59502C29.8907 8.59502 29.8907 8.59502 29.8906 8.59502C29.8906 8.59502 29.8906 8.59502 29.8906 8.59502C29.8905 8.59502 29.8905 8.59502 29.8905 8.59502C29.8904 8.59502 29.8904 8.59502 29.8904 8.59502C29.8903 8.59502 29.8903 8.59502 29.8903 8.59502C29.8902 8.59502 29.8902 8.59502 29.8902 8.59502C29.8902 8.59502 29.8901 8.59502 29.8901 8.59502C29.8901 8.59502 29.89 8.59502 29.89 8.59502C29.89 8.59502 29.8899 8.59502 29.8899 8.59502C29.8899 8.59502 29.8898 8.59502 29.8898 8.59502C29.8898 8.59502 29.8897 8.59502 29.8897 8.59502C29.8897 8.59502 29.8897 8.59502 29.8896 8.59502C29.8896 8.59502 29.8896 8.59502 29.8895 8.59502C29.8895 8.59502 29.8895 8.59502 29.8894 8.59502C29.8894 8.59502 29.8894 8.59502 29.8893 8.59502C29.8893 8.59502 29.8893 8.59502 29.8892 8.59502C29.8892 8.59502 29.8892 8.59502 29.8892 8.59502C29.8891 8.59502 29.8891 8.59502 29.8891 8.59502C29.889 8.59502 29.889 8.59502 29.889 8.59502C29.8889 8.59502 29.8889 8.59502 29.8889 8.59502C29.8888 8.59502 29.8888 8.59502 29.8888 8.59502C29.8888 8.59502 29.8887 8.59502 29.8887 8.59502C29.8887 8.59502 29.8886 8.59502 29.8886 8.59502C29.8886 8.59502 29.8885 8.59502 29.8885 8.59502C29.8885 8.59502 29.8884 8.59502 29.8884 8.59502C29.8884 8.59502 29.8883 8.59502 29.8883 8.59502C29.8883 8.59502 29.8883 8.59502 29.8882 8.59502C29.8882 8.59502 29.8882 8.59502 29.8881 8.59502C29.8881 8.59502 29.8881 8.59502 29.888 8.59502C29.888 8.59502 29.888 8.59502 29.8879 8.59502C29.8879 8.59502 29.8879 8.59502 29.8878 8.59502C29.8878 8.59502 29.8878 8.59502 29.8878 8.59502C29.8877 8.59502 29.8877 8.59502 29.8877 8.59502C29.8876 8.59502 29.8876 8.59502 29.8876 8.59502C29.8875 8.59502 29.8875 8.59502 29.8875 8.59502C29.8874 8.59502 29.8874 8.59502 29.8874 8.59502C29.8873 8.59502 29.8873 8.59502 29.8873 8.59502C29.8872 8.59502 29.8872 8.59502 29.8872 8.59502C29.8872 8.59502 29.8871 8.59502 29.8871 8.59502C29.8871 8.59502 29.887 8.59502 29.887 8.59502C29.887 8.59502 29.8869 8.59502 29.8869 8.59502C29.8869 8.59502 29.8868 8.59502 29.8868 8.59502C29.8868 8.59502 29.8867 8.59502 29.8867 8.59502C29.8867 8.59502 29.8867 8.59502 29.8866 8.59502C29.8866 8.59502 29.8866 8.59502 29.8865 8.59502C29.8865 8.59502 29.8865 8.59502 29.8864 8.59502C29.8864 8.59502 29.8864 8.59502 29.8863 8.59502C29.8863 8.59502 29.8863 8.59502 29.8862 8.59502C29.8862 8.59502 29.8862 8.59502 29.8862 8.59502C29.8861 8.59502 29.8861 8.59502 29.8861 8.59502C29.886 8.59502 29.886 8.59502 29.886 8.59502C29.8859 8.59502 29.8859 8.59502 29.8859 8.59502C29.8858 8.59502 29.8858 8.59502 29.8858 8.59502C29.8857 8.59502 29.8857 8.59502 29.8857 8.59502C29.8857 8.59502 29.8856 8.59502 29.8856 8.59502C29.8856 8.59502 29.8855 8.59502 29.8855 8.59502C29.8855 8.59502 29.8854 8.59502 29.8854 8.59502C29.8854 8.59502 29.8853 8.59502 29.8853 8.59502C29.8853 8.59502 29.8852 8.59502 29.8852 8.59502C29.8852 8.59502 29.8852 8.59502 29.8851 8.59502C29.8851 8.59502 29.8851 8.59502 29.885 8.59502C29.885 8.59502 29.885 8.59502 29.8849 8.59502C29.8849 8.59502 29.8849 8.59502 29.8848 8.59502C29.8848 8.59502 29.8848 8.59502 29.8848 8.59502C29.8847 8.59502 29.8847 8.59502 29.8847 8.59502C29.8846 8.59502 29.8846 8.59502 29.8846 8.59502C29.8845 8.59502 29.8845 8.59502 29.8845 8.59502C29.8844 8.59502 29.8844 8.59502 29.8844 8.59502C29.8843 8.59502 29.8843 8.59502 29.8843 8.59502C29.8843 8.59502 29.8842 8.59502 29.8842 8.59502C29.8842 8.59502 29.8841 8.59502 29.8841 8.59502C29.8841 8.59502 29.884 8.59502 29.884 8.59502C29.884 8.59502 29.8839 8.59502 29.8839 8.59502C29.8839 8.59502 29.8839 8.59502 29.8838 8.59502C29.8838 8.59502 29.8838 8.59502 29.8837 8.59502C29.8837 8.59502 29.8837 8.59502 29.8836 8.59502C29.8836 8.59502 29.8836 8.59502 29.8835 8.59502C29.8835 8.59502 29.8835 8.59502 29.8834 8.59502C29.8834 8.59502 29.8834 8.59502 29.8834 8.59502C29.8833 8.59502 29.8833 8.59502 29.8833 8.59502C29.8832 8.59502 29.8832 8.59502 29.8832 8.59502C29.8831 8.59502 29.8831 8.59502 29.8831 8.59502C29.883 8.59502 29.883 8.59502 29.883 8.59502C29.883 8.59502 29.8829 8.59502 29.8829 8.59502C29.8829 8.59502 29.8828 8.59502 29.8828 8.59502C29.8828 8.59502 29.8827 8.59502 29.8827 8.59502C29.8827 8.59502 29.8826 8.59502 29.8826 8.59502C29.8826 8.59502 29.8826 8.59502 29.8825 8.59502C29.8825 8.59502 29.8825 8.59502 29.8824 8.59502C29.8824 8.59502 29.8824 8.59502 29.8823 8.59502C29.8823 8.59502 29.8823 8.59502 29.8822 8.59502C29.8822 8.59502 29.8822 8.59502 29.8822 8.59502C29.8821 8.59502 29.8821 8.59502 29.8821 8.59502C29.882 8.59502 29.882 8.59502 29.882 8.59502C29.8819 8.59502 29.8819 8.59502 29.8819 8.59502C29.8819 8.59502 29.8818 8.59502 29.8818 8.59502C29.8818 8.59502 29.8817 8.59502 29.8817 8.59502C29.8817 8.59502 29.8816 8.59502 29.8816 8.59502C29.8816 8.59502 29.8815 8.59502 29.8815 8.59502C29.8815 8.59502 29.8815 8.59502 29.8814 8.59502C29.8814 8.59502 29.8814 8.59502 29.8813 8.59502C29.8813 8.59502 29.8813 8.59502 29.8812 8.59502C29.8812 8.59502 29.8812 8.59502 29.8812 8.59502C29.8811 8.59502 29.8811 8.59502 29.8811 8.59502C29.881 8.59502 29.881 8.59502 29.881 8.59502C29.8809 8.59502 29.8809 8.59502 29.8809 8.59502C29.8809 8.59502 29.8808 8.59502 29.8808 8.59502C29.8808 8.59502 29.8807 8.59502 29.8807 8.59502C29.8807 8.59502 29.8806 8.59502 29.8806 8.59502C29.8806 8.59502 29.8806 8.59502 29.8805 8.59502C29.8805 8.59502 29.8805 8.59502 29.8804 8.59502C29.8804 8.59502 29.8804 8.59502 29.8803 8.59502C29.8803 8.59502 29.8803 8.59502 29.8803 8.59502C29.8802 8.59502 29.8802 8.59502 29.8802 8.59502C29.8801 8.59502 29.8801 8.59502 29.8801 8.59502C29.88 8.59502 29.88 8.59502 29.88 8.59502C29.88 8.59502 29.8799 8.59502 29.8799 8.59502C29.8799 8.59502 29.8798 8.59502 29.8798 8.59502C29.8798 8.59502 29.8797 8.59502 29.8797 8.59502C29.8797 8.59502 29.8797 8.59502 29.8796 8.59502C29.8796 8.59502 29.8796 8.59502 29.8795 8.59502C29.8795 8.59502 29.8795 8.59502 29.8795 8.59502C29.8794 8.59502 29.8794 8.59502 29.8794 8.59502C29.8793 8.59502 29.8793 8.59502 29.8793 8.59502C29.8792 8.59502 29.8792 8.59502 29.8792 8.59502C29.8792 8.59502 29.8791 8.59502 29.8791 8.59502C29.8791 8.59502 29.879 8.59502 29.879 8.59502C29.879 8.59502 29.879 8.59502 29.8789 8.59502C29.8789 8.59502 29.8789 8.59502 29.8788 8.59502C29.8788 8.59502 29.8788 8.59502 29.8787 8.59502C29.8787 8.59502 29.8787 8.59502 29.8787 8.59502C29.8786 8.59502 29.8786 8.59502 29.8786 8.59502C29.8785 8.59502 29.8785 8.59502 29.8785 8.59502C29.8785 8.59502 29.8784 8.59502 29.8784 8.59502C29.8784 8.59502 29.8783 8.59502 29.8783 8.59502C29.8783 8.59502 29.8783 8.59502 29.8782 8.59502C29.8782 8.59502 29.8782 8.59502 29.8781 8.59502C29.8781 8.59502 29.8781 8.59502 29.8781 8.59502C29.878 8.59502 29.878 8.59502 29.878 8.59502C29.8779 8.59502 29.8779 8.59502 29.8779 8.59502C29.8778 8.59502 29.8778 8.59502 29.8778 8.59502C29.8778 8.59502 29.8777 8.59502 29.8777 8.59502C29.8777 8.59502 29.8776 8.59502 29.8776 8.59502C29.8776 8.59502 29.8776 8.59502 29.8775 8.59502C29.8775 8.59502 29.8775 8.59502 29.8774 8.59502C29.8774 8.59502 29.8774 8.59502 29.8774 8.59502C29.8773 8.59502 29.8773 8.59502 29.8773 8.59502C29.8773 8.59502 29.8772 8.59502 29.8772 8.59502C29.8772 8.59502 29.8771 8.59502 29.8771 8.59502C29.8771 8.59502 29.8771 8.59502 29.877 8.59502C29.877 8.59502 29.877 8.59502 29.8769 8.59502C29.8769 8.59502 29.8769 8.59502 29.8769 8.59502C29.8768 8.59502 29.8768 8.59502 29.8768 8.59502C29.8767 8.59502 29.8767 8.59502 29.8767 8.59502C29.8767 8.59502 29.8766 8.59502 29.8766 8.59502C29.8766 8.59502 29.8766 8.59502 29.8765 8.59502C29.8765 8.59502 29.8765 8.59502 29.8764 8.59502C29.8764 8.59502 29.8764 8.59502 29.8764 8.59502C29.8763 8.59502 29.8763 8.59502 29.8763 8.59502C29.8762 8.59502 29.8762 8.59502 29.8762 8.59502C29.8762 8.59502 29.8761 8.59502 29.8761 8.59502C29.8761 8.59502 29.8761 8.59502 29.876 8.59502C29.876 8.59502 29.876 8.59502 29.8759 8.59502C29.8759 8.59502 29.8759 8.59502 29.8759 8.59502C29.8758 8.59502 29.8758 8.59502 29.8758 8.59502C29.8758 8.59502 29.8757 8.59502 29.8757 8.59502C29.8757 8.59502 29.8756 8.59502 29.8756 8.59502C29.8756 8.59502 29.8756 8.59502 29.8755 8.59502C29.8755 8.59502 29.8755 8.59502 29.8755 8.59502C29.8754 8.59502 29.8754 8.59502 29.8754 8.59502C29.8753 8.59502 29.8753 8.59502 29.8753 8.59502C29.8753 8.59502 29.8752 8.59502 29.8752 8.59502C29.8752 8.59502 29.8752 8.59502 29.8751 8.59502C29.8751 8.59502 29.8751 8.59502 29.8751 8.59502C29.875 8.59502 29.875 8.59502 29.875 8.59502C29.8749 8.59502 29.8749 8.59502 29.8749 8.59502C29.8749 8.59502 29.8748 8.59502 29.8748 8.59502C29.8748 8.59502 29.8748 8.59502 29.8747 8.59502C29.8747 8.59502 29.8747 8.59502 29.8747 8.59502C29.8746 8.59502 29.8746 8.59502 29.8746 8.59502C29.8745 8.59502 29.8745 8.59502 29.8745 8.59502C29.8745 8.59502 29.8744 8.59502 29.8744 8.59502C29.8744 8.59502 29.8744 8.59502 29.8743 8.59502C29.8743 8.59502 29.8743 8.59502 29.8743 8.59502C29.8742 8.59502 29.8742 8.59502 29.8742 8.59502C29.8742 8.59502 29.8741 8.59502 29.8741 8.59502C29.8741 8.59502 29.8741 8.59502 29.874 8.59502C29.874 8.59502 29.874 8.59502 29.874 8.59502C29.8739 8.59502 29.8739 8.59502 29.8739 8.59502C29.8739 8.59502 29.8738 8.59502 29.8738 8.59502C29.8738 8.59502 29.8737 8.59502 29.8737 8.59502C29.8737 8.59502 29.8737 8.59502 29.8736 8.59502C29.8736 8.59502 29.8736 8.59502 29.8736 8.59502C29.8735 8.59502 29.8735 8.59502 29.8735 8.59502C29.8735 8.59502 29.8734 8.59502 29.8734 8.59502V9.27728C29.8734 9.27728 29.8735 9.27728 29.8735 9.27728C29.8735 9.27728 29.8735 9.27728 29.8736 9.27728C29.8736 9.27728 29.8736 9.27728 29.8736 9.27728C29.8737 9.27728 29.8737 9.27728 29.8737 9.27728C29.8737 9.27728 29.8738 9.27728 29.8738 9.27728C29.8738 9.27728 29.8739 9.27728 29.8739 9.27728C29.8739 9.27728 29.8739 9.27728 29.874 9.27728C29.874 9.27728 29.874 9.27728 29.874 9.27728C29.8741 9.27728 29.8741 9.27728 29.8741 9.27728C29.8741 9.27728 29.8742 9.27728 29.8742 9.27728C29.8742 9.27728 29.8742 9.27728 29.8743 9.27728C29.8743 9.27728 29.8743 9.27728 29.8743 9.27728C29.8744 9.27728 29.8744 9.27728 29.8744 9.27728C29.8744 9.27728 29.8745 9.27728 29.8745 9.27728C29.8745 9.27728 29.8745 9.27728 29.8746 9.27728C29.8746 9.27728 29.8746 9.27728 29.8747 9.27728C29.8747 9.27728 29.8747 9.27728 29.8747 9.27728C29.8748 9.27728 29.8748 9.27728 29.8748 9.27728C29.8748 9.27728 29.8749 9.27728 29.8749 9.27728C29.8749 9.27728 29.8749 9.27728 29.875 9.27728C29.875 9.27728 29.875 9.27728 29.8751 9.27728C29.8751 9.27728 29.8751 9.27728 29.8751 9.27728C29.8752 9.27728 29.8752 9.27728 29.8752 9.27728C29.8752 9.27728 29.8753 9.27728 29.8753 9.27728C29.8753 9.27728 29.8753 9.27728 29.8754 9.27728C29.8754 9.27728 29.8754 9.27728 29.8755 9.27728C29.8755 9.27728 29.8755 9.27728 29.8755 9.27728C29.8756 9.27728 29.8756 9.27728 29.8756 9.27728C29.8756 9.27728 29.8757 9.27728 29.8757 9.27728C29.8757 9.27728 29.8758 9.27728 29.8758 9.27728C29.8758 9.27728 29.8758 9.27728 29.8759 9.27728C29.8759 9.27728 29.8759 9.27728 29.8759 9.27728C29.876 9.27728 29.876 9.27728 29.876 9.27728C29.8761 9.27728 29.8761 9.27728 29.8761 9.27728C29.8761 9.27728 29.8762 9.27728 29.8762 9.27728C29.8762 9.27728 29.8762 9.27728 29.8763 9.27728C29.8763 9.27728 29.8763 9.27728 29.8764 9.27728C29.8764 9.27728 29.8764 9.27728 29.8764 9.27728C29.8765 9.27728 29.8765 9.27728 29.8765 9.27728C29.8766 9.27728 29.8766 9.27728 29.8766 9.27728C29.8766 9.27728 29.8767 9.27728 29.8767 9.27728C29.8767 9.27728 29.8767 9.27728 29.8768 9.27728C29.8768 9.27728 29.8768 9.27728 29.8769 9.27728C29.8769 9.27728 29.8769 9.27728 29.8769 9.27728C29.877 9.27728 29.877 9.27728 29.877 9.27728C29.8771 9.27728 29.8771 9.27728 29.8771 9.27728C29.8771 9.27728 29.8772 9.27728 29.8772 9.27728C29.8772 9.27728 29.8773 9.27728 29.8773 9.27728C29.8773 9.27728 29.8773 9.27728 29.8774 9.27728C29.8774 9.27728 29.8774 9.27728 29.8774 9.27728C29.8775 9.27728 29.8775 9.27728 29.8775 9.27728C29.8776 9.27728 29.8776 9.27728 29.8776 9.27728C29.8776 9.27728 29.8777 9.27728 29.8777 9.27728C29.8777 9.27728 29.8778 9.27728 29.8778 9.27728C29.8778 9.27728 29.8778 9.27728 29.8779 9.27728C29.8779 9.27728 29.8779 9.27728 29.878 9.27728C29.878 9.27728 29.878 9.27728 29.8781 9.27728C29.8781 9.27728 29.8781 9.27728 29.8781 9.27728C29.8782 9.27728 29.8782 9.27728 29.8782 9.27728C29.8783 9.27728 29.8783 9.27728 29.8783 9.27728C29.8783 9.27728 29.8784 9.27728 29.8784 9.27728C29.8784 9.27728 29.8785 9.27728 29.8785 9.27728C29.8785 9.27728 29.8785 9.27728 29.8786 9.27728C29.8786 9.27728 29.8786 9.27728 29.8787 9.27728C29.8787 9.27728 29.8787 9.27728 29.8787 9.27728C29.8788 9.27728 29.8788 9.27728 29.8788 9.27728C29.8789 9.27728 29.8789 9.27728 29.8789 9.27728C29.879 9.27728 29.879 9.27728 29.879 9.27728C29.879 9.27728 29.8791 9.27728 29.8791 9.27728C29.8791 9.27728 29.8792 9.27728 29.8792 9.27728C29.8792 9.27728 29.8792 9.27728 29.8793 9.27728C29.8793 9.27728 29.8793 9.27728 29.8794 9.27728C29.8794 9.27728 29.8794 9.27728 29.8795 9.27728C29.8795 9.27728 29.8795 9.27728 29.8795 9.27728C29.8796 9.27728 29.8796 9.27728 29.8796 9.27728C29.8797 9.27728 29.8797 9.27728 29.8797 9.27728C29.8797 9.27728 29.8798 9.27728 29.8798 9.27728C29.8798 9.27728 29.8799 9.27728 29.8799 9.27728C29.8799 9.27728 29.88 9.27728 29.88 9.27728C29.88 9.27728 29.88 9.27728 29.8801 9.27728C29.8801 9.27728 29.8801 9.27728 29.8802 9.27728C29.8802 9.27728 29.8802 9.27728 29.8803 9.27728C29.8803 9.27728 29.8803 9.27728 29.8803 9.27728C29.8804 9.27728 29.8804 9.27728 29.8804 9.27728C29.8805 9.27728 29.8805 9.27728 29.8805 9.27728C29.8806 9.27728 29.8806 9.27728 29.8806 9.27728C29.8806 9.27728 29.8807 9.27728 29.8807 9.27728C29.8807 9.27728 29.8808 9.27728 29.8808 9.27728C29.8808 9.27728 29.8809 9.27728 29.8809 9.27728C29.8809 9.27728 29.8809 9.27728 29.881 9.27728C29.881 9.27728 29.881 9.27728 29.8811 9.27728C29.8811 9.27728 29.8811 9.27728 29.8812 9.27728C29.8812 9.27728 29.8812 9.27728 29.8812 9.27728C29.8813 9.27728 29.8813 9.27728 29.8813 9.27728C29.8814 9.27728 29.8814 9.27728 29.8814 9.27728C29.8815 9.27728 29.8815 9.27728 29.8815 9.27728C29.8815 9.27728 29.8816 9.27728 29.8816 9.27728C29.8816 9.27728 29.8817 9.27728 29.8817 9.27728C29.8817 9.27728 29.8818 9.27728 29.8818 9.27728C29.8818 9.27728 29.8819 9.27728 29.8819 9.27728C29.8819 9.27728 29.8819 9.27728 29.882 9.27728C29.882 9.27728 29.882 9.27728 29.8821 9.27728C29.8821 9.27728 29.8821 9.27728 29.8822 9.27728C29.8822 9.27728 29.8822 9.27728 29.8822 9.27728C29.8823 9.27728 29.8823 9.27728 29.8823 9.27728C29.8824 9.27728 29.8824 9.27728 29.8824 9.27728C29.8825 9.27728 29.8825 9.27728 29.8825 9.27728C29.8826 9.27728 29.8826 9.27728 29.8826 9.27728C29.8826 9.27728 29.8827 9.27728 29.8827 9.27728C29.8827 9.27728 29.8828 9.27728 29.8828 9.27728C29.8828 9.27728 29.8829 9.27728 29.8829 9.27728C29.8829 9.27728 29.883 9.27728 29.883 9.27728C29.883 9.27728 29.883 9.27728 29.8831 9.27728C29.8831 9.27728 29.8831 9.27728 29.8832 9.27728C29.8832 9.27728 29.8832 9.27728 29.8833 9.27728C29.8833 9.27728 29.8833 9.27728 29.8834 9.27728C29.8834 9.27728 29.8834 9.27728 29.8834 9.27728C29.8835 9.27728 29.8835 9.27728 29.8835 9.27728C29.8836 9.27728 29.8836 9.27728 29.8836 9.27728C29.8837 9.27728 29.8837 9.27728 29.8837 9.27728C29.8838 9.27728 29.8838 9.27728 29.8838 9.27728C29.8839 9.27728 29.8839 9.27728 29.8839 9.27728C29.8839 9.27728 29.884 9.27728 29.884 9.27728C29.884 9.27728 29.8841 9.27728 29.8841 9.27728C29.8841 9.27728 29.8842 9.27728 29.8842 9.27728C29.8842 9.27728 29.8843 9.27728 29.8843 9.27728C29.8843 9.27728 29.8843 9.27728 29.8844 9.27728C29.8844 9.27728 29.8844 9.27728 29.8845 9.27728C29.8845 9.27728 29.8845 9.27728 29.8846 9.27728C29.8846 9.27728 29.8846 9.27728 29.8847 9.27728C29.8847 9.27728 29.8847 9.27728 29.8848 9.27728C29.8848 9.27728 29.8848 9.27728 29.8848 9.27728C29.8849 9.27728 29.8849 9.27728 29.8849 9.27728C29.885 9.27728 29.885 9.27728 29.885 9.27728C29.8851 9.27728 29.8851 9.27728 29.8851 9.27728C29.8852 9.27728 29.8852 9.27728 29.8852 9.27728C29.8852 9.27728 29.8853 9.27728 29.8853 9.27728C29.8853 9.27728 29.8854 9.27728 29.8854 9.27728C29.8854 9.27728 29.8855 9.27728 29.8855 9.27728C29.8855 9.27728 29.8856 9.27728 29.8856 9.27728C29.8856 9.27728 29.8857 9.27728 29.8857 9.27728C29.8857 9.27728 29.8857 9.27728 29.8858 9.27728C29.8858 9.27728 29.8858 9.27728 29.8859 9.27728C29.8859 9.27728 29.8859 9.27728 29.886 9.27728C29.886 9.27728 29.886 9.27728 29.8861 9.27728C29.8861 9.27728 29.8861 9.27728 29.8862 9.27728C29.8862 9.27728 29.8862 9.27728 29.8862 9.27728C29.8863 9.27728 29.8863 9.27728 29.8863 9.27728C29.8864 9.27728 29.8864 9.27728 29.8864 9.27728C29.8865 9.27728 29.8865 9.27728 29.8865 9.27728C29.8866 9.27728 29.8866 9.27728 29.8866 9.27728C29.8867 9.27728 29.8867 9.27728 29.8867 9.27728C29.8867 9.27728 29.8868 9.27728 29.8868 9.27728C29.8868 9.27728 29.8869 9.27728 29.8869 9.27728C29.8869 9.27728 29.887 9.27728 29.887 9.27728C29.887 9.27728 29.8871 9.27728 29.8871 9.27728C29.8871 9.27728 29.8872 9.27728 29.8872 9.27728C29.8872 9.27728 29.8872 9.27728 29.8873 9.27728C29.8873 9.27728 29.8873 9.27728 29.8874 9.27728C29.8874 9.27728 29.8874 9.27728 29.8875 9.27728C29.8875 9.27728 29.8875 9.27728 29.8876 9.27728C29.8876 9.27728 29.8876 9.27728 29.8877 9.27728C29.8877 9.27728 29.8877 9.27728 29.8878 9.27728C29.8878 9.27728 29.8878 9.27728 29.8878 9.27728C29.8879 9.27728 29.8879 9.27728 29.8879 9.27728C29.888 9.27728 29.888 9.27728 29.888 9.27728C29.8881 9.27728 29.8881 9.27728 29.8881 9.27728C29.8882 9.27728 29.8882 9.27728 29.8882 9.27728C29.8883 9.27728 29.8883 9.27728 29.8883 9.27728C29.8883 9.27728 29.8884 9.27728 29.8884 9.27728C29.8884 9.27728 29.8885 9.27728 29.8885 9.27728C29.8885 9.27728 29.8886 9.27728 29.8886 9.27728C29.8886 9.27728 29.8887 9.27728 29.8887 9.27728C29.8887 9.27728 29.8888 9.27728 29.8888 9.27728C29.8888 9.27728 29.8888 9.27728 29.8889 9.27728C29.8889 9.27728 29.8889 9.27728 29.889 9.27728C29.889 9.27728 29.889 9.27728 29.8891 9.27728C29.8891 9.27728 29.8891 9.27728 29.8892 9.27728C29.8892 9.27728 29.8892 9.27728 29.8892 9.27728C29.8893 9.27728 29.8893 9.27728 29.8893 9.27728C29.8894 9.27728 29.8894 9.27728 29.8894 9.27728C29.8895 9.27728 29.8895 9.27728 29.8895 9.27728C29.8896 9.27728 29.8896 9.27728 29.8896 9.27728C29.8897 9.27728 29.8897 9.27728 29.8897 9.27728C29.8897 9.27728 29.8898 9.27728 29.8898 9.27728C29.8898 9.27728 29.8899 9.27728 29.8899 9.27728C29.8899 9.27728 29.89 9.27728 29.89 9.27728C29.89 9.27728 29.8901 9.27728 29.8901 9.27728C29.8901 9.27728 29.8902 9.27728 29.8902 9.27728C29.8902 9.27728 29.8902 9.27728 29.8903 9.27728C29.8903 9.27728 29.8903 9.27728 29.8904 9.27728C29.8904 9.27728 29.8904 9.27728 29.8905 9.27728C29.8905 9.27728 29.8905 9.27728 29.8906 9.27728C29.8906 9.27728 29.8906 9.27728 29.8906 9.27728C29.8907 9.27728 29.8907 9.27728 29.8907 9.27728C29.8908 9.27728 29.8908 9.27728 29.8908 9.27728C29.8909 9.27728 29.8909 9.27728 29.8909 9.27728C29.891 9.27728 29.891 9.27728 29.891 9.27728C29.8911 9.27728 29.8911 9.27728 29.8911 9.27728C29.8911 9.27728 29.8912 9.27728 29.8912 9.27728C29.8912 9.27728 29.8913 9.27728 29.8913 9.27728C29.8913 9.27728 29.8914 9.27728 29.8914 9.27728C29.8914 9.27728 29.8915 9.27728 29.8915 9.27728C29.8915 9.27728 29.8915 9.27728 29.8916 9.27728C29.8916 9.27728 29.8916 9.27728 29.8917 9.27728C29.8917 9.27728 29.8917 9.27728 29.8918 9.27728C29.8918 9.27728 29.8918 9.27728 29.8919 9.27728C29.8919 9.27728 29.8919 9.27728 29.8919 9.27728C29.892 9.27728 29.892 9.27728 29.892 9.27728C29.8921 9.27728 29.8921 9.27728 29.8921 9.27728C29.8922 9.27728 29.8922 9.27728 29.8922 9.27728C29.8923 9.27728 29.8923 9.27728 29.8923 9.27728C29.8923 9.27728 29.8924 9.27728 29.8924 9.27728C29.8924 9.27728 29.8925 9.27728 29.8925 9.27728C29.8925 9.27728 29.8926 9.27728 29.8926 9.27728C29.8926 9.27728 29.8926 9.27728 29.8927 9.27728C29.8927 9.27728 29.8927 9.27728 29.8928 9.27728C29.8928 9.27728 29.8928 9.27728 29.8929 9.27728C29.8929 9.27728 29.8929 9.27728 29.893 9.27728C29.893 9.27728 29.893 9.27728 29.893 9.27728C29.8931 9.27728 29.8931 9.27728 29.8931 9.27728C29.8932 9.27728 29.8932 9.27728 29.8932 9.27728C29.8933 9.27728 29.8933 9.27728 29.8933 9.27728C29.8933 9.27728 29.8934 9.27728 29.8934 9.27728C29.8934 9.27728 29.8935 9.27728 29.8935 9.27728C29.8935 9.27728 29.8936 9.27728 29.8936 9.27728C29.8936 9.27728 29.8936 9.27728 29.8937 9.27728C29.8937 9.27728 29.8937 9.27728 29.8938 9.27728C29.8938 9.27728 29.8938 9.27728 29.8939 9.27728C29.8939 9.27728 29.8939 9.27728 29.8939 9.27728C29.894 9.27728 29.894 9.27728 29.894 9.27728C29.8941 9.27728 29.8941 9.27728 29.8941 9.27728C29.8942 9.27728 29.8942 9.27728 29.8942 9.27728C29.8942 9.27728 29.8943 9.27728 29.8943 9.27728C29.8943 9.27728 29.8944 9.27728 29.8944 9.27728C29.8944 9.27728 29.8945 9.27728 29.8945 9.27728C29.8945 9.27728 29.8945 9.27728 29.8946 9.27728C29.8946 9.27728 29.8946 9.27728 29.8947 9.27728C29.8947 9.27728 29.8947 9.27728 29.8948 9.27728C29.8948 9.27728 29.8948 9.27728 29.8948 9.27728C29.8949 9.27728 29.8949 9.27728 29.8949 9.27728C29.895 9.27728 29.895 9.27728 29.895 9.27728C29.895 9.27728 29.8951 9.27728 29.8951 9.27728C29.8951 9.27728 29.8952 9.27728 29.8952 9.27728C29.8952 9.27728 29.8953 9.27728 29.8953 9.27728C29.8953 9.27728 29.8953 9.27728 29.8954 9.27728C29.8954 9.27728 29.8954 9.27728 29.8955 9.27728C29.8955 9.27728 29.8955 9.27728 29.8955 9.27728C29.8956 9.27728 29.8956 9.27728 29.8956 9.27728C29.8957 9.27728 29.8957 9.27728 29.8957 9.27728C29.8958 9.27728 29.8958 9.27728 29.8958 9.27728C29.8958 9.27728 29.8959 9.27728 29.8959 9.27728C29.8959 9.27728 29.896 9.27728 29.896 9.27728C29.896 9.27728 29.896 9.27728 29.8961 9.27728C29.8961 9.27728 29.8961 9.27728 29.8962 9.27728C29.8962 9.27728 29.8962 9.27728 29.8962 9.27728C29.8963 9.27728 29.8963 9.27728 29.8963 9.27728C29.8964 9.27728 29.8964 9.27728 29.8964 9.27728C29.8964 9.27728 29.8965 9.27728 29.8965 9.27728C29.8965 9.27728 29.8966 9.27728 29.8966 9.27728C29.8966 9.27728 29.8966 9.27728 29.8967 9.27728C29.8967 9.27728 29.8967 9.27728 29.8968 9.27728C29.8968 9.27728 29.8968 9.27728 29.8968 9.27728C29.8969 9.27728 29.8969 9.27728 29.8969 9.27728C29.897 9.27728 29.897 9.27728 29.897 9.27728C29.897 9.27728 29.8971 9.27728 29.8971 9.27728C29.8971 9.27728 29.8972 9.27728 29.8972 9.27728C29.8972 9.27728 29.8972 9.27728 29.8973 9.27728C29.8973 9.27728 29.8973 9.27728 29.8974 9.27728C29.8974 9.27728 29.8974 9.27728 29.8974 9.27728C29.8975 9.27728 29.8975 9.27728 29.8975 9.27728C29.8976 9.27728 29.8976 9.27728 29.8976 9.27728C29.8976 9.27728 29.8977 9.27728 29.8977 9.27728C29.8977 9.27728 29.8978 9.27728 29.8978 9.27728C29.8978 9.27728 29.8978 9.27728 29.8979 9.27728C29.8979 9.27728 29.8979 9.27728 29.8979 9.27728C29.898 9.27728 29.898 9.27728 29.898 9.27728C29.8981 9.27728 29.8981 9.27728 29.8981 9.27728C29.8981 9.27728 29.8982 9.27728 29.8982 9.27728C29.8982 9.27728 29.8983 9.27728 29.8983 9.27728C29.8983 9.27728 29.8983 9.27728 29.8984 9.27728C29.8984 9.27728 29.8984 9.27728 29.8984 9.27728C29.8985 9.27728 29.8985 9.27728 29.8985 9.27728C29.8986 9.27728 29.8986 9.27728 29.8986 9.27728C29.8986 9.27728 29.8987 9.27728 29.8987 9.27728C29.8987 9.27728 29.8987 9.27728 29.8988 9.27728C29.8988 9.27728 29.8988 9.27728 29.8989 9.27728C29.8989 9.27728 29.8989 9.27728 29.8989 9.27728C29.899 9.27728 29.899 9.27728 29.899 9.27728C29.899 9.27728 29.8991 9.27728 29.8991 9.27728C29.8991 9.27728 29.8991 9.27728 29.8992 9.27728C29.8992 9.27728 29.8992 9.27728 29.8993 9.27728C29.8993 9.27728 29.8993 9.27728 29.8993 9.27728C29.8994 9.27728 29.8994 9.27728 29.8994 9.27728C29.8994 9.27728 29.8995 9.27728 29.8995 9.27728C29.8995 9.27728 29.8996 9.27728 29.8996 9.27728C29.8996 9.27728 29.8996 9.27728 29.8997 9.27728C29.8997 9.27728 29.8997 9.27728 29.8997 9.27728C29.8998 9.27728 29.8998 9.27728 29.8998 9.27728C29.8998 9.27728 29.8999 9.27728 29.8999 9.27728C29.8999 9.27728 29.8999 9.27728 29.9 9.27728C29.9 9.27728 29.9 9.27728 29.9001 9.27728C29.9001 9.27728 29.9001 9.27728 29.9001 9.27728C29.9002 9.27728 29.9002 9.27728 29.9002 9.27728C29.9002 9.27728 29.9003 9.27728 29.9003 9.27728C29.9003 9.27728 29.9003 9.27728 29.9004 9.27728C29.9004 9.27728 29.9004 9.27728 29.9004 9.27728C29.9005 9.27728 29.9005 9.27728 29.9005 9.27728C29.9005 9.27728 29.9006 9.27728 29.9006 9.27728C29.9006 9.27728 29.9006 9.27728 29.9007 9.27728C29.9007 9.27728 29.9007 9.27728 29.9007 9.27728C29.9008 9.27728 29.9008 9.27728 29.9008 9.27728C29.9008 9.27728 29.9009 9.27728 29.9009 9.27728C29.9009 9.27728 29.9009 9.27728 29.901 9.27728C29.901 9.27728 29.901 9.27728 29.901 9.27728C29.9011 9.27728 29.9011 9.27728 29.9011 9.27728C29.9011 9.27728 29.9012 9.27728 29.9012 9.27728C29.9012 9.27728 29.9012 9.27728 29.9013 9.27728C29.9013 9.27728 29.9013 9.27728 29.9013 9.27728C29.9014 9.27728 29.9014 9.27728 29.9014 9.27728C29.9014 9.27728 29.9015 9.27728 29.9015 9.27728C29.9015 9.27728 29.9015 9.27728 29.9016 9.27728C29.9016 9.27728 29.9016 9.27728 29.9016 9.27728C29.9017 9.27728 29.9017 9.27728 29.9017 9.27728C29.9017 9.27728 29.9018 9.27728 29.9018 9.27728C29.9018 9.27728 29.9018 9.27728 29.9019 9.27728C29.9019 9.27728 29.9019 9.27728 29.9019 9.27728C29.902 9.27728 29.902 9.27728 29.902 9.27728C29.902 9.27728 29.9021 9.27728 29.9021 9.27728C29.9021 9.27728 29.9021 9.27728 29.9022 9.27728C29.9022 9.27728 29.9022 9.27728 29.9022 9.27728C29.9022 9.27728 29.9023 9.27728 29.9023 9.27728C29.9023 9.27728 29.9023 9.27728 29.9024 9.27728C29.9024 9.27728 29.9024 9.27728 29.9024 9.27728C29.9025 9.27728 29.9025 9.27728 29.9025 9.27728C29.9025 9.27728 29.9026 9.27728 29.9026 9.27728C29.9026 9.27728 29.9026 9.27728 29.9026 9.27728C29.9027 9.27728 29.9027 9.27728 29.9027 9.27728C29.9027 9.27728 29.9028 9.27728 29.9028 9.27728C29.9028 9.27728 29.9028 9.27728 29.9029 9.27728C29.9029 9.27728 29.9029 9.27728 29.9029 9.27728C29.9029 9.27728 29.903 9.27728 29.903 9.27728C29.903 9.27728 29.903 9.27728 29.9031 9.27728C29.9031 9.27728 29.9031 9.27728 29.9031 9.27728C29.9032 9.27728 29.9032 9.27728 29.9032 9.27728C29.9032 9.27728 29.9032 9.27728 29.9033 9.27728C29.9033 9.27728 29.9033 9.27728 29.9033 9.27728C29.9034 9.27728 29.9034 9.27728 29.9034 9.27728C29.9034 9.27728 29.9034 9.27728 29.9035 9.27728C29.9035 9.27728 29.9035 9.27728 29.9035 9.27728C29.9036 9.27728 29.9036 9.27728 29.9036 9.27728C29.9036 9.27728 29.9036 9.27728 29.9037 9.27728C29.9037 9.27728 29.9037 9.27728 29.9037 9.27728C29.9038 9.27728 29.9038 9.27728 29.9038 9.27728C29.9038 9.27728 29.9038 9.27728 29.9039 9.27728C29.9039 9.27728 29.9039 9.27728 29.9039 9.27728C29.9039 9.27728 29.904 9.27728 29.904 9.27728C29.904 9.27728 29.904 9.27728 29.9041 9.27728C29.9041 9.27728 29.9041 9.27728 29.9041 9.27728C29.9041 9.27728 29.9042 9.27728 29.9042 9.27728C29.9042 9.27728 29.9042 9.27728 29.9042 9.27728C29.9043 9.27728 29.9043 9.27728 29.9043 9.27728C29.9043 9.27728 29.9043 9.27728 29.9044 9.27728C29.9044 9.27728 29.9044 9.27728 29.9044 9.27728C29.9045 9.27728 29.9045 9.27728 29.9045 9.27728C29.9045 9.27728 29.9045 9.27728 29.9046 9.27728C29.9046 9.27728 29.9046 9.27728 29.9046 9.27728C29.9046 9.27728 29.9047 9.27728 29.9047 9.27728C29.9047 9.27728 29.9047 9.27728 29.9047 9.27728C29.9048 9.27728 29.9048 9.27728 29.9048 9.27728C29.9048 9.27728 29.9048 9.27728 29.9049 9.27728C29.9049 9.27728 29.9049 9.27728 29.9049 9.27728C29.9049 9.27728 29.905 9.27728 29.905 9.27728C29.905 9.27728 29.905 9.27728 29.905 9.27728C29.9051 9.27728 29.9051 9.27728 29.9051 9.27728C29.9051 9.27728 29.9051 9.27728 29.9052 9.27728C29.9052 9.27728 29.9052 9.27728 29.9052 9.27728C29.9052 9.27728 29.9052 9.27728 29.9053 9.27728C29.9053 9.27728 29.9053 9.27728 29.9053 9.27728C29.9053 9.27728 29.9054 9.27728 29.9054 9.27728C29.9054 9.27728 29.9054 9.27728 29.9054 9.27728C29.9055 9.27728 29.9055 9.27728 29.9055 9.27728C29.9055 9.27728 29.9055 9.27728 29.9056 9.27728C29.9056 9.27728 29.9056 9.27728 29.9056 9.27728C29.9056 9.27728 29.9056 9.27728 29.9057 9.27728C29.9057 9.27728 29.9057 9.27728 29.9057 9.27728C29.9057 9.27728 29.9058 9.27728 29.9058 9.27728C29.9058 9.27728 29.9058 9.27728 29.9058 9.27728C29.9058 9.27728 29.9059 9.27728 29.9059 9.27728C29.9059 9.27728 29.9059 9.27728 29.9059 9.27728C29.906 9.27728 29.906 9.27728 29.906 9.27728C29.906 9.27728 29.906 9.27728 29.906 9.27728C29.9061 9.27728 29.9061 9.27728 29.9061 9.27728C29.9061 9.27728 29.9061 9.27728 29.9061 9.27728C29.9062 9.27728 29.9062 9.27728 29.9062 9.27728C29.9062 9.27728 29.9062 9.27728 29.9062 9.27728C29.9063 9.27728 29.9063 9.27728 29.9063 9.27728C29.9063 9.27728 29.9063 9.27728 29.9064 9.27728C29.9064 9.27728 29.9064 9.27728 29.9064 9.27728C29.9064 9.27728 29.9064 9.27728 29.9065 9.27728C29.9065 9.27728 29.9065 9.27728 29.9065 9.27728C29.9065 9.27728 29.9065 9.27728 29.9066 9.27728C29.9066 9.27728 29.9066 9.27728 29.9066 9.27728C29.9066 9.27728 29.9066 9.27728 29.9066 9.27728C29.9067 9.27728 29.9067 9.27728 29.9067 9.27728C29.9067 9.27728 29.9067 9.27728 29.9067 9.27728C29.9068 9.27728 29.9068 9.27728 29.9068 9.27728C29.9068 9.27728 29.9068 9.27728 29.9068 9.27728C29.9069 9.27728 29.9069 9.27728 29.9069 9.27728C29.9069 9.27728 29.9069 9.27728 29.9069 9.27728C29.9069 9.27728 29.907 9.27728 29.907 9.27728C29.907 9.27728 29.907 9.27728 29.907 9.27728C29.907 9.27728 29.9071 9.27728 29.9071 9.27728C29.9071 9.27728 29.9071 9.27728 29.9071 9.27728C29.9071 9.27728 29.9071 9.27728 29.9072 9.27728C29.9072 9.27728 29.9072 9.27728 29.9072 9.27728C29.9072 9.27728 29.9072 9.27728 29.9072 9.27728C29.9073 9.27728 29.9073 9.27728 29.9073 9.27728C29.9073 9.27728 29.9073 9.27728 29.9073 9.27728C29.9073 9.27728 29.9074 9.27728 29.9074 9.27728C29.9074 9.27728 29.9074 9.27728 29.9074 9.27728C29.9074 9.27728 29.9074 9.27728 29.9075 9.27728C29.9075 9.27728 29.9075 9.27728 29.9075 9.27728C29.9075 9.27728 29.9075 9.27728 29.9075 9.27728C29.9076 9.27728 29.9076 9.27728 29.9076 9.27728C29.9076 9.27728 29.9076 9.27728 29.9076 9.27728C29.9076 9.27728 29.9077 9.27728 29.9077 9.27728C29.9077 9.27728 29.9077 9.27728 29.9077 9.27728C29.9077 9.27728 29.9077 9.27728 29.9077 9.27728C29.9078 9.27728 29.9078 9.27728 29.9078 9.27728C29.9078 9.27728 29.9078 9.27728 29.9078 9.27728C29.9078 9.27728 29.9078 9.27728 29.9079 9.27728C29.9079 9.27728 29.9079 9.27728 29.9079 9.27728C29.9079 9.27728 29.9079 9.27728 29.9079 9.27728C29.9079 9.27728 29.908 9.27728 29.908 9.27728C29.908 9.27728 29.908 9.27728 29.908 9.27728C29.908 9.27728 29.908 9.27728 29.908 9.27728C29.9081 9.27728 29.9081 9.27728 29.9081 9.27728C29.9081 9.27728 29.9081 9.27728 29.9081 9.27728C29.9081 9.27728 29.9081 9.27728 29.9081 9.27728C29.9082 9.27728 29.9082 9.27728 29.9082 9.27728C29.9082 9.27728 29.9082 9.27728 29.9082 9.27728C29.9082 9.27728 29.9082 9.27728 29.9082 9.27728C29.9083 9.27728 29.9083 9.27728 29.9083 9.27728C29.9083 9.27728 29.9083 9.27728 29.9083 9.27728C29.9083 9.27728 29.9083 9.27728 29.9083 9.27728C29.9084 9.27728 29.9084 9.27728 29.9084 9.27728C29.9084 9.27728 29.9084 9.27728 29.9084 9.27728C29.9084 9.27728 29.9084 9.27728 29.9084 9.27728C29.9084 9.27728 29.9085 9.27728 29.9085 9.27728C29.9085 9.27728 29.9085 9.27728 29.9085 9.27728C29.9085 9.27728 29.9085 9.27728 29.9085 9.27728C29.9085 9.27728 29.9085 9.27728 29.9086 9.27728C29.9086 9.27728 29.9086 9.27728 29.9086 9.27728C29.9086 9.27728 29.9086 9.27728 29.9086 9.27728C29.9086 9.27728 29.9086 9.27728 29.9086 9.27728C29.9086 9.27728 29.9087 9.27728 29.9087 9.27728C29.9087 9.27728 29.9087 9.27728 29.9087 9.27728C29.9087 9.27728 29.9087 9.27728 29.9087 9.27728C29.9087 9.27728 29.9087 9.27728 29.9087 9.27728C29.9088 9.27728 29.9088 9.27728 29.9088 9.27728C29.9088 9.27728 29.9088 9.27728 29.9088 9.27728C29.9088 9.27728 29.9088 9.27728 29.9088 9.27728C29.9088 9.27728 29.9088 9.27728 29.9088 9.27728C29.9089 9.27728 29.9089 9.27728 29.9089 9.27728C29.9089 9.27728 29.9089 9.27728 29.9089 9.27728C29.9089 9.27728 29.9089 9.27728 29.9089 9.27728C29.9089 9.27728 29.9089 9.27728 29.9089 9.27728C29.9089 9.27728 29.9089 9.27728 29.909 9.27728C29.909 9.27728 29.909 9.27728 29.909 9.27728C29.909 9.27728 29.909 9.27728 29.909 9.27728C29.909 9.27728 29.909 9.27728 29.909 9.27728C29.909 9.27728 29.909 9.27728 29.909 9.27728C29.909 9.27728 29.909 9.27728 29.9091 9.27728C29.9091 9.27728 29.9091 9.27728 29.9091 9.27728C29.9091 9.27728 29.9091 9.27728 29.9091 9.27728C29.9091 9.27728 29.9091 9.27728 29.9091 9.27728C29.9091 9.27728 29.9091 9.27728 29.9091 9.27728C29.9091 9.27728 29.9091 9.27728 29.9091 9.27728C29.9092 9.27728 29.9092 9.27728 29.9092 9.27728C29.9092 9.27728 29.9092 9.27728 29.9092 9.27728C29.9092 9.27728 29.9092 9.27728 29.9092 9.27728C29.9092 9.27728 29.9092 9.27728 29.9092 9.27728C29.9092 9.27728 29.9092 9.27728 29.9092 9.27728C29.9092 9.27728 29.9092 9.27728 29.9092 9.27728C29.9092 9.27728 29.9092 9.27728 29.9093 9.27728C29.9093 9.27728 29.9093 9.27728 29.9093 9.27728C29.9093 9.27728 29.9093 9.27728 29.9093 9.27728C29.9093 9.27728 29.9093 9.27728 29.9093 9.27728C29.9093 9.27728 29.9093 9.27728 29.9093 9.27728C29.9093 9.27728 29.9093 9.27728 29.9093 9.27728C29.9093 9.27728 29.9093 9.27728 29.9093 9.27728C29.9093 9.27728 29.9093 9.27728 29.9093 9.27728C29.9093 9.27728 29.9093 9.27728 29.9093 9.27728C29.9093 9.27728 29.9093 9.27728 29.9093 9.27728C29.9094 9.27728 29.9094 9.27728 29.9094 9.27728C29.9094 9.27728 29.9094 9.27728 29.9094 9.27728C29.9094 9.27728 29.9094 9.27728 29.9094 9.27728C29.9094 9.27728 29.9094 9.27728 29.9094 9.27728C29.9094 9.27728 29.9094 9.27728 29.9094 9.27728C29.9094 9.27728 29.9094 9.27728 29.9094 9.27728C29.9094 9.27728 29.9094 9.27728 29.9094 9.27728C29.9094 9.27728 29.9094 9.27728 29.9094 9.27728C29.9094 9.27728 29.9094 9.27728 29.9094 9.27728C29.9094 9.27728 29.9094 9.27728 29.9094 9.27728C29.9094 9.27728 29.9094 9.27728 29.9094 9.27728C29.9094 9.27728 29.9094 9.27728 29.9094 9.27728C29.9094 9.27728 29.9094 9.27728 29.9094 9.27728C29.9094 9.27728 29.9094 9.27728 29.9094 9.27728H29.9094C29.9094 9.27728 29.9094 9.27728 29.9094 9.27728C29.9094 9.27728 29.9094 9.27728 29.9094 8.93615ZM29.8523 8.59567C29.6121 8.61059 29.3841 8.68405 29.2071 8.83661C29.0253 8.99327 28.9258 9.20921 28.9082 9.44899L29.5887 9.49876C29.5943 9.42208 29.6208 9.38074 29.6525 9.35344C29.6889 9.32204 29.7618 9.28487 29.8946 9.27663L29.8523 8.59567ZM28.9082 9.44919C28.8909 9.6881 28.956 9.91678 29.1103 10.0995C29.2615 10.2786 29.4754 10.3868 29.7116 10.4357L29.8501 9.76762C29.7262 9.74195 29.6623 9.69572 29.6316 9.65933C29.6039 9.62659 29.5829 9.5787 29.5887 9.49856L28.9082 9.44919ZM29.7118 10.4357C30.1517 10.5267 30.5902 10.4928 30.9707 10.465L30.9211 9.78458C30.5248 9.81346 30.1815 9.83615 29.8499 9.76759L29.7118 10.4357ZM30.9708 10.465C31.0406 10.4599 31.0811 10.4676 31.1087 10.4778C31.1358 10.4877 31.1711 10.5077 31.2195 10.5569L31.7061 10.0786C31.6028 9.97352 31.485 9.88925 31.3443 9.83747C31.2041 9.78587 31.062 9.77426 30.921 9.78459L30.9708 10.465ZM31.2195 10.5569C32.1261 11.4793 33.0459 12.3943 33.958 13.3068L34.4405 12.8244C33.5266 11.9101 32.6101 10.9984 31.7061 10.0787L31.2195 10.5569ZM34.0076 12.7834C33.0764 13.4157 32.1741 14.1111 31.3861 14.9524L31.8841 15.4188C32.6238 14.629 33.4806 13.9659 34.3909 13.3478L34.0076 12.7834ZM31.3874 14.9511C31.4019 14.9358 31.4107 14.9339 31.3862 14.9473C31.373 14.9546 31.3644 14.9589 31.3424 14.9706C31.3242 14.9803 31.2998 14.9936 31.2742 15.0096L31.6359 15.5881C31.6577 15.5745 31.6601 15.5754 31.7156 15.5448C31.7541 15.5236 31.822 15.4844 31.8828 15.4202L31.3874 14.9511ZM31.6968 15.0582C31.3834 14.7433 31.0705 14.4277 30.7573 14.1118C30.4443 13.7961 30.1309 13.48 29.8168 13.1645L29.3333 13.6459C29.6468 13.9608 29.9597 14.2763 30.2728 14.5922C30.5859 14.908 30.8993 15.224 31.2133 15.5395L31.6968 15.0582ZM29.8164 13.164C29.5933 12.9409 29.3354 12.7225 29.0132 12.7212C28.6897 12.72 28.431 12.9377 28.2074 13.1615L28.6899 13.6438C28.9215 13.4122 28.9984 13.4035 29.0106 13.4035C29.0239 13.4036 29.1016 13.4141 29.3338 13.6464L29.8164 13.164ZM28.2076 13.1612C27.017 14.3498 25.8256 15.5391 24.6418 16.7336L25.1264 17.2139C26.3087 16.0208 27.4988 14.8328 28.6896 13.6441L28.2076 13.1612ZM24.6409 16.7346C24.5451 16.8319 24.4721 16.862 24.3466 16.8591L24.3311 17.5412C24.6583 17.5487 24.9093 17.4346 25.1273 17.213L24.6409 16.7346ZM24.3438 16.8591C23.4502 16.8462 22.5574 16.8488 21.6689 16.8565L21.6749 17.5387C22.561 17.531 23.4479 17.5285 24.3339 17.5413L24.3438 16.8591ZM21.6698 16.8565C21.3972 16.8581 21.14 16.932 20.9437 17.0979C20.7421 17.2683 20.6371 17.5093 20.6313 17.7742L21.3134 17.7891C21.3153 17.7015 21.3453 17.6518 21.3842 17.6189C21.4284 17.5816 21.517 17.5397 21.6739 17.5387L21.6698 16.8565ZM20.6313 17.7749C20.626 18.044 20.7076 18.3023 20.9181 18.4874C21.1193 18.6643 21.3879 18.7295 21.6655 18.7325L21.6731 18.0503C21.4852 18.0482 21.4015 18.004 21.3687 17.9751C21.3451 17.9544 21.311 17.9104 21.3134 17.7884L20.6313 17.7749ZM21.6658 18.7325C22.6616 18.7429 23.636 18.7376 24.6224 18.7582L24.6366 18.0761C23.6478 18.0555 22.6522 18.0605 21.6729 18.0503L21.6658 18.7325ZM24.6218 18.7582C25.0649 18.7682 25.4106 18.6129 25.713 18.3071L25.2279 17.8273C25.0468 18.0104 24.8782 18.0815 24.6372 18.0761L24.6218 18.7582ZM25.7134 18.3067C26.7975 17.2069 27.9269 16.0948 29.0136 14.9872L28.5266 14.5093C27.4273 15.6298 26.3346 16.7046 25.2275 17.8278L25.7134 18.3067ZM29.0129 14.9878C29.0319 14.9686 29.0469 14.9548 29.0586 14.945C29.0704 14.9352 29.0768 14.9311 29.0784 14.9301C29.0798 14.9293 29.0744 14.9327 29.0628 14.9363C29.0569 14.9381 29.0497 14.9399 29.0412 14.9412C29.0327 14.9425 29.0237 14.9431 29.0142 14.943C29.0048 14.9429 28.9958 14.942 28.9874 14.9405C28.979 14.939 28.9719 14.9371 28.9662 14.9352C28.9549 14.9314 28.9498 14.9279 28.9513 14.9289C28.953 14.9299 28.9593 14.9342 28.9709 14.9442C28.9823 14.9541 28.9969 14.968 29.0153 14.9871L29.5074 14.5146C29.4113 14.4145 29.2503 14.2637 29.023 14.2608C28.7943 14.2579 28.6288 14.4057 28.5273 14.5087L29.0129 14.9878ZM29.014 14.9858C29.4642 15.4596 29.9406 15.9128 30.3955 16.3602L30.8739 15.8738C30.4081 15.4156 29.9483 14.9785 29.5086 14.5158L29.014 14.9858ZM30.301 16.0459C30.3032 16.0356 30.3091 16.0378 30.2815 16.0659C30.2656 16.0821 30.2479 16.0979 30.2176 16.1251C30.1909 16.1491 30.1533 16.183 30.117 16.2222L30.6175 16.6859C30.63 16.6723 30.6461 16.6573 30.6734 16.6328C30.6972 16.6114 30.734 16.579 30.7686 16.5437C30.8419 16.4689 30.9327 16.3553 30.9683 16.1881L30.301 16.0459ZM30.119 16.22C29.5864 16.7847 29.0258 17.3084 28.4592 17.8704C27.8987 18.4262 27.3442 19.0084 26.8581 19.6621L27.4056 20.0692C27.8608 19.4571 28.3864 18.9034 28.9396 18.3548C29.4866 17.8124 30.073 17.2631 30.6154 16.6881L30.119 16.22ZM26.8789 19.6368C26.8609 19.6567 26.8484 19.6678 26.8129 19.7038C26.7838 19.7333 26.7428 19.7763 26.7052 19.8304L27.2653 20.2199C27.2688 20.2149 27.2767 20.2052 27.2984 20.1831C27.3137 20.1677 27.3539 20.1287 27.3849 20.0945L26.8789 19.6368ZM26.7102 19.8234C25.0605 22.0714 24.2725 24.6005 24.2883 27.3778L24.9706 27.3739C24.9556 24.7378 25.7004 22.3528 27.2603 20.227L26.7102 19.8234ZM24.2883 27.3778C24.2972 28.8752 25.4185 29.9943 26.9195 30.0119L26.9275 29.3297C25.7951 29.3164 24.9772 28.4956 24.9706 27.3738L24.2883 27.3778ZM26.9198 30.0119C28.3588 30.0278 29.7663 29.8111 31.1323 29.337L30.9086 28.6925C29.6205 29.1395 28.2916 29.3447 26.9273 29.3297L26.9198 30.0119ZM31.1321 29.3371C32.5691 28.8395 33.9056 28.132 35.058 27.0913L34.6007 26.5849C33.531 27.5511 32.2802 28.2175 30.9088 28.6924L31.1321 29.3371ZM35.0466 27.1011C35.1948 26.9787 35.4232 26.8136 35.5991 26.6431L35.1243 26.1532C34.971 26.3017 34.8188 26.4043 34.612 26.5751L35.0466 27.1011ZM35.6006 26.6417C36.5299 25.73 37.452 24.8101 38.3744 23.8951L37.8939 23.4107C36.9697 24.3276 36.0503 25.2447 35.1228 26.1546L35.6006 26.6417ZM37.8949 23.8961C38.3469 24.3407 38.8082 24.8175 39.2894 25.2599L39.7512 24.7577C39.2809 24.3253 38.8421 23.8708 38.3733 23.4097L37.8949 23.8961ZM39.2891 25.2596C39.311 25.2798 39.3266 25.2959 39.3375 25.3085C39.3486 25.3211 39.3531 25.3281 39.3542 25.3298C39.3551 25.3313 39.3516 25.326 39.3482 25.3143C39.3445 25.3019 39.3421 25.2861 39.3427 25.2684C39.3441 25.232 39.3575 25.2154 39.3505 25.2264C39.347 25.232 39.3399 25.2419 39.327 25.2569C39.3142 25.2719 39.2974 25.2899 39.2754 25.3116L39.755 25.7969C39.8604 25.6927 40.0157 25.5246 40.0245 25.2946C40.034 25.0487 39.8755 24.8722 39.7515 24.758L39.2891 25.2596ZM39.2762 25.3108C38.1611 26.4058 37.0603 27.5199 35.9588 28.6218L36.4414 29.1041C37.5466 27.9985 38.6421 26.8897 39.7542 25.7977L39.2762 25.3108ZM35.9588 28.6218C35.8249 28.7558 35.5452 29.0053 35.5452 29.4187H36.2275C36.2275 29.3329 36.2667 29.2789 36.4414 29.1041L35.9588 28.6218ZM35.5452 29.4211C35.5529 30.5142 35.5504 31.6175 35.5632 32.7159L36.2455 32.708C36.2326 31.6092 36.2352 30.5203 36.2275 29.4163L35.5452 29.4211ZM35.5632 32.7119C35.5632 32.8543 35.5839 33.0204 35.6625 33.1777C35.7451 33.343 35.8813 33.4774 36.0727 33.5618L36.348 32.9375C36.3002 32.9165 36.2834 32.894 36.2728 32.8727C36.2582 32.8434 36.2455 32.7934 36.2455 32.7119H35.5632ZM36.0693 33.5603C36.3849 33.7036 36.7282 33.6922 37.0012 33.5141C37.2736 33.3364 37.425 33.0261 37.4285 32.6742L36.7463 32.6674C36.7447 32.8275 36.6812 32.9082 36.6284 32.9427C36.576 32.9769 36.4834 32.999 36.3515 32.9391L36.0693 33.5603ZM37.4285 32.6738C37.4362 31.7938 37.4337 30.9105 37.4156 30.0292L36.7335 30.0432C36.7514 30.9165 36.7539 31.7931 36.7463 32.6678L37.4285 32.6738ZM37.4156 30.0295C37.4137 29.9318 37.4263 29.8668 37.4468 29.8157C37.4672 29.7648 37.5031 29.7082 37.5739 29.6383L37.0946 29.1527C36.9726 29.2732 36.876 29.4058 36.8134 29.562C36.751 29.718 36.7302 29.8781 36.7334 30.0429L37.4156 30.0295ZM37.5737 29.6385C38.7838 28.4459 39.9786 27.2429 41.1763 26.0422L40.6933 25.5603C39.4941 26.7626 38.3022 27.9627 37.0948 29.1526L37.5737 29.6385ZM41.1761 26.0424C41.384 25.8344 41.5603 25.5883 41.5627 25.2878C41.5651 24.9855 41.391 24.7396 41.1872 24.5343L40.703 25.015C40.8696 25.1828 40.8806 25.2598 40.8805 25.2824C40.8803 25.3066 40.8663 25.3873 40.6936 25.5601L41.1761 26.0424ZM41.1878 24.5349C40.5368 23.876 39.8834 23.2171 39.2302 22.5585L38.7457 23.0389C39.399 23.6976 40.052 24.356 40.7024 25.0144L41.1878 24.5349ZM39.2228 23.0461C40.1016 22.2119 40.8506 21.2749 41.5125 20.2752L40.9436 19.8986C40.3041 20.8646 39.5872 21.7595 38.7531 22.5513L39.2228 23.0461ZM40.9864 20.3278C41.8955 21.2398 42.8055 22.1604 43.7278 23.0676L44.2062 22.5812C43.2871 21.6772 42.3814 20.7608 41.4696 19.8461L40.9864 20.3278ZM43.7278 23.0676C43.7823 23.1213 43.8039 23.1578 43.8138 23.183C43.8227 23.2057 43.83 23.2388 43.8234 23.2992L44.5016 23.3736C44.5181 23.2231 44.5048 23.0761 44.4488 22.9335C44.3937 22.7934 44.306 22.6794 44.2062 22.5813L43.7278 23.0676ZM43.8235 23.298C43.7803 23.679 43.7676 24.0778 43.8334 24.4844L44.5069 24.3754C44.4544 24.0513 44.4623 23.7195 44.5014 23.3749L43.8235 23.298ZM43.8331 24.4826C43.8731 24.7383 43.972 24.9748 44.1472 25.1464C44.3291 25.3246 44.5687 25.4077 44.8268 25.3875L44.7737 24.7073C44.7026 24.7129 44.6593 24.693 44.6246 24.659C44.5831 24.6183 44.5316 24.5331 44.5072 24.3773L43.8331 24.4826ZM44.826 25.3876C45.0795 25.3683 45.3075 25.2598 45.4694 25.0653C45.6282 24.8746 45.7013 24.6286 45.7046 24.3674L45.0224 24.3587C45.0206 24.5014 44.9818 24.5847 44.9451 24.6288C44.9115 24.6691 44.8605 24.7007 44.7745 24.7072L44.826 25.3876ZM45.7046 24.3684C45.7085 24.121 45.7072 23.8736 45.7056 23.6301C45.704 23.3853 45.7021 23.1448 45.7046 22.9052L45.0224 22.898C45.0198 23.1447 45.0217 23.3918 45.0233 23.6346C45.0249 23.8786 45.0262 24.1188 45.0224 24.3576L45.7046 24.3684ZM45.7046 22.9052C45.7083 22.5535 45.5723 22.2773 45.3381 22.0464L44.8591 22.5322C44.9798 22.6512 45.0239 22.7557 45.0224 22.8981L45.7046 22.9052ZM45.3387 22.047C44.2412 20.9593 43.1554 19.8628 42.0608 18.7677L41.5783 19.2501C42.6697 20.3419 43.7596 21.4426 44.8585 22.5316L45.3387 22.047ZM42.1376 19.1323C42.2133 18.9371 42.2897 18.7412 42.3662 18.5449C42.4427 18.3488 42.5194 18.1524 42.5953 17.9565L41.9593 17.7097C41.8835 17.9049 41.8071 18.1008 41.7306 18.297C41.6541 18.4932 41.5775 18.6896 41.5015 18.8855L42.1376 19.1323ZM42.39 17.5111C42.3629 17.5016 42.3353 17.4922 42.3091 17.4833C42.2826 17.4742 42.2574 17.4656 42.2332 17.4571L42.0077 18.101C42.0349 18.1105 42.0625 18.12 42.0886 18.1289C42.1152 18.138 42.1403 18.1466 42.1646 18.1551L42.39 17.5111Z" fill="black" mask="url(#path-1-outside-1_38_1153)"/>
<path d="M51.8654 38.2903C51.4059 38.2924 50.9506 38.3948 50.5349 38.5932V38.589L36.2011 44.5561H33.0682C34.7975 44.5561 36.2011 43.1525 36.2011 41.4232C36.2011 40.0677 35.328 38.8647 34.0394 38.4449V38.4407L15.8834 30.5229H15.8584C15.0334 30.1386 14.1353 29.9381 13.2268 29.936C12.4268 29.936 11.6353 30.0906 10.8938 30.3893L0.695312 34.1132V50.8218L9.51118 46.9913C10.5513 46.5402 11.7272 46.5235 12.7777 46.9537L31.7085 54.6877H31.7169C32.1388 54.8903 32.6004 54.9968 33.0661 54.9968C33.607 54.9947 34.1375 54.8527 34.6075 54.5854H34.62L53.3879 44.1592L53.3837 44.155C54.3758 43.6037 54.994 42.5573 54.994 41.4211C54.9982 39.6939 53.5947 38.2903 51.8654 38.2903Z" fill="black"/>
<defs>
<linearGradient id="paint0_linear_38_1153" x1="36.8961" y1="28.8428" x2="36.8961" y2="7.08641" gradientUnits="userSpaceOnUse">
<stop/>
</linearGradient>
</defs>
</svg>
