<svg width="52" height="52" viewBox="0 0 52 52" fill="none" xmlns="http://www.w3.org/2000/svg">
<rect width="52" height="52" rx="26" fill="#F9F041"/>
<g clip-path="url(#clip0_36_113)">
<path d="M31.1662 26.3773C31.217 26.3951 31.2703 26.4129 31.3212 26.4307C31.7023 26.451 32.0581 26.362 32.391 26.1765C33.4837 26.1765 34.579 26.1841 35.6717 26.1765C35.8928 26.1765 36.0554 26.2298 36.2104 26.3951C36.5992 26.8069 37.0033 27.201 37.4073 27.5976C37.6919 27.8772 38.0223 27.8975 38.2688 27.6611C38.5255 27.4145 38.5128 27.0612 38.2256 26.7688C37.7351 26.2705 37.232 25.7875 36.7492 25.2841C36.5484 25.0757 36.3299 24.9969 36.0453 25.002C35.2626 25.0147 34.4824 25.0121 33.6997 25.007C33.5828 25.007 33.4227 25.0858 33.3719 24.8876C33.8547 24.0385 33.9564 23.1131 33.9005 22.1598C34.1546 21.9208 34.4189 21.6894 34.6578 21.4378C34.9881 21.0895 35.0288 20.7107 34.8356 20.2734C34.6654 19.8845 34.3604 19.6074 34.058 19.3353C33.8014 19.1065 33.8827 18.9871 34.1165 18.8244C36.0783 17.4846 38.8533 17.7032 40.594 19.343C40.9752 19.7014 41.2954 19.7396 41.5622 19.4574C41.8265 19.1777 41.7833 18.8447 41.3919 18.4939C39.8393 17.0982 38.0248 16.5414 35.9538 16.8567C35.6005 16.9101 35.2549 17.0092 34.8814 17.0931C34.9093 16.9711 34.9271 16.8668 34.9576 16.7652C35.2092 15.9466 35.2778 15.1102 35.1762 14.2636C35.0008 12.7942 34.4113 11.5129 33.3618 10.4604C33.1025 10.1986 32.7671 10.2088 32.5282 10.4503C32.2944 10.6842 32.2919 10.9918 32.5181 11.2587C32.6807 11.4519 32.851 11.64 33.0034 11.8409C34.3172 13.5798 34.4163 16.066 33.0797 17.9905C32.9653 18.1558 32.8713 18.1456 32.7417 18.0058C32.5613 17.8126 32.3783 17.6168 32.175 17.449C31.5575 16.9355 30.9654 16.8414 30.4089 17.4871C30.2437 17.6778 30.0684 17.8609 29.8956 18.0464C29.8346 18.0871 29.7761 18.1202 29.6973 18.1125C28.752 18.0159 27.8677 18.232 27.024 18.6439C26.9656 18.5295 26.9935 18.4074 26.9935 18.2905C26.9935 17.5075 26.9884 16.7245 26.9986 15.9415C27.0037 15.672 26.9274 15.4559 26.7292 15.2652C26.2261 14.7797 25.7407 14.2789 25.2452 13.7857C24.958 13.5035 24.5895 13.4704 24.3456 13.6992C24.0915 13.9382 24.1245 14.3119 24.432 14.6195C24.7954 14.9881 25.1562 15.3618 25.5349 15.7152C25.7331 15.9008 25.8169 16.0966 25.8144 16.3737C25.8042 17.4566 25.8195 18.5396 25.8246 19.6252C25.667 19.8845 25.5704 20.1641 25.573 20.4717C25.573 20.5709 25.5679 20.6726 25.4536 20.7081C25.08 20.8225 24.7547 21.0666 24.3558 21.1124C23.5781 20.3243 22.8031 19.5311 22.0204 18.7481C21.2157 17.9397 20.2407 17.5677 19.0955 17.6321C19.0955 17.6321 19.0726 17.6321 19.0599 17.6321C18.6914 17.6549 18.4653 17.8507 18.4424 18.1634C18.4195 18.4786 18.6127 18.71 18.9684 18.7837C19.3496 18.8625 19.7359 18.8345 20.1196 18.8066C20.328 18.7913 20.4804 18.8447 20.6304 18.9972C21.5249 19.9073 22.4321 20.8098 23.3342 21.7123C22.4244 22.3301 21.5554 23.0012 20.8006 23.8071C20.7549 23.8554 20.6837 23.8808 20.6227 23.919C20.0027 23.2961 19.3852 22.6707 18.7651 22.0479C18.3153 21.5979 18.1019 21.5954 17.6521 22.0454C16.4755 23.2199 15.2989 24.3944 14.13 25.574C13.975 25.7316 13.8149 25.8028 13.5913 25.7977C12.712 25.785 11.8327 25.7875 10.956 25.7951C10.5317 25.7977 10.2725 26.0239 10.2648 26.3722C10.2572 26.7586 10.4935 26.9696 10.9535 26.9747C11.9293 26.9849 12.9026 26.9798 13.8784 27.0001C14.2164 27.0078 14.4705 26.8959 14.7094 26.6544C15.7919 25.5562 16.8897 24.4757 17.9697 23.3749C18.1629 23.1792 18.2696 23.1843 18.4551 23.3775C18.8947 23.8402 19.3572 24.28 19.8121 24.7274C19.7791 24.8825 19.6444 24.9562 19.5478 25.0604C18.4856 26.1866 17.2811 27.1806 16.351 28.4314C16.3027 28.4848 16.2468 28.5306 16.2061 28.589C14.6204 30.7499 13.8632 33.1777 13.8784 35.8522C13.886 37.1461 14.8441 38.1046 16.1452 38.1198C17.5301 38.1351 18.882 37.9266 20.1933 37.4716C21.5808 36.9911 22.859 36.3123 23.9568 35.3208C24.1321 35.1759 24.3202 35.0437 24.4828 34.8861C25.4002 33.9862 26.3099 33.0786 27.2222 32.1736C27.6771 32.621 28.1218 33.0811 28.5919 33.5133C28.8181 33.7218 28.7978 33.8438 28.5868 34.0523C27.4865 35.1327 26.4014 36.2309 25.3112 37.3216C25.1588 37.4741 25.0012 37.6241 25.0012 37.8707C25.0088 38.9562 25.0063 40.0392 25.019 41.1247C25.019 41.3459 25.0851 41.5518 25.3214 41.656C25.7636 41.8569 26.1829 41.59 26.188 41.084C26.1956 40.2172 26.193 39.3477 26.1753 38.4808C26.1702 38.2215 26.2413 38.0359 26.4319 37.8478C27.6263 36.6708 28.8054 35.4835 29.9896 34.2963C30.3657 33.9201 30.3657 33.6506 29.9998 33.282C29.3568 32.6312 28.7114 31.9804 28.0659 31.3295C28.9121 30.5262 29.6364 29.6212 30.2793 28.65C31.1789 29.5525 32.0759 30.4601 32.9857 31.355C33.1381 31.505 33.2017 31.6524 33.1788 31.8609C33.1381 32.2193 33.128 32.5803 33.1864 32.9413C33.2499 33.3481 33.4837 33.5769 33.809 33.5514C34.1444 33.526 34.3604 33.2743 34.3655 32.8752C34.3731 32.3947 34.3604 31.9117 34.3655 31.4312C34.3681 31.1872 34.2791 30.9991 34.1038 30.8262C33.0187 29.7508 31.9438 28.6653 30.8638 27.5849C31.0137 27.1984 31.1662 26.8095 31.3161 26.4231C31.2653 26.4053 31.2119 26.3875 31.1611 26.3697" fill="url(#paint0_linear_36_113)"/>
</g>
<defs>
<linearGradient id="paint0_linear_36_113" x1="25.999" y1="37.3016" x2="25.999" y2="15.8043" gradientUnits="userSpaceOnUse">
<stop/>
</linearGradient>
<clipPath id="clip0_36_113">
<rect width="31.46" height="31.46" fill="white" transform="translate(10.27 10.27)"/>
</clipPath>
</defs>
</svg>
